M48
;Layer_Color=9474304
;FILE_FORMAT=2:5
INCH
;TYPE=PLATED
T1F00S00C0.01200
T2F00S00C0.03543
T3F00S00C0.12000
%
T01
X0293500Y0384000
X0305500Y0399500
X0289000Y0433500
Y0437500
X0284000
Y0433500
X0279000
Y0437500
X0323000Y0426000
X0350000Y0416500
X0355000Y0404000
X0331000Y0387500
T02
X0296500Y0436000
X0306500
X0316500
X0326500
X0380500Y0419500
Y0409500
Y0399500
T03
X0380500Y0387000
Y0431500
M30
