G04 Layer_Color=65535*
%FSAX25Y25*%
%MOIN*%
G70*
G01*
G75*
%ADD20C,0.01000*%
%ADD31C,0.00984*%
%ADD32C,0.00787*%
%ADD33C,0.00500*%
%ADD34C,0.00800*%
%ADD35C,0.00700*%
%ADD36C,0.01969*%
D20*
X0391500Y0429500D02*
G03*
X0381000Y0441000I-0011000J0000500D01*
G01*
X0380000Y0375500D02*
G03*
X0391500Y0386000I0000500J0011000D01*
G01*
X0363000Y0375500D02*
G03*
X0340000Y0375500I-0011500J0007500D01*
G01*
X0340000Y0441000D02*
G03*
X0363000Y0441000I0011500J-0007500D01*
G01*
X0270000Y0375500D02*
Y0441000D01*
X0391500Y0386000D02*
Y0429500D01*
X0363000Y0441000D02*
X0381000D01*
X0270000D02*
X0340000D01*
X0363000Y0375500D02*
X0380000D01*
X0270000D02*
X0340000D01*
D31*
X0316622Y0388698D02*
G03*
X0316622Y0388698I-0000492J0000000D01*
G01*
D32*
X0307075Y0389874D02*
G03*
X0303925Y0389874I-0001575J0000000D01*
G01*
X0299496Y0429200D02*
X0311504D01*
X0307075Y0389860D02*
X0311504D01*
X0299496D02*
X0303827D01*
X0311504D02*
Y0429200D01*
X0299496Y0389860D02*
Y0429200D01*
X0375500Y0394500D02*
Y0424500D01*
Y0394500D02*
X0385500D01*
Y0424500D01*
X0375500D02*
X0385500D01*
X0291500Y0431000D02*
Y0441000D01*
X0331500D01*
X0291500Y0431000D02*
X0331500D01*
Y0441000D01*
D33*
X0327500Y0427500D02*
X0333500D01*
Y0416500D02*
Y0427500D01*
X0327500Y0416500D02*
X0333500D01*
X0327500D02*
Y0427500D01*
X0332500Y0415209D02*
X0335500D01*
Y0403791D02*
Y0415209D01*
X0332500Y0403791D02*
X0335500D01*
X0332500D02*
Y0415209D01*
X0368043Y0413154D02*
Y0419846D01*
X0367256Y0413154D02*
Y0419846D01*
X0358791Y0413154D02*
X0370209D01*
X0358800Y0419846D02*
X0370209D01*
X0367650Y0413154D02*
Y0419846D01*
X0370209D02*
X0371390D01*
X0370209Y0419256D02*
X0371390Y0419846D01*
X0370209Y0420437D02*
X0371390Y0419846D01*
X0370209Y0419256D02*
Y0420437D01*
X0371390Y0419256D02*
Y0420437D01*
X0293250Y0378250D02*
Y0383750D01*
Y0378250D02*
X0304750D01*
Y0383750D01*
X0293250D02*
X0304750D01*
X0341500Y0400000D02*
X0347500D01*
X0341500D02*
Y0411000D01*
X0347500D01*
Y0400000D02*
Y0411000D01*
X0347000Y0411500D02*
Y0417500D01*
X0336000Y0411500D02*
X0347000D01*
X0336000D02*
Y0417500D01*
X0347000D01*
X0373000Y0407000D02*
Y0413000D01*
X0362000Y0407000D02*
X0373000D01*
X0362000D02*
Y0413000D01*
X0373000D01*
X0362000Y0399000D02*
Y0405000D01*
X0373000D01*
Y0399000D02*
Y0405000D01*
X0362000Y0399000D02*
X0373000D01*
X0353500Y0413209D02*
X0356500D01*
Y0401791D02*
Y0413209D01*
X0353500Y0401791D02*
X0356500D01*
X0353500D02*
Y0413209D01*
X0320750Y0426250D02*
X0326250D01*
X0320750Y0414750D02*
Y0426250D01*
Y0414750D02*
X0326250D01*
Y0426250D01*
X0304750Y0387750D02*
X0310250D01*
X0304750Y0376250D02*
Y0387750D01*
Y0376250D02*
X0310250D01*
Y0387750D01*
X0320750Y0414750D02*
X0326250D01*
X0320750Y0403250D02*
Y0414750D01*
Y0403250D02*
X0326250D01*
Y0414750D01*
X0320750Y0401750D02*
X0326250D01*
X0320750Y0390250D02*
Y0401750D01*
Y0390250D02*
X0326250D01*
Y0401750D01*
X0293250Y0383750D02*
Y0389250D01*
Y0383750D02*
X0304750D01*
Y0389250D01*
X0293250D02*
X0304750D01*
D34*
X0289833Y0381916D02*
X0289249Y0382499D01*
X0288083D01*
X0287500Y0381916D01*
Y0379583D01*
X0288083Y0379000D01*
X0289249D01*
X0289833Y0379583D01*
X0290999Y0379000D02*
X0292165D01*
X0291582D01*
Y0382499D01*
X0290999Y0381916D01*
X0288999Y0387999D02*
X0288499Y0388499D01*
X0287500D01*
X0287000Y0387999D01*
Y0386000D01*
X0287500Y0385500D01*
X0288499D01*
X0288999Y0386000D01*
X0291998Y0385500D02*
X0289999D01*
X0291998Y0387499D01*
Y0387999D01*
X0291498Y0388499D01*
X0290499D01*
X0289999Y0387999D01*
X0323333Y0382916D02*
X0322749Y0383499D01*
X0321583D01*
X0321000Y0382916D01*
Y0380583D01*
X0321583Y0380000D01*
X0322749D01*
X0323333Y0380583D01*
X0326831Y0383499D02*
X0325665Y0382916D01*
X0324499Y0381749D01*
Y0380583D01*
X0325082Y0380000D01*
X0326248D01*
X0326831Y0380583D01*
Y0381166D01*
X0326248Y0381749D01*
X0324499D01*
X0323333Y0387916D02*
X0322749Y0388499D01*
X0321583D01*
X0321000Y0387916D01*
Y0385583D01*
X0321583Y0385000D01*
X0322749D01*
X0323333Y0385583D01*
X0324499Y0388499D02*
X0326831D01*
Y0387916D01*
X0324499Y0385583D01*
Y0385000D01*
X0313833Y0385916D02*
X0313249Y0386499D01*
X0312083D01*
X0311500Y0385916D01*
Y0383583D01*
X0312083Y0383000D01*
X0313249D01*
X0313833Y0383583D01*
X0314999Y0385916D02*
X0315582Y0386499D01*
X0316748D01*
X0317331Y0385916D01*
Y0385333D01*
X0316748Y0384749D01*
X0317331Y0384166D01*
Y0383583D01*
X0316748Y0383000D01*
X0315582D01*
X0314999Y0383583D01*
Y0384166D01*
X0315582Y0384749D01*
X0314999Y0385333D01*
Y0385916D01*
X0315582Y0384749D02*
X0316748D01*
X0363500Y0425499D02*
Y0422000D01*
X0365249D01*
X0365833Y0422583D01*
Y0424916D01*
X0365249Y0425499D01*
X0363500D01*
X0369331Y0422000D02*
X0366999D01*
X0369331Y0424333D01*
Y0424916D01*
X0368748Y0425499D01*
X0367582D01*
X0366999Y0424916D01*
X0285000Y0435000D02*
Y0438499D01*
X0286749D01*
X0287333Y0437916D01*
Y0436749D01*
X0286749Y0436166D01*
X0285000D01*
X0288499Y0435000D02*
X0289665D01*
X0289082D01*
Y0438499D01*
X0288499Y0437916D01*
X0375900Y0427700D02*
Y0431199D01*
X0377649D01*
X0378233Y0430616D01*
Y0429449D01*
X0377649Y0428866D01*
X0375900D01*
X0381731Y0427700D02*
X0379399D01*
X0381731Y0430033D01*
Y0430616D01*
X0381148Y0431199D01*
X0379982D01*
X0379399Y0430616D01*
X0330333Y0400083D02*
Y0402416D01*
X0329749Y0402999D01*
X0328583D01*
X0328000Y0402416D01*
Y0400083D01*
X0328583Y0399500D01*
X0329749D01*
X0329166Y0400666D02*
X0330333Y0399500D01*
X0329749D02*
X0330333Y0400083D01*
X0331499Y0399500D02*
X0332665D01*
X0332082D01*
Y0402999D01*
X0331499Y0402416D01*
X0350833Y0415083D02*
Y0417416D01*
X0350249Y0417999D01*
X0349083D01*
X0348500Y0417416D01*
Y0415083D01*
X0349083Y0414500D01*
X0350249D01*
X0349666Y0415666D02*
X0350833Y0414500D01*
X0350249D02*
X0350833Y0415083D01*
X0354331Y0414500D02*
X0351999D01*
X0354331Y0416833D01*
Y0417416D01*
X0353748Y0417999D01*
X0352582D01*
X0351999Y0417416D01*
X0365500Y0394500D02*
Y0397999D01*
X0367249D01*
X0367833Y0397416D01*
Y0396249D01*
X0367249Y0395666D01*
X0365500D01*
X0366666D02*
X0367833Y0394500D01*
X0371331D02*
X0368999D01*
X0371331Y0396833D01*
Y0397416D01*
X0370748Y0397999D01*
X0369582D01*
X0368999Y0397416D01*
X0334500Y0399000D02*
Y0402499D01*
X0336249D01*
X0336833Y0401916D01*
Y0400749D01*
X0336249Y0400166D01*
X0334500D01*
X0335666D02*
X0336833Y0399000D01*
X0340331Y0402499D02*
X0337999D01*
Y0400749D01*
X0339165Y0401333D01*
X0339748D01*
X0340331Y0400749D01*
Y0399583D01*
X0339748Y0399000D01*
X0338582D01*
X0337999Y0399583D01*
X0303000Y0400999D02*
Y0398083D01*
X0303583Y0397500D01*
X0304749D01*
X0305333Y0398083D01*
Y0400999D01*
X0308831Y0397500D02*
X0306499D01*
X0308831Y0399833D01*
Y0400416D01*
X0308248Y0400999D01*
X0307082D01*
X0306499Y0400416D01*
D35*
X0323166Y0429583D02*
X0322750Y0429999D01*
X0321917D01*
X0321500Y0429583D01*
Y0427916D01*
X0321917Y0427500D01*
X0322750D01*
X0323166Y0427916D01*
X0323999D02*
X0324416Y0427500D01*
X0325249D01*
X0325665Y0427916D01*
Y0429583D01*
X0325249Y0429999D01*
X0324416D01*
X0323999Y0429583D01*
Y0429166D01*
X0324416Y0428750D01*
X0325665D01*
X0332500Y0428500D02*
Y0431499D01*
X0333999D01*
X0334499Y0430999D01*
Y0429999D01*
X0333999Y0429500D01*
X0332500D01*
X0333500D02*
X0334499Y0428500D01*
X0335499D02*
X0336499D01*
X0335999D01*
Y0431499D01*
X0335499Y0430999D01*
X0356500Y0410000D02*
Y0412499D01*
X0357750D01*
X0358166Y0412083D01*
Y0411250D01*
X0357750Y0410833D01*
X0356500D01*
X0357333D02*
X0358166Y0410000D01*
X0358999Y0412083D02*
X0359416Y0412499D01*
X0360249D01*
X0360665Y0412083D01*
Y0411666D01*
X0360249Y0411250D01*
X0359832D01*
X0360249D01*
X0360665Y0410833D01*
Y0410417D01*
X0360249Y0410000D01*
X0359416D01*
X0358999Y0410417D01*
X0336500Y0419000D02*
Y0421999D01*
X0338000D01*
X0338499Y0421499D01*
Y0420500D01*
X0338000Y0420000D01*
X0336500D01*
X0337500D02*
X0338499Y0419000D01*
X0340999D02*
Y0421999D01*
X0339499Y0420500D01*
X0341498D01*
X0279333Y0380999D02*
X0278166D01*
X0278749D01*
Y0378083D01*
X0278166Y0377500D01*
X0277583D01*
X0277000Y0378083D01*
X0280499Y0377500D02*
X0281665D01*
X0281082D01*
Y0380999D01*
X0280499Y0380416D01*
D36*
X0325653Y0413278D02*
X0325634Y0413259D01*
X0325653Y0413240D01*
X0325671Y0413259D01*
X0325653Y0413278D01*
X0346653Y0411278D02*
X0346634Y0411259D01*
X0346653Y0411240D01*
X0346671Y0411259D01*
X0346653Y0411278D01*
M02*
