G04 Layer_Physical_Order=2*
G04 Layer_Color=16711680*
%FSAX25Y25*%
%MOIN*%
G70*
G01*
G75*
%ADD10R,0.15000X0.06100*%
%ADD17R,0.03150X0.03150*%
%ADD18C,0.02000*%
%ADD19C,0.02500*%
%ADD22R,0.07000X0.06000*%
%ADD23R,0.05906X0.05906*%
%ADD24C,0.05906*%
%ADD25C,0.15000*%
%ADD26C,0.02500*%
%ADD27R,0.02323X0.01772*%
%ADD28R,0.06890X0.04331*%
%ADD29R,0.06890X0.04331*%
%ADD30R,0.06890X0.13780*%
G36*
X0380930Y0439465D02*
Y0439465D01*
X0380930Y0439465D01*
X0382355Y0439325D01*
X0384138Y0438783D01*
X0385782Y0437905D01*
X0387223Y0436723D01*
X0388405Y0435282D01*
X0389283Y0433638D01*
X0389825Y0431855D01*
X0390007Y0430000D01*
X0389965Y0429570D01*
X0389965D01*
X0389981Y0429550D01*
X0389971Y0429500D01*
X0389971Y0429500D01*
X0389971D01*
X0389971Y0429500D01*
X0389971D01*
Y0386075D01*
X0389965Y0386070D01*
X0389965D01*
X0389965Y0386070D01*
X0389825Y0384645D01*
X0389283Y0382862D01*
X0388405Y0381218D01*
X0387223Y0379777D01*
X0385782Y0378595D01*
X0384138Y0377717D01*
X0382355Y0377175D01*
X0380500Y0376993D01*
X0380070Y0377035D01*
Y0377035D01*
X0380050Y0377020D01*
X0380000Y0377029D01*
X0365961D01*
X0365683Y0377445D01*
X0366029Y0378279D01*
X0366588Y0380610D01*
X0366777Y0383000D01*
X0366588Y0385390D01*
X0366029Y0387721D01*
X0365112Y0389935D01*
X0363859Y0391979D01*
X0362302Y0393802D01*
X0360479Y0395359D01*
X0358435Y0396612D01*
X0356221Y0397529D01*
X0353890Y0398089D01*
X0351500Y0398277D01*
X0349110Y0398089D01*
X0346779Y0397529D01*
X0344565Y0396612D01*
X0343011Y0395660D01*
X0342575Y0395904D01*
Y0399122D01*
X0337425D01*
Y0395588D01*
X0336109Y0394272D01*
X0335612Y0393528D01*
X0335570Y0393314D01*
X0334878Y0392622D01*
X0331425D01*
Y0392341D01*
X0330342D01*
Y0393573D01*
X0321452D01*
Y0392702D01*
X0317908D01*
X0317030Y0392527D01*
X0316286Y0392030D01*
X0310550Y0386294D01*
X0293500D01*
X0292622Y0386120D01*
X0291878Y0385622D01*
X0291381Y0384878D01*
X0291206Y0384000D01*
X0291381Y0383122D01*
X0291878Y0382378D01*
X0292622Y0381880D01*
X0293500Y0381706D01*
X0311500D01*
X0312378Y0381880D01*
X0313122Y0382378D01*
X0318858Y0388114D01*
X0321452D01*
Y0387243D01*
X0328757D01*
X0328881Y0386622D01*
X0329378Y0385878D01*
X0330122Y0385381D01*
X0331000Y0385206D01*
X0331878Y0385381D01*
X0332622Y0385878D01*
X0333120Y0386622D01*
X0333289Y0387472D01*
X0336508D01*
X0336817Y0387080D01*
X0336411Y0385390D01*
X0336223Y0383000D01*
X0336411Y0380610D01*
X0336971Y0378279D01*
X0337317Y0377445D01*
X0337039Y0377029D01*
X0271029D01*
Y0385000D01*
X0288000D01*
Y0427500D01*
X0288500Y0428000D01*
X0271029D01*
Y0439471D01*
X0303752D01*
X0303913Y0438997D01*
X0303681Y0438819D01*
X0303047Y0437993D01*
X0302649Y0437032D01*
X0302513Y0436000D01*
X0302649Y0434968D01*
X0303047Y0434007D01*
X0303681Y0433181D01*
X0304461Y0432582D01*
Y0431500D01*
X0304461Y0431500D01*
X0304461D01*
X0304616Y0430720D01*
X0305058Y0430058D01*
X0307058Y0428058D01*
X0307720Y0427616D01*
X0308500Y0427461D01*
X0327155D01*
X0340058Y0414558D01*
X0340720Y0414116D01*
X0341500Y0413961D01*
X0355500D01*
X0355500Y0413961D01*
X0356280Y0414116D01*
X0356942Y0414558D01*
X0357384Y0415220D01*
X0357539Y0416000D01*
X0357384Y0416780D01*
X0356942Y0417442D01*
X0356442Y0417942D01*
X0355780Y0418384D01*
X0355881Y0418890D01*
X0356221Y0418971D01*
X0358435Y0419888D01*
X0360479Y0421141D01*
X0362302Y0422698D01*
X0363859Y0424521D01*
X0365112Y0426565D01*
X0366029Y0428779D01*
X0366588Y0431110D01*
X0366777Y0433500D01*
X0366588Y0435890D01*
X0366029Y0438221D01*
X0365683Y0439055D01*
X0365961Y0439471D01*
X0380925D01*
X0380930Y0439465D01*
D02*
G37*
%LPC*%
G36*
X0385000Y0413500D02*
X0376000D01*
Y0405500D01*
X0385000D01*
Y0413500D01*
D02*
G37*
G36*
X0330342Y0411683D02*
X0321452D01*
Y0405353D01*
X0330342D01*
Y0406659D01*
X0331425D01*
Y0406378D01*
X0336575D01*
Y0406706D01*
X0338693D01*
X0339571Y0406881D01*
X0339920Y0407114D01*
X0340854D01*
Y0408333D01*
X0340987Y0409000D01*
X0340854Y0409667D01*
Y0410886D01*
X0339920D01*
X0339571Y0411119D01*
X0338693Y0411294D01*
X0336575D01*
Y0411528D01*
X0331425D01*
Y0411247D01*
X0330342D01*
Y0411683D01*
D02*
G37*
G36*
X0385000Y0423500D02*
X0376000D01*
Y0421794D01*
X0375500D01*
X0374622Y0421619D01*
X0373878Y0421122D01*
X0364050Y0411294D01*
X0347000D01*
X0346122Y0411119D01*
X0345772Y0410886D01*
X0344839D01*
Y0409667D01*
X0344706Y0409000D01*
X0344839Y0408333D01*
Y0407114D01*
X0345772D01*
X0346122Y0406881D01*
X0347000Y0406706D01*
X0365000D01*
X0365878Y0406881D01*
X0366622Y0407378D01*
X0375538Y0416294D01*
X0376000Y0416102D01*
Y0415500D01*
X0385000D01*
Y0423500D01*
D02*
G37*
%LPD*%
D10*
X0278500Y0390400D02*
D03*
Y0423100D02*
D03*
Y0401300D02*
D03*
Y0412200D02*
D03*
D17*
X0340000Y0402453D02*
D03*
Y0396547D02*
D03*
X0334000Y0395953D02*
D03*
Y0390047D02*
D03*
Y0403047D02*
D03*
Y0408953D02*
D03*
D18*
X0341500Y0416000D02*
X0355500D01*
X0350000Y0416500D02*
X0355000D01*
X0355500Y0416000D01*
X0331000Y0387500D02*
Y0390047D01*
X0306500Y0431500D02*
X0308500Y0429500D01*
X0306500Y0431500D02*
Y0436000D01*
X0308500Y0429500D02*
X0328000D01*
X0341500Y0416000D01*
D19*
X0340047Y0402500D02*
X0367500D01*
X0279000Y0435000D02*
X0295500D01*
X0305500Y0399463D02*
X0316000D01*
X0375500Y0419500D02*
X0380500D01*
X0365000Y0409000D02*
X0375500Y0419500D01*
X0347000Y0409000D02*
X0365000D01*
X0370500Y0399500D02*
X0380500D01*
X0367500Y0402500D02*
X0370500Y0399500D01*
X0340000Y0402453D02*
X0340047Y0402500D01*
X0334594Y0402453D02*
X0340000D01*
X0334000Y0403047D02*
X0334594Y0402453D01*
X0334047Y0409000D02*
X0338693D01*
X0334000Y0408953D02*
X0334047Y0409000D01*
X0326331Y0408953D02*
X0334000D01*
X0325897Y0408518D02*
X0326331Y0408953D01*
X0325897Y0390408D02*
X0326257Y0390047D01*
X0334000D02*
X0335547D01*
X0337732Y0392231D01*
Y0392650D01*
X0340000Y0394918D01*
Y0396547D01*
X0317908Y0390408D02*
X0325897D01*
X0311500Y0384000D02*
X0317908Y0390408D01*
X0326257Y0390047D02*
X0331000D01*
X0334000D01*
X0325934Y0399500D02*
X0334000D01*
X0325897Y0399463D02*
X0325934Y0399500D01*
X0334000Y0395953D02*
Y0399500D01*
Y0403047D01*
X0293500Y0384000D02*
X0311500D01*
X0299950Y0399500D02*
X0305500D01*
X0299913Y0399463D02*
X0299950Y0399500D01*
X0295500Y0435000D02*
X0296500Y0436000D01*
Y0413000D02*
X0299913Y0409587D01*
Y0399463D02*
Y0409587D01*
X0316000Y0419000D02*
X0323000Y0426000D01*
X0316000Y0399463D02*
Y0419000D01*
Y0399463D02*
X0325897D01*
X0296500Y0413000D02*
Y0436000D01*
X0279000Y0433500D02*
Y0435000D01*
D22*
X0380500Y0419500D02*
D03*
Y0409500D02*
D03*
Y0399500D02*
D03*
D23*
X0326500Y0436000D02*
D03*
D24*
X0316500D02*
D03*
X0306500D02*
D03*
X0296500D02*
D03*
D25*
X0380500Y0387000D02*
D03*
Y0431500D02*
D03*
D26*
X0350000Y0416500D02*
D03*
X0355000Y0404000D02*
D03*
X0293500Y0384000D02*
D03*
X0305500Y0399500D02*
D03*
X0331000Y0387500D02*
D03*
X0323000Y0426000D02*
D03*
X0279000Y0433500D02*
D03*
X0284000D02*
D03*
X0289000D02*
D03*
X0279000Y0437500D02*
D03*
X0284000D02*
D03*
X0289000D02*
D03*
D27*
X0338693Y0409000D02*
D03*
X0347000D02*
D03*
D28*
X0325897Y0408518D02*
D03*
D29*
Y0399463D02*
D03*
Y0390408D02*
D03*
D30*
X0299913Y0399463D02*
D03*
M02*
