G04 Layer_Color=32896*
%FSAX25Y25*%
%MOIN*%
G70*
G01*
G75*
%ADD31C,0.00984*%
%ADD32C,0.00787*%
%ADD33C,0.00500*%
%ADD34C,0.00800*%
D31*
X0326692Y0412192D02*
G03*
X0326692Y0412192I-0000492J0000000D01*
G01*
D32*
X0305621Y0412652D02*
X0320188D01*
X0305621Y0386274D02*
Y0412652D01*
Y0386274D02*
X0320188D01*
Y0412652D01*
D33*
X0339500Y0411500D02*
X0346500D01*
X0339500Y0410800D02*
Y0411500D01*
X0346500Y0410800D02*
Y0411500D01*
X0339500Y0406500D02*
Y0407200D01*
X0346500Y0406500D02*
Y0407200D01*
X0339500Y0406500D02*
X0346500D01*
X0344950Y0406600D02*
Y0411400D01*
X0337250Y0393750D02*
X0342750D01*
X0337250D02*
Y0405250D01*
X0342750D01*
Y0393750D02*
Y0405250D01*
X0331250Y0387250D02*
X0336750D01*
X0331250D02*
Y0398750D01*
X0336750D01*
Y0387250D02*
Y0398750D01*
X0331250Y0411750D02*
X0336750D01*
Y0400250D02*
Y0411750D01*
X0331250Y0400250D02*
X0336750D01*
X0331250D02*
Y0411750D01*
D34*
X0334167Y0416416D02*
X0334751Y0416999D01*
X0335917D01*
X0336500Y0416416D01*
Y0414083D01*
X0335917Y0413500D01*
X0334751D01*
X0334167Y0414083D01*
X0333001Y0416416D02*
X0332418Y0416999D01*
X0331252D01*
X0330669Y0416416D01*
Y0415833D01*
X0331252Y0415249D01*
X0331835D01*
X0331252D01*
X0330669Y0414666D01*
Y0414083D01*
X0331252Y0413500D01*
X0332418D01*
X0333001Y0414083D01*
X0333667Y0384916D02*
X0334251Y0385499D01*
X0335417D01*
X0336000Y0384916D01*
Y0382583D01*
X0335417Y0382000D01*
X0334251D01*
X0333667Y0382583D01*
X0330752Y0382000D02*
Y0385499D01*
X0332501Y0383749D01*
X0330169D01*
X0347667Y0403416D02*
X0348251Y0403999D01*
X0349417D01*
X0350000Y0403416D01*
Y0401083D01*
X0349417Y0400500D01*
X0348251D01*
X0347667Y0401083D01*
X0344169Y0403999D02*
X0346501D01*
Y0402249D01*
X0345335Y0402833D01*
X0344752D01*
X0344169Y0402249D01*
Y0401083D01*
X0344752Y0400500D01*
X0345918D01*
X0346501Y0401083D01*
X0302500Y0413499D02*
Y0410583D01*
X0301917Y0410000D01*
X0300751D01*
X0300167Y0410583D01*
Y0413499D01*
X0299001Y0410000D02*
X0297835D01*
X0298418D01*
Y0413499D01*
X0299001Y0412916D01*
X0347000Y0416999D02*
Y0413500D01*
X0345251D01*
X0344667Y0414083D01*
Y0416416D01*
X0345251Y0416999D01*
X0347000D01*
X0343501Y0413500D02*
X0342335D01*
X0342918D01*
Y0416999D01*
X0343501Y0416416D01*
M02*
