G04 Layer_Color=8421504*
%FSAX25Y25*%
%MOIN*%
G70*
G01*
G75*
%ADD10R,0.15000X0.06100*%
%ADD11R,0.05906X0.02362*%
%ADD12R,0.03543X0.02362*%
G04:AMPARAMS|DCode=13|XSize=23.62mil|YSize=39.37mil|CornerRadius=2.95mil|HoleSize=0mil|Usage=FLASHONLY|Rotation=270.000|XOffset=0mil|YOffset=0mil|HoleType=Round|Shape=RoundedRectangle|*
%AMROUNDEDRECTD13*
21,1,0.02362,0.03347,0,0,270.0*
21,1,0.01772,0.03937,0,0,270.0*
1,1,0.00591,-0.01673,-0.00886*
1,1,0.00591,-0.01673,0.00886*
1,1,0.00591,0.01673,0.00886*
1,1,0.00591,0.01673,-0.00886*
%
%ADD13ROUNDEDRECTD13*%
%ADD14R,0.03937X0.03150*%
%ADD15R,0.03150X0.03150*%
%ADD16R,0.02362X0.03543*%
%ADD17R,0.03150X0.03150*%
D10*
X0278500Y0395900D02*
D03*
Y0385000D02*
D03*
Y0428600D02*
D03*
Y0406800D02*
D03*
Y0417700D02*
D03*
D11*
X0294870Y0392045D02*
D03*
X0316130D02*
D03*
X0294870Y0397045D02*
D03*
X0316130Y0427072D02*
D03*
X0316130Y0422045D02*
D03*
Y0397045D02*
D03*
Y0402045D02*
D03*
Y0407045D02*
D03*
Y0412045D02*
D03*
Y0417045D02*
D03*
X0294870Y0402045D02*
D03*
Y0407045D02*
D03*
Y0412045D02*
D03*
Y0417045D02*
D03*
X0294870Y0422100D02*
D03*
Y0427072D02*
D03*
D12*
X0330500Y0419047D02*
D03*
Y0424953D02*
D03*
X0344500Y0408453D02*
D03*
Y0402547D02*
D03*
D13*
X0338528Y0409500D02*
D03*
X0329472Y0405760D02*
D03*
Y0413240D02*
D03*
X0359528Y0407500D02*
D03*
X0350472Y0403760D02*
D03*
Y0411240D02*
D03*
D14*
X0371783Y0416500D02*
D03*
X0357217D02*
D03*
D15*
X0301953Y0381000D02*
D03*
X0296047D02*
D03*
X0301953Y0386500D02*
D03*
X0296047D02*
D03*
D16*
X0338547Y0414500D02*
D03*
X0344453D02*
D03*
X0364547Y0410000D02*
D03*
X0370453D02*
D03*
X0370453Y0402000D02*
D03*
X0364547D02*
D03*
D17*
X0323500Y0417547D02*
D03*
Y0423453D02*
D03*
X0307500Y0379047D02*
D03*
Y0384953D02*
D03*
X0323500Y0406047D02*
D03*
Y0411953D02*
D03*
Y0393047D02*
D03*
Y0398953D02*
D03*
M02*
