G04 Layer_Color=16711935*
%FSAX25Y25*%
%MOIN*%
G70*
G01*
G75*
%ADD20C,0.01000*%
%ADD53C,0.01500*%
%ADD54C,0.00100*%
D20*
X0391500Y0429500D02*
G03*
X0381000Y0441000I-0011000J0000500D01*
G01*
X0380000Y0375500D02*
G03*
X0391500Y0386000I0000500J0011000D01*
G01*
X0340000Y0441000D02*
G03*
X0363000Y0441000I0011500J-0007500D01*
G01*
Y0375500D02*
G03*
X0340000Y0375500I-0011500J0007500D01*
G01*
X0269500Y0375500D02*
Y0441000D01*
X0391500Y0386000D02*
Y0429500D01*
X0363000Y0441000D02*
X0381000D01*
X0269500D02*
X0340000D01*
X0363000Y0375500D02*
X0380000D01*
X0269500D02*
X0340000D01*
X0763162Y0545659D02*
Y0539661D01*
X0766161D01*
X0767161Y0540661D01*
Y0541661D01*
X0766161Y0542660D01*
X0763162D01*
X0766161D01*
X0767161Y0543660D01*
Y0544660D01*
X0766161Y0545659D01*
X0763162D01*
X0770160Y0539661D02*
X0772159D01*
X0773159Y0540661D01*
Y0542660D01*
X0772159Y0543660D01*
X0770160D01*
X0769160Y0542660D01*
Y0540661D01*
X0770160Y0539661D01*
X0776158Y0543660D02*
X0778157D01*
X0779157Y0542660D01*
Y0539661D01*
X0776158D01*
X0775158Y0540661D01*
X0776158Y0541661D01*
X0779157D01*
X0781156Y0543660D02*
Y0539661D01*
Y0541661D01*
X0782156Y0542660D01*
X0783156Y0543660D01*
X0784155D01*
X0791153Y0545659D02*
Y0539661D01*
X0788154D01*
X0787154Y0540661D01*
Y0542660D01*
X0788154Y0543660D01*
X0791153D01*
X0799150Y0545659D02*
Y0539661D01*
X0803149D01*
X0806148Y0543660D02*
X0808148D01*
X0809147Y0542660D01*
Y0539661D01*
X0806148D01*
X0805148Y0540661D01*
X0806148Y0541661D01*
X0809147D01*
X0811147Y0543660D02*
Y0540661D01*
X0812146Y0539661D01*
X0815145D01*
Y0538661D01*
X0814145Y0537662D01*
X0813146D01*
X0815145Y0539661D02*
Y0543660D01*
X0820144Y0539661D02*
X0818144D01*
X0817145Y0540661D01*
Y0542660D01*
X0818144Y0543660D01*
X0820144D01*
X0821143Y0542660D01*
Y0541661D01*
X0817145D01*
X0823143Y0543660D02*
Y0539661D01*
Y0541661D01*
X0824142Y0542660D01*
X0825142Y0543660D01*
X0826142D01*
X0839137Y0544660D02*
X0838138Y0545659D01*
X0836138D01*
X0835139Y0544660D01*
Y0543660D01*
X0836138Y0542660D01*
X0838138D01*
X0839137Y0541661D01*
Y0540661D01*
X0838138Y0539661D01*
X0836138D01*
X0835139Y0540661D01*
X0842136Y0544660D02*
Y0543660D01*
X0841137D01*
X0843136D01*
X0842136D01*
Y0540661D01*
X0843136Y0539661D01*
X0847135Y0543660D02*
X0849134D01*
X0850134Y0542660D01*
Y0539661D01*
X0847135D01*
X0846135Y0540661D01*
X0847135Y0541661D01*
X0850134D01*
X0856132Y0543660D02*
X0853133D01*
X0852133Y0542660D01*
Y0540661D01*
X0853133Y0539661D01*
X0856132D01*
X0858131D02*
Y0545659D01*
Y0541661D02*
X0861130Y0543660D01*
X0858131Y0541661D02*
X0861130Y0539661D01*
X0706176Y0520660D02*
X0707176Y0521659D01*
X0709175D01*
X0710175Y0520660D01*
Y0519660D01*
X0709175Y0518660D01*
X0708175D01*
X0709175D01*
X0710175Y0517661D01*
Y0516661D01*
X0709175Y0515661D01*
X0707176D01*
X0706176Y0516661D01*
X0712174Y0515661D02*
Y0516661D01*
X0713174D01*
Y0515661D01*
X0712174D01*
X0721171Y0521659D02*
X0717172D01*
Y0518660D01*
X0719172Y0519660D01*
X0720171D01*
X0721171Y0518660D01*
Y0516661D01*
X0720171Y0515661D01*
X0718172D01*
X0717172Y0516661D01*
X0709175Y0491661D02*
Y0497659D01*
X0706176Y0494660D01*
X0710175D01*
X0712174Y0491661D02*
Y0492661D01*
X0713174D01*
Y0491661D01*
X0712174D01*
X0717172Y0496660D02*
X0718172Y0497659D01*
X0720171D01*
X0721171Y0496660D01*
Y0495660D01*
X0720171Y0494660D01*
X0721171Y0493661D01*
Y0492661D01*
X0720171Y0491661D01*
X0718172D01*
X0717172Y0492661D01*
Y0493661D01*
X0718172Y0494660D01*
X0717172Y0495660D01*
Y0496660D01*
X0718172Y0494660D02*
X0720171D01*
X0706176Y0472660D02*
X0707176Y0473659D01*
X0709175D01*
X0710175Y0472660D01*
Y0471660D01*
X0709175Y0470660D01*
X0708175D01*
X0709175D01*
X0710175Y0469661D01*
Y0468661D01*
X0709175Y0467661D01*
X0707176D01*
X0706176Y0468661D01*
X0712174Y0467661D02*
Y0468661D01*
X0713174D01*
Y0467661D01*
X0712174D01*
X0721171Y0473659D02*
X0717172D01*
Y0470660D01*
X0719172Y0471660D01*
X0720171D01*
X0721171Y0470660D01*
Y0468661D01*
X0720171Y0467661D01*
X0718172D01*
X0717172Y0468661D01*
X0710175Y0544660D02*
X0709175Y0545659D01*
X0707176D01*
X0706176Y0544660D01*
Y0540661D01*
X0707176Y0539661D01*
X0709175D01*
X0710175Y0540661D01*
X0713174Y0539661D02*
X0715173D01*
X0716173Y0540661D01*
Y0542660D01*
X0715173Y0543660D01*
X0713174D01*
X0712174Y0542660D01*
Y0540661D01*
X0713174Y0539661D01*
X0718172D02*
Y0543660D01*
X0721171D01*
X0722171Y0542660D01*
Y0539661D01*
X0724170D02*
X0727169D01*
X0728169Y0540661D01*
X0727169Y0541661D01*
X0725170D01*
X0724170Y0542660D01*
X0725170Y0543660D01*
X0728169D01*
X0731168Y0544660D02*
Y0543660D01*
X0730168D01*
X0732167D01*
X0731168D01*
Y0540661D01*
X0732167Y0539661D01*
X0736166Y0543660D02*
X0738166D01*
X0739165Y0542660D01*
Y0539661D01*
X0736166D01*
X0735167Y0540661D01*
X0736166Y0541661D01*
X0739165D01*
X0741165Y0539661D02*
Y0543660D01*
X0744164D01*
X0745163Y0542660D01*
Y0539661D01*
X0748162Y0544660D02*
Y0543660D01*
X0747163D01*
X0749162D01*
X0748162D01*
Y0540661D01*
X0749162Y0539661D01*
X0641192Y0520660D02*
X0642192Y0521659D01*
X0644192D01*
X0645191Y0520660D01*
Y0516661D01*
X0644192Y0515661D01*
X0642192D01*
X0641192Y0516661D01*
Y0520660D01*
X0647191Y0515661D02*
Y0516661D01*
X0648190D01*
Y0515661D01*
X0647191D01*
X0655188D02*
Y0521659D01*
X0652189Y0518660D01*
X0656188D01*
X0658187Y0520660D02*
X0659187Y0521659D01*
X0661186D01*
X0662186Y0520660D01*
Y0516661D01*
X0661186Y0515661D01*
X0659187D01*
X0658187Y0516661D01*
Y0520660D01*
X0664185Y0515661D02*
Y0519660D01*
X0665185D01*
X0666184Y0518660D01*
Y0515661D01*
Y0518660D01*
X0667184Y0519660D01*
X0668184Y0518660D01*
Y0515661D01*
X0670183D02*
X0672182D01*
X0671183D01*
Y0519660D01*
X0670183D01*
X0675181Y0515661D02*
X0677181D01*
X0676181D01*
Y0521659D01*
X0675181D01*
X0641192Y0503661D02*
X0643192D01*
X0642192D01*
Y0509659D01*
X0641192Y0508660D01*
X0646191Y0503661D02*
Y0504661D01*
X0647191D01*
Y0503661D01*
X0646191D01*
X0654188D02*
Y0509659D01*
X0651189Y0506660D01*
X0655188D01*
X0657187Y0508660D02*
X0658187Y0509659D01*
X0660186D01*
X0661186Y0508660D01*
Y0504661D01*
X0660186Y0503661D01*
X0658187D01*
X0657187Y0504661D01*
Y0508660D01*
X0663185Y0503661D02*
Y0507660D01*
X0664185D01*
X0665185Y0506660D01*
Y0503661D01*
Y0506660D01*
X0666184Y0507660D01*
X0667184Y0506660D01*
Y0503661D01*
X0669183D02*
X0671183D01*
X0670183D01*
Y0507660D01*
X0669183D01*
X0674182Y0503661D02*
X0676181D01*
X0675181D01*
Y0509659D01*
X0674182D01*
X0645191Y0497659D02*
X0643192Y0496660D01*
X0641192Y0494660D01*
Y0492661D01*
X0642192Y0491661D01*
X0644192D01*
X0645191Y0492661D01*
Y0493661D01*
X0644192Y0494660D01*
X0641192D01*
X0647191Y0496660D02*
X0648190Y0497659D01*
X0650189D01*
X0651189Y0496660D01*
Y0495660D01*
X0650189Y0494660D01*
X0649190D01*
X0650189D01*
X0651189Y0493661D01*
Y0492661D01*
X0650189Y0491661D01*
X0648190D01*
X0647191Y0492661D01*
X0653189Y0491661D02*
Y0492661D01*
X0654188D01*
Y0491661D01*
X0653189D01*
X0658187Y0496660D02*
X0659187Y0497659D01*
X0661186D01*
X0662186Y0496660D01*
Y0492661D01*
X0661186Y0491661D01*
X0659187D01*
X0658187Y0492661D01*
Y0496660D01*
X0664185D02*
X0665185Y0497659D01*
X0667184D01*
X0668184Y0496660D01*
Y0492661D01*
X0667184Y0491661D01*
X0665185D01*
X0664185Y0492661D01*
Y0496660D01*
X0670183Y0491661D02*
Y0495660D01*
X0671183D01*
X0672182Y0494660D01*
Y0491661D01*
Y0494660D01*
X0673182Y0495660D01*
X0674182Y0494660D01*
Y0491661D01*
X0676181D02*
X0678181D01*
X0677181D01*
Y0495660D01*
X0676181D01*
X0681180Y0491661D02*
X0683179D01*
X0682179D01*
Y0497659D01*
X0681180D01*
X0641192Y0479661D02*
X0643192D01*
X0642192D01*
Y0485659D01*
X0641192Y0484660D01*
X0646191Y0479661D02*
Y0480661D01*
X0647191D01*
Y0479661D01*
X0646191D01*
X0654188D02*
Y0485659D01*
X0651189Y0482660D01*
X0655188D01*
X0657187Y0484660D02*
X0658187Y0485659D01*
X0660186D01*
X0661186Y0484660D01*
Y0480661D01*
X0660186Y0479661D01*
X0658187D01*
X0657187Y0480661D01*
Y0484660D01*
X0663185Y0479661D02*
Y0483660D01*
X0664185D01*
X0665185Y0482660D01*
Y0479661D01*
Y0482660D01*
X0666184Y0483660D01*
X0667184Y0482660D01*
Y0479661D01*
X0669183D02*
X0671183D01*
X0670183D01*
Y0483660D01*
X0669183D01*
X0674182Y0479661D02*
X0676181D01*
X0675181D01*
Y0485659D01*
X0674182D01*
X0641192Y0472660D02*
X0642192Y0473659D01*
X0644192D01*
X0645191Y0472660D01*
Y0468661D01*
X0644192Y0467661D01*
X0642192D01*
X0641192Y0468661D01*
Y0472660D01*
X0647191Y0467661D02*
Y0468661D01*
X0648190D01*
Y0467661D01*
X0647191D01*
X0655188D02*
Y0473659D01*
X0652189Y0470660D01*
X0656188D01*
X0658187Y0472660D02*
X0659187Y0473659D01*
X0661186D01*
X0662186Y0472660D01*
Y0468661D01*
X0661186Y0467661D01*
X0659187D01*
X0658187Y0468661D01*
Y0472660D01*
X0664185Y0467661D02*
Y0471660D01*
X0665185D01*
X0666184Y0470660D01*
Y0467661D01*
Y0470660D01*
X0667184Y0471660D01*
X0668184Y0470660D01*
Y0467661D01*
X0670183D02*
X0672182D01*
X0671183D01*
Y0471660D01*
X0670183D01*
X0675181Y0467661D02*
X0677181D01*
X0676181D01*
Y0473659D01*
X0675181D01*
X0641192Y0545659D02*
X0645191D01*
X0643192D01*
Y0539661D01*
X0647191Y0545659D02*
Y0539661D01*
Y0542660D01*
X0648190Y0543660D01*
X0650189D01*
X0651189Y0542660D01*
Y0539661D01*
X0653189D02*
X0655188D01*
X0654188D01*
Y0543660D01*
X0653189D01*
X0662186D02*
X0659187D01*
X0658187Y0542660D01*
Y0540661D01*
X0659187Y0539661D01*
X0662186D01*
X0664185D02*
Y0545659D01*
Y0541661D02*
X0667184Y0543660D01*
X0664185Y0541661D02*
X0667184Y0539661D01*
X0670183D02*
Y0543660D01*
X0673182D01*
X0674182Y0542660D01*
Y0539661D01*
X0679180D02*
X0677181D01*
X0676181Y0540661D01*
Y0542660D01*
X0677181Y0543660D01*
X0679180D01*
X0680180Y0542660D01*
Y0541661D01*
X0676181D01*
X0682179Y0539661D02*
X0685178D01*
X0686178Y0540661D01*
X0685178Y0541661D01*
X0683179D01*
X0682179Y0542660D01*
X0683179Y0543660D01*
X0686178D01*
X0688177Y0539661D02*
X0691176D01*
X0692176Y0540661D01*
X0691176Y0541661D01*
X0689177D01*
X0688177Y0542660D01*
X0689177Y0543660D01*
X0692176D01*
X0559214Y0520660D02*
X0558215Y0521659D01*
X0556215D01*
X0555216Y0520660D01*
Y0519660D01*
X0556215Y0518660D01*
X0558215D01*
X0559214Y0517661D01*
Y0516661D01*
X0558215Y0515661D01*
X0556215D01*
X0555216Y0516661D01*
X0562214Y0515661D02*
X0564213D01*
X0565212Y0516661D01*
Y0518660D01*
X0564213Y0519660D01*
X0562214D01*
X0561214Y0518660D01*
Y0516661D01*
X0562214Y0515661D01*
X0567212D02*
X0569211D01*
X0568212D01*
Y0521659D01*
X0567212D01*
X0576209D02*
Y0515661D01*
X0573210D01*
X0572210Y0516661D01*
Y0518660D01*
X0573210Y0519660D01*
X0576209D01*
X0581207Y0515661D02*
X0579208D01*
X0578208Y0516661D01*
Y0518660D01*
X0579208Y0519660D01*
X0581207D01*
X0582207Y0518660D01*
Y0517661D01*
X0578208D01*
X0584206Y0519660D02*
Y0515661D01*
Y0517661D01*
X0585206Y0518660D01*
X0586206Y0519660D01*
X0587205D01*
X0596203Y0515661D02*
Y0521659D01*
X0599201D01*
X0600201Y0520660D01*
Y0518660D01*
X0599201Y0517661D01*
X0596203D01*
X0598202D02*
X0600201Y0515661D01*
X0605199D02*
X0603200D01*
X0602201Y0516661D01*
Y0518660D01*
X0603200Y0519660D01*
X0605199D01*
X0606199Y0518660D01*
Y0517661D01*
X0602201D01*
X0608199Y0515661D02*
X0611198D01*
X0612197Y0516661D01*
X0611198Y0517661D01*
X0609198D01*
X0608199Y0518660D01*
X0609198Y0519660D01*
X0612197D01*
X0614197Y0515661D02*
X0616196D01*
X0615196D01*
Y0519660D01*
X0614197D01*
X0619195Y0515661D02*
X0622194D01*
X0623194Y0516661D01*
X0622194Y0517661D01*
X0620195D01*
X0619195Y0518660D01*
X0620195Y0519660D01*
X0623194D01*
X0626193Y0520660D02*
Y0519660D01*
X0625193D01*
X0627192D01*
X0626193D01*
Y0516661D01*
X0627192Y0515661D01*
X0559214Y0508660D02*
X0558215Y0509659D01*
X0556215D01*
X0555216Y0508660D01*
Y0504661D01*
X0556215Y0503661D01*
X0558215D01*
X0559214Y0504661D01*
X0562214Y0503661D02*
X0564213D01*
X0565212Y0504661D01*
Y0506660D01*
X0564213Y0507660D01*
X0562214D01*
X0561214Y0506660D01*
Y0504661D01*
X0562214Y0503661D01*
X0567212Y0501662D02*
Y0507660D01*
X0570211D01*
X0571210Y0506660D01*
Y0504661D01*
X0570211Y0503661D01*
X0567212D01*
X0573210Y0501662D02*
Y0507660D01*
X0576209D01*
X0577209Y0506660D01*
Y0504661D01*
X0576209Y0503661D01*
X0573210D01*
X0582207D02*
X0580208D01*
X0579208Y0504661D01*
Y0506660D01*
X0580208Y0507660D01*
X0582207D01*
X0583207Y0506660D01*
Y0505661D01*
X0579208D01*
X0585206Y0507660D02*
Y0503661D01*
Y0505661D01*
X0586206Y0506660D01*
X0587205Y0507660D01*
X0588205D01*
X0559214Y0497659D02*
X0555216D01*
Y0494660D01*
X0557215D01*
X0555216D01*
Y0491661D01*
X0561214D02*
Y0497659D01*
X0564213D01*
X0565212Y0496660D01*
Y0494660D01*
X0564213Y0493661D01*
X0561214D01*
X0563213D02*
X0565212Y0491661D01*
X0567212Y0494660D02*
X0571210D01*
X0576209Y0491661D02*
Y0497659D01*
X0573210Y0494660D01*
X0577209D01*
X0559214Y0484660D02*
X0558215Y0485659D01*
X0556215D01*
X0555216Y0484660D01*
Y0480661D01*
X0556215Y0479661D01*
X0558215D01*
X0559214Y0480661D01*
X0562214Y0479661D02*
X0564213D01*
X0565212Y0480661D01*
Y0482660D01*
X0564213Y0483660D01*
X0562214D01*
X0561214Y0482660D01*
Y0480661D01*
X0562214Y0479661D01*
X0567212Y0477662D02*
Y0483660D01*
X0570211D01*
X0571210Y0482660D01*
Y0480661D01*
X0570211Y0479661D01*
X0567212D01*
X0573210Y0477662D02*
Y0483660D01*
X0576209D01*
X0577209Y0482660D01*
Y0480661D01*
X0576209Y0479661D01*
X0573210D01*
X0582207D02*
X0580208D01*
X0579208Y0480661D01*
Y0482660D01*
X0580208Y0483660D01*
X0582207D01*
X0583207Y0482660D01*
Y0481661D01*
X0579208D01*
X0585206Y0483660D02*
Y0479661D01*
Y0481661D01*
X0586206Y0482660D01*
X0587205Y0483660D01*
X0588205D01*
X0559214Y0472660D02*
X0558215Y0473659D01*
X0556215D01*
X0555216Y0472660D01*
Y0471660D01*
X0556215Y0470660D01*
X0558215D01*
X0559214Y0469661D01*
Y0468661D01*
X0558215Y0467661D01*
X0556215D01*
X0555216Y0468661D01*
X0562214Y0467661D02*
X0564213D01*
X0565212Y0468661D01*
Y0470660D01*
X0564213Y0471660D01*
X0562214D01*
X0561214Y0470660D01*
Y0468661D01*
X0562214Y0467661D01*
X0567212D02*
X0569211D01*
X0568212D01*
Y0473659D01*
X0567212D01*
X0576209D02*
Y0467661D01*
X0573210D01*
X0572210Y0468661D01*
Y0470660D01*
X0573210Y0471660D01*
X0576209D01*
X0581207Y0467661D02*
X0579208D01*
X0578208Y0468661D01*
Y0470660D01*
X0579208Y0471660D01*
X0581207D01*
X0582207Y0470660D01*
Y0469661D01*
X0578208D01*
X0584206Y0471660D02*
Y0467661D01*
Y0469661D01*
X0585206Y0470660D01*
X0586206Y0471660D01*
X0587205D01*
X0596203Y0467661D02*
Y0473659D01*
X0599201D01*
X0600201Y0472660D01*
Y0470660D01*
X0599201Y0469661D01*
X0596203D01*
X0598202D02*
X0600201Y0467661D01*
X0605199D02*
X0603200D01*
X0602201Y0468661D01*
Y0470660D01*
X0603200Y0471660D01*
X0605199D01*
X0606199Y0470660D01*
Y0469661D01*
X0602201D01*
X0608199Y0467661D02*
X0611198D01*
X0612197Y0468661D01*
X0611198Y0469661D01*
X0609198D01*
X0608199Y0470660D01*
X0609198Y0471660D01*
X0612197D01*
X0614197Y0467661D02*
X0616196D01*
X0615196D01*
Y0471660D01*
X0614197D01*
X0619195Y0467661D02*
X0622194D01*
X0623194Y0468661D01*
X0622194Y0469661D01*
X0620195D01*
X0619195Y0470660D01*
X0620195Y0471660D01*
X0623194D01*
X0626193Y0472660D02*
Y0471660D01*
X0625193D01*
X0627192D01*
X0626193D01*
Y0468661D01*
X0627192Y0467661D01*
X0555216Y0539661D02*
Y0545659D01*
X0557215Y0543660D01*
X0559214Y0545659D01*
Y0539661D01*
X0562214Y0543660D02*
X0564213D01*
X0565212Y0542660D01*
Y0539661D01*
X0562214D01*
X0561214Y0540661D01*
X0562214Y0541661D01*
X0565212D01*
X0568212Y0544660D02*
Y0543660D01*
X0567212D01*
X0569211D01*
X0568212D01*
Y0540661D01*
X0569211Y0539661D01*
X0575209D02*
X0573210D01*
X0572210Y0540661D01*
Y0542660D01*
X0573210Y0543660D01*
X0575209D01*
X0576209Y0542660D01*
Y0541661D01*
X0572210D01*
X0578208Y0543660D02*
Y0539661D01*
Y0541661D01*
X0579208Y0542660D01*
X0580208Y0543660D01*
X0581207D01*
X0584206Y0539661D02*
X0586206D01*
X0585206D01*
Y0543660D01*
X0584206D01*
X0590204D02*
X0592204D01*
X0593203Y0542660D01*
Y0539661D01*
X0590204D01*
X0589205Y0540661D01*
X0590204Y0541661D01*
X0593203D01*
X0595203Y0539661D02*
X0597202D01*
X0596203D01*
Y0545659D01*
X0595203D01*
X0462241Y0533659D02*
X0466240D01*
X0464241D01*
Y0527661D01*
X0469239D02*
X0471238D01*
X0472238Y0528661D01*
Y0530660D01*
X0471238Y0531660D01*
X0469239D01*
X0468239Y0530660D01*
Y0528661D01*
X0469239Y0527661D01*
X0474237Y0525662D02*
Y0531660D01*
X0477236D01*
X0478236Y0530660D01*
Y0528661D01*
X0477236Y0527661D01*
X0474237D01*
X0489232Y0533659D02*
X0487233D01*
X0486234Y0532660D01*
Y0528661D01*
X0487233Y0527661D01*
X0489232D01*
X0490232Y0528661D01*
Y0532660D01*
X0489232Y0533659D01*
X0492232Y0531660D02*
X0494231Y0527661D01*
X0496230Y0531660D01*
X0501229Y0527661D02*
X0499229D01*
X0498230Y0528661D01*
Y0530660D01*
X0499229Y0531660D01*
X0501229D01*
X0502228Y0530660D01*
Y0529661D01*
X0498230D01*
X0504228Y0531660D02*
Y0527661D01*
Y0529661D01*
X0505227Y0530660D01*
X0506227Y0531660D01*
X0507227D01*
X0510226Y0527661D02*
X0512225D01*
X0511225D01*
Y0533659D01*
X0510226D01*
X0516224Y0531660D02*
X0518223D01*
X0519223Y0530660D01*
Y0527661D01*
X0516224D01*
X0515224Y0528661D01*
X0516224Y0529661D01*
X0519223D01*
X0521222Y0531660D02*
Y0528661D01*
X0522222Y0527661D01*
X0525221D01*
Y0526661D01*
X0524221Y0525662D01*
X0523221D01*
X0525221Y0527661D02*
Y0531660D01*
X0462241Y0521659D02*
X0466240D01*
X0464241D01*
Y0515661D01*
X0469239D02*
X0471238D01*
X0472238Y0516661D01*
Y0518660D01*
X0471238Y0519660D01*
X0469239D01*
X0468239Y0518660D01*
Y0516661D01*
X0469239Y0515661D01*
X0474237Y0513662D02*
Y0519660D01*
X0477236D01*
X0478236Y0518660D01*
Y0516661D01*
X0477236Y0515661D01*
X0474237D01*
X0490232Y0520660D02*
X0489232Y0521659D01*
X0487233D01*
X0486234Y0520660D01*
Y0519660D01*
X0487233Y0518660D01*
X0489232D01*
X0490232Y0517661D01*
Y0516661D01*
X0489232Y0515661D01*
X0487233D01*
X0486234Y0516661D01*
X0493231Y0515661D02*
X0495231D01*
X0496230Y0516661D01*
Y0518660D01*
X0495231Y0519660D01*
X0493231D01*
X0492232Y0518660D01*
Y0516661D01*
X0493231Y0515661D01*
X0498230D02*
X0500229D01*
X0499229D01*
Y0521659D01*
X0498230D01*
X0507227D02*
Y0515661D01*
X0504228D01*
X0503228Y0516661D01*
Y0518660D01*
X0504228Y0519660D01*
X0507227D01*
X0512225Y0515661D02*
X0510226D01*
X0509226Y0516661D01*
Y0518660D01*
X0510226Y0519660D01*
X0512225D01*
X0513225Y0518660D01*
Y0517661D01*
X0509226D01*
X0515224Y0519660D02*
Y0515661D01*
Y0517661D01*
X0516224Y0518660D01*
X0517224Y0519660D01*
X0518223D01*
X0462241Y0509659D02*
X0466240D01*
X0464241D01*
Y0503661D01*
X0469239D02*
X0471238D01*
X0472238Y0504661D01*
Y0506660D01*
X0471238Y0507660D01*
X0469239D01*
X0468239Y0506660D01*
Y0504661D01*
X0469239Y0503661D01*
X0474237Y0501662D02*
Y0507660D01*
X0477236D01*
X0478236Y0506660D01*
Y0504661D01*
X0477236Y0503661D01*
X0474237D01*
X0486234Y0509659D02*
Y0503661D01*
X0490232D01*
X0493231Y0507660D02*
X0495231D01*
X0496230Y0506660D01*
Y0503661D01*
X0493231D01*
X0492232Y0504661D01*
X0493231Y0505661D01*
X0496230D01*
X0498230Y0507660D02*
Y0504661D01*
X0499229Y0503661D01*
X0502228D01*
Y0502662D01*
X0501229Y0501662D01*
X0500229D01*
X0502228Y0503661D02*
Y0507660D01*
X0507227Y0503661D02*
X0505227D01*
X0504228Y0504661D01*
Y0506660D01*
X0505227Y0507660D01*
X0507227D01*
X0508226Y0506660D01*
Y0505661D01*
X0504228D01*
X0510226Y0507660D02*
Y0503661D01*
Y0505661D01*
X0511225Y0506660D01*
X0512225Y0507660D01*
X0513225D01*
X0462241Y0497659D02*
Y0491661D01*
X0465240D01*
X0466240Y0492661D01*
Y0496660D01*
X0465240Y0497659D01*
X0462241D01*
X0468239Y0491661D02*
X0470239D01*
X0469239D01*
Y0495660D01*
X0468239D01*
X0476237Y0491661D02*
X0474237D01*
X0473238Y0492661D01*
Y0494660D01*
X0474237Y0495660D01*
X0476237D01*
X0477236Y0494660D01*
Y0493661D01*
X0473238D01*
X0479236Y0491661D02*
X0481235D01*
X0480235D01*
Y0497659D01*
X0479236D01*
X0487233Y0491661D02*
X0485234D01*
X0484234Y0492661D01*
Y0494660D01*
X0485234Y0495660D01*
X0487233D01*
X0488233Y0494660D01*
Y0493661D01*
X0484234D01*
X0494231Y0495660D02*
X0491232D01*
X0490232Y0494660D01*
Y0492661D01*
X0491232Y0491661D01*
X0494231D01*
X0497230Y0496660D02*
Y0495660D01*
X0496230D01*
X0498230D01*
X0497230D01*
Y0492661D01*
X0498230Y0491661D01*
X0501229Y0495660D02*
Y0491661D01*
Y0493661D01*
X0502228Y0494660D01*
X0503228Y0495660D01*
X0504228D01*
X0507227Y0491661D02*
X0509226D01*
X0508226D01*
Y0495660D01*
X0507227D01*
X0516224D02*
X0513225D01*
X0512225Y0494660D01*
Y0492661D01*
X0513225Y0491661D01*
X0516224D01*
X0518223D02*
X0520223D01*
X0519223D01*
Y0497659D01*
X0518223Y0496660D01*
X0462241Y0485659D02*
Y0479661D01*
X0465240D01*
X0466240Y0480661D01*
Y0481661D01*
X0465240Y0482660D01*
X0462241D01*
X0465240D01*
X0466240Y0483660D01*
Y0484660D01*
X0465240Y0485659D01*
X0462241D01*
X0469239Y0479661D02*
X0471238D01*
X0472238Y0480661D01*
Y0482660D01*
X0471238Y0483660D01*
X0469239D01*
X0468239Y0482660D01*
Y0480661D01*
X0469239Y0479661D01*
X0475237Y0484660D02*
Y0483660D01*
X0474237D01*
X0476237D01*
X0475237D01*
Y0480661D01*
X0476237Y0479661D01*
X0480235Y0484660D02*
Y0483660D01*
X0479236D01*
X0481235D01*
X0480235D01*
Y0480661D01*
X0481235Y0479661D01*
X0485234D02*
X0487233D01*
X0488233Y0480661D01*
Y0482660D01*
X0487233Y0483660D01*
X0485234D01*
X0484234Y0482660D01*
Y0480661D01*
X0485234Y0479661D01*
X0490232D02*
Y0483660D01*
X0491232D01*
X0492232Y0482660D01*
Y0479661D01*
Y0482660D01*
X0493231Y0483660D01*
X0494231Y0482660D01*
Y0479661D01*
X0502228Y0485659D02*
Y0479661D01*
X0506227D01*
X0509226Y0483660D02*
X0511225D01*
X0512225Y0482660D01*
Y0479661D01*
X0509226D01*
X0508226Y0480661D01*
X0509226Y0481661D01*
X0512225D01*
X0514224Y0483660D02*
Y0480661D01*
X0515224Y0479661D01*
X0518223D01*
Y0478661D01*
X0517224Y0477662D01*
X0516224D01*
X0518223Y0479661D02*
Y0483660D01*
X0523221Y0479661D02*
X0521222D01*
X0520223Y0480661D01*
Y0482660D01*
X0521222Y0483660D01*
X0523221D01*
X0524221Y0482660D01*
Y0481661D01*
X0520223D01*
X0526221Y0483660D02*
Y0479661D01*
Y0481661D01*
X0527220Y0482660D01*
X0528220Y0483660D01*
X0529220D01*
X0462241Y0473659D02*
Y0467661D01*
X0465240D01*
X0466240Y0468661D01*
Y0469661D01*
X0465240Y0470660D01*
X0462241D01*
X0465240D01*
X0466240Y0471660D01*
Y0472660D01*
X0465240Y0473659D01*
X0462241D01*
X0469239Y0467661D02*
X0471238D01*
X0472238Y0468661D01*
Y0470660D01*
X0471238Y0471660D01*
X0469239D01*
X0468239Y0470660D01*
Y0468661D01*
X0469239Y0467661D01*
X0475237Y0472660D02*
Y0471660D01*
X0474237D01*
X0476237D01*
X0475237D01*
Y0468661D01*
X0476237Y0467661D01*
X0480235Y0472660D02*
Y0471660D01*
X0479236D01*
X0481235D01*
X0480235D01*
Y0468661D01*
X0481235Y0467661D01*
X0485234D02*
X0487233D01*
X0488233Y0468661D01*
Y0470660D01*
X0487233Y0471660D01*
X0485234D01*
X0484234Y0470660D01*
Y0468661D01*
X0485234Y0467661D01*
X0490232D02*
Y0471660D01*
X0491232D01*
X0492232Y0470660D01*
Y0467661D01*
Y0470660D01*
X0493231Y0471660D01*
X0494231Y0470660D01*
Y0467661D01*
X0506227Y0472660D02*
X0505227Y0473659D01*
X0503228D01*
X0502228Y0472660D01*
Y0471660D01*
X0503228Y0470660D01*
X0505227D01*
X0506227Y0469661D01*
Y0468661D01*
X0505227Y0467661D01*
X0503228D01*
X0502228Y0468661D01*
X0509226Y0467661D02*
X0511225D01*
X0512225Y0468661D01*
Y0470660D01*
X0511225Y0471660D01*
X0509226D01*
X0508226Y0470660D01*
Y0468661D01*
X0509226Y0467661D01*
X0514224D02*
X0516224D01*
X0515224D01*
Y0473659D01*
X0514224D01*
X0523221D02*
Y0467661D01*
X0520223D01*
X0519223Y0468661D01*
Y0470660D01*
X0520223Y0471660D01*
X0523221D01*
X0528220Y0467661D02*
X0526221D01*
X0525221Y0468661D01*
Y0470660D01*
X0526221Y0471660D01*
X0528220D01*
X0529220Y0470660D01*
Y0469661D01*
X0525221D01*
X0531219Y0471660D02*
Y0467661D01*
Y0469661D01*
X0532219Y0470660D01*
X0533218Y0471660D01*
X0534218D01*
X0462241Y0461659D02*
Y0455661D01*
X0465240D01*
X0466240Y0456661D01*
Y0457661D01*
X0465240Y0458660D01*
X0462241D01*
X0465240D01*
X0466240Y0459660D01*
Y0460660D01*
X0465240Y0461659D01*
X0462241D01*
X0469239Y0455661D02*
X0471238D01*
X0472238Y0456661D01*
Y0458660D01*
X0471238Y0459660D01*
X0469239D01*
X0468239Y0458660D01*
Y0456661D01*
X0469239Y0455661D01*
X0475237Y0460660D02*
Y0459660D01*
X0474237D01*
X0476237D01*
X0475237D01*
Y0456661D01*
X0476237Y0455661D01*
X0480235Y0460660D02*
Y0459660D01*
X0479236D01*
X0481235D01*
X0480235D01*
Y0456661D01*
X0481235Y0455661D01*
X0485234D02*
X0487233D01*
X0488233Y0456661D01*
Y0458660D01*
X0487233Y0459660D01*
X0485234D01*
X0484234Y0458660D01*
Y0456661D01*
X0485234Y0455661D01*
X0490232D02*
Y0459660D01*
X0491232D01*
X0492232Y0458660D01*
Y0455661D01*
Y0458660D01*
X0493231Y0459660D01*
X0494231Y0458660D01*
Y0455661D01*
X0505227Y0461659D02*
X0503228D01*
X0502228Y0460660D01*
Y0456661D01*
X0503228Y0455661D01*
X0505227D01*
X0506227Y0456661D01*
Y0460660D01*
X0505227Y0461659D01*
X0508226Y0459660D02*
X0510226Y0455661D01*
X0512225Y0459660D01*
X0517224Y0455661D02*
X0515224D01*
X0514224Y0456661D01*
Y0458660D01*
X0515224Y0459660D01*
X0517224D01*
X0518223Y0458660D01*
Y0457661D01*
X0514224D01*
X0520223Y0459660D02*
Y0455661D01*
Y0457661D01*
X0521222Y0458660D01*
X0522222Y0459660D01*
X0523221D01*
X0526221Y0455661D02*
X0528220D01*
X0527220D01*
Y0461659D01*
X0526221D01*
X0532219Y0459660D02*
X0534218D01*
X0535218Y0458660D01*
Y0455661D01*
X0532219D01*
X0531219Y0456661D01*
X0532219Y0457661D01*
X0535218D01*
X0537217Y0459660D02*
Y0456661D01*
X0538217Y0455661D01*
X0541216D01*
Y0454662D01*
X0540216Y0453662D01*
X0539216D01*
X0541216Y0455661D02*
Y0459660D01*
X0462241Y0539661D02*
Y0545659D01*
X0466240Y0539661D01*
Y0545659D01*
X0469239Y0543660D02*
X0471238D01*
X0472238Y0542660D01*
Y0539661D01*
X0469239D01*
X0468239Y0540661D01*
X0469239Y0541661D01*
X0472238D01*
X0474237Y0539661D02*
Y0543660D01*
X0475237D01*
X0476237Y0542660D01*
Y0539661D01*
Y0542660D01*
X0477236Y0543660D01*
X0478236Y0542660D01*
Y0539661D01*
X0483235D02*
X0481235D01*
X0480235Y0540661D01*
Y0542660D01*
X0481235Y0543660D01*
X0483235D01*
X0484234Y0542660D01*
Y0541661D01*
X0480235D01*
X0421250Y0527661D02*
X0423249D01*
X0422250D01*
Y0533659D01*
X0421250Y0532660D01*
X0425249Y0515661D02*
X0421250D01*
X0425249Y0519660D01*
Y0520660D01*
X0424249Y0521659D01*
X0422250D01*
X0421250Y0520660D01*
Y0508660D02*
X0422250Y0509659D01*
X0424249D01*
X0425249Y0508660D01*
Y0507660D01*
X0424249Y0506660D01*
X0423249D01*
X0424249D01*
X0425249Y0505661D01*
Y0504661D01*
X0424249Y0503661D01*
X0422250D01*
X0421250Y0504661D01*
X0424249Y0491661D02*
Y0497659D01*
X0421250Y0494660D01*
X0425249D01*
Y0485659D02*
X0421250D01*
Y0482660D01*
X0423249Y0483660D01*
X0424249D01*
X0425249Y0482660D01*
Y0480661D01*
X0424249Y0479661D01*
X0422250D01*
X0421250Y0480661D01*
X0425249Y0473659D02*
X0423249Y0472660D01*
X0421250Y0470660D01*
Y0468661D01*
X0422250Y0467661D01*
X0424249D01*
X0425249Y0468661D01*
Y0469661D01*
X0424249Y0470660D01*
X0421250D01*
Y0461659D02*
X0425249D01*
Y0460660D01*
X0421250Y0456661D01*
Y0455661D01*
Y0545659D02*
Y0539661D01*
X0425249D01*
X0428248Y0543660D02*
X0430247D01*
X0431247Y0542660D01*
Y0539661D01*
X0428248D01*
X0427248Y0540661D01*
X0428248Y0541661D01*
X0431247D01*
X0433246Y0543660D02*
Y0540661D01*
X0434246Y0539661D01*
X0437245D01*
Y0538661D01*
X0436245Y0537662D01*
X0435246D01*
X0437245Y0539661D02*
Y0543660D01*
X0442243Y0539661D02*
X0440244D01*
X0439244Y0540661D01*
Y0542660D01*
X0440244Y0543660D01*
X0442243D01*
X0443243Y0542660D01*
Y0541661D01*
X0439244D01*
X0445242Y0543660D02*
Y0539661D01*
Y0541661D01*
X0446242Y0542660D01*
X0447242Y0543660D01*
X0448241D01*
D53*
X0519465Y0376263D02*
G03*
X0493691Y0376263I-0012887J0008404D01*
G01*
X0538515Y0376263D02*
G03*
X0551401Y0388029I0000560J0012326D01*
G01*
Y0436774D02*
G03*
X0539635Y0449661I-0012326J0000560D01*
G01*
X0493691Y0449661D02*
G03*
X0519465Y0449661I0012887J-0008404D01*
G01*
X0415250Y0376263D02*
X0493691D01*
Y0376263D01*
X0519465Y0376263D02*
X0519465Y0376263D01*
X0519465Y0376263D02*
X0538515D01*
X0551401Y0388029D02*
Y0436774D01*
X0519465Y0449661D02*
X0539635D01*
X0519465Y0449661D02*
Y0449661D01*
X0493691Y0449661D02*
Y0449661D01*
X0415250D02*
X0493691D01*
X0415250Y0376263D02*
Y0449661D01*
X0869130Y0452661D02*
Y0548661D01*
X0757162Y0524661D02*
X0869130D01*
X0757162Y0512661D02*
X0869130D01*
X0757162Y0500661D02*
X0869130D01*
X0757162Y0488661D02*
X0869130D01*
X0757162Y0476661D02*
X0869130D01*
X0757162Y0464661D02*
X0869130D01*
X0757162Y0452661D02*
X0869130D01*
X0757162D02*
Y0548661D01*
X0700176Y0524661D02*
X0757162D01*
X0700176Y0512661D02*
X0757162D01*
X0700176Y0500661D02*
X0757162D01*
X0700176Y0488661D02*
X0757162D01*
X0700176Y0476661D02*
X0757162D01*
X0700176Y0464661D02*
X0757162D01*
X0700176Y0452661D02*
X0757162D01*
X0700176D02*
Y0548661D01*
X0635192Y0524661D02*
X0700176D01*
X0635192Y0512661D02*
X0700176D01*
X0635192Y0500661D02*
X0700176D01*
X0635192Y0488661D02*
X0700176D01*
X0635192Y0476661D02*
X0700176D01*
X0635192Y0464661D02*
X0700176D01*
X0635192Y0452661D02*
X0700176D01*
X0635192D02*
Y0548661D01*
X0549216Y0524661D02*
X0635192D01*
X0549216Y0512661D02*
X0635192D01*
X0549216Y0500661D02*
X0635192D01*
X0549216Y0488661D02*
X0635192D01*
X0549216Y0476661D02*
X0635192D01*
X0549216Y0464661D02*
X0635192D01*
X0549216Y0452661D02*
X0635192D01*
X0549216D02*
Y0548661D01*
X0456241Y0524661D02*
X0549216D01*
X0456241Y0512661D02*
X0549216D01*
X0456241Y0500661D02*
X0549216D01*
X0456241Y0488661D02*
X0549216D01*
X0456241Y0476661D02*
X0549216D01*
X0456241Y0464661D02*
X0549216D01*
X0456241Y0452661D02*
X0549216D01*
X0456241D02*
Y0548661D01*
X0415250Y0524661D02*
X0456241D01*
X0415250Y0512661D02*
X0456241D01*
X0415250Y0500661D02*
X0456241D01*
X0415250Y0488661D02*
X0456241D01*
X0415250Y0476661D02*
X0456241D01*
X0415250Y0464661D02*
X0456241D01*
X0415250Y0452661D02*
X0456241D01*
X0415250D02*
Y0548661D01*
X0869130D01*
X0415250Y0536661D02*
X0869130D01*
D54*
X0415250Y0444086D02*
X0420879Y0449715D01*
X0415250Y0438086D02*
X0426879Y0449715D01*
X0415250Y0432086D02*
X0432879Y0449715D01*
X0415250Y0426086D02*
X0438879Y0449715D01*
X0415250Y0420086D02*
X0444879Y0449715D01*
X0415250Y0414086D02*
X0450879Y0449715D01*
X0415250Y0408086D02*
X0456879Y0449715D01*
X0415250Y0402086D02*
X0462879Y0449715D01*
X0415250Y0396086D02*
X0468879Y0449715D01*
X0415250Y0390086D02*
X0474879Y0449715D01*
X0415250Y0384086D02*
X0480879Y0449715D01*
X0415250Y0378086D02*
X0486879Y0449715D01*
X0419365Y0376201D02*
X0492879Y0449715D01*
X0425365Y0376201D02*
X0491237Y0442073D01*
X0431365Y0376201D02*
X0491923Y0436759D01*
X0437365Y0376201D02*
X0493868Y0432704D01*
X0443365Y0376201D02*
X0496706Y0429542D01*
X0449365Y0376201D02*
X0500426Y0427262D01*
X0520589Y0447425D02*
X0522879Y0449715D01*
X0455365Y0376201D02*
X0505190Y0426026D01*
X0521847Y0442683D02*
X0528879Y0449715D01*
X0461365Y0376201D02*
X0512182Y0427017D01*
X0520850Y0435686D02*
X0534879Y0449715D01*
X0467365Y0376201D02*
X0540801Y0449637D01*
X0473365Y0376201D02*
X0545264Y0448100D01*
X0479365Y0376201D02*
X0491719Y0388555D01*
X0502579Y0399415D02*
X0548525Y0445361D01*
X0485365Y0376201D02*
X0491425Y0382260D01*
X0508915Y0399751D02*
X0550703Y0441539D01*
X0491365Y0376201D02*
X0492908Y0377744D01*
X0513463Y0398299D02*
X0551401Y0436237D01*
X0517007Y0395843D02*
X0551401Y0430237D01*
X0519713Y0392549D02*
X0551401Y0424237D01*
X0521482Y0388318D02*
X0551401Y0418237D01*
X0521772Y0382608D02*
X0551401Y0412237D01*
X0521365Y0376201D02*
X0551401Y0406237D01*
X0527365Y0376201D02*
X0551401Y0400237D01*
X0533365Y0376201D02*
X0551401Y0394237D01*
X0539360Y0376196D02*
X0551401Y0388237D01*
X0757162Y0532693D02*
X0761130Y0536661D01*
X0757162Y0526693D02*
X0767130Y0536661D01*
X0761130Y0524661D02*
X0773130Y0536661D01*
X0767130Y0524661D02*
X0779130Y0536661D01*
X0773130Y0524661D02*
X0785130Y0536661D01*
X0779130Y0524661D02*
X0791130Y0536661D01*
X0785130Y0524661D02*
X0797130Y0536661D01*
X0791130Y0524661D02*
X0803130Y0536661D01*
X0797130Y0524661D02*
X0809130Y0536661D01*
X0803130Y0524661D02*
X0815130Y0536661D01*
X0809130Y0524661D02*
X0821130Y0536661D01*
X0815130Y0524661D02*
X0827130Y0536661D01*
X0821130Y0524661D02*
X0833130Y0536661D01*
X0827130Y0524661D02*
X0839130Y0536661D01*
X0833130Y0524661D02*
X0845130Y0536661D01*
X0839130Y0524661D02*
X0851130Y0536661D01*
X0845130Y0524661D02*
X0857130Y0536661D01*
X0851130Y0524661D02*
X0863130Y0536661D01*
X0857130Y0524661D02*
X0869130Y0536661D01*
X0863130Y0524661D02*
X0869130Y0530661D01*
X0757162Y0520693D02*
X0761130Y0524661D01*
X0757162Y0514693D02*
X0767130Y0524661D01*
X0761130Y0512661D02*
X0773130Y0524661D01*
X0767130Y0512661D02*
X0779130Y0524661D01*
X0773130Y0512661D02*
X0785130Y0524661D01*
X0779130Y0512661D02*
X0791130Y0524661D01*
X0785130Y0512661D02*
X0797130Y0524661D01*
X0791130Y0512661D02*
X0803130Y0524661D01*
X0797130Y0512661D02*
X0809130Y0524661D01*
X0803130Y0512661D02*
X0815130Y0524661D01*
X0809130Y0512661D02*
X0821130Y0524661D01*
X0815130Y0512661D02*
X0827130Y0524661D01*
X0821130Y0512661D02*
X0833130Y0524661D01*
X0827130Y0512661D02*
X0839130Y0524661D01*
X0833130Y0512661D02*
X0845130Y0524661D01*
X0839130Y0512661D02*
X0851130Y0524661D01*
X0845130Y0512661D02*
X0857130Y0524661D01*
X0851130Y0512661D02*
X0863130Y0524661D01*
X0857130Y0512661D02*
X0869130Y0524661D01*
X0863130Y0512661D02*
X0869130Y0518661D01*
X0757162Y0508693D02*
X0761130Y0512661D01*
X0757162Y0502693D02*
X0767130Y0512661D01*
X0761130Y0500661D02*
X0773130Y0512661D01*
X0767130Y0500661D02*
X0779130Y0512661D01*
X0773130Y0500661D02*
X0785130Y0512661D01*
X0779130Y0500661D02*
X0791130Y0512661D01*
X0785130Y0500661D02*
X0797130Y0512661D01*
X0791130Y0500661D02*
X0803130Y0512661D01*
X0797130Y0500661D02*
X0809130Y0512661D01*
X0803130Y0500661D02*
X0815130Y0512661D01*
X0809130Y0500661D02*
X0821130Y0512661D01*
X0815130Y0500661D02*
X0827130Y0512661D01*
X0821130Y0500661D02*
X0833130Y0512661D01*
X0827130Y0500661D02*
X0839130Y0512661D01*
X0833130Y0500661D02*
X0845130Y0512661D01*
X0839130Y0500661D02*
X0851130Y0512661D01*
X0845130Y0500661D02*
X0857130Y0512661D01*
X0851130Y0500661D02*
X0863130Y0512661D01*
X0857130Y0500661D02*
X0869130Y0512661D01*
X0863130Y0500661D02*
X0869130Y0506661D01*
X0757162Y0496693D02*
X0761130Y0500661D01*
X0757162Y0490693D02*
X0767130Y0500661D01*
X0761130Y0488661D02*
X0773130Y0500661D01*
X0767130Y0488661D02*
X0779130Y0500661D01*
X0773130Y0488661D02*
X0785130Y0500661D01*
X0779130Y0488661D02*
X0791130Y0500661D01*
X0785130Y0488661D02*
X0797130Y0500661D01*
X0791130Y0488661D02*
X0803130Y0500661D01*
X0797130Y0488661D02*
X0809130Y0500661D01*
X0803130Y0488661D02*
X0815130Y0500661D01*
X0809130Y0488661D02*
X0821130Y0500661D01*
X0815130Y0488661D02*
X0827130Y0500661D01*
X0821130Y0488661D02*
X0833130Y0500661D01*
X0827130Y0488661D02*
X0839130Y0500661D01*
X0833130Y0488661D02*
X0845130Y0500661D01*
X0839130Y0488661D02*
X0851130Y0500661D01*
X0845130Y0488661D02*
X0857130Y0500661D01*
X0851130Y0488661D02*
X0863130Y0500661D01*
X0857130Y0488661D02*
X0869130Y0500661D01*
X0863130Y0488661D02*
X0869130Y0494661D01*
X0757162Y0484693D02*
X0761130Y0488661D01*
X0757162Y0478693D02*
X0767130Y0488661D01*
X0761130Y0476661D02*
X0773130Y0488661D01*
X0767130Y0476661D02*
X0779130Y0488661D01*
X0773130Y0476661D02*
X0785130Y0488661D01*
X0779130Y0476661D02*
X0791130Y0488661D01*
X0785130Y0476661D02*
X0797130Y0488661D01*
X0791130Y0476661D02*
X0803130Y0488661D01*
X0797130Y0476661D02*
X0809130Y0488661D01*
X0803130Y0476661D02*
X0815130Y0488661D01*
X0809130Y0476661D02*
X0821130Y0488661D01*
X0815130Y0476661D02*
X0827130Y0488661D01*
X0821130Y0476661D02*
X0833130Y0488661D01*
X0827130Y0476661D02*
X0839130Y0488661D01*
X0833130Y0476661D02*
X0845130Y0488661D01*
X0839130Y0476661D02*
X0851130Y0488661D01*
X0845130Y0476661D02*
X0857130Y0488661D01*
X0851130Y0476661D02*
X0863130Y0488661D01*
X0857130Y0476661D02*
X0869130Y0488661D01*
X0863130Y0476661D02*
X0869130Y0482661D01*
X0757162Y0472693D02*
X0761130Y0476661D01*
X0757162Y0466693D02*
X0767130Y0476661D01*
X0761130Y0464661D02*
X0773130Y0476661D01*
X0767130Y0464661D02*
X0779130Y0476661D01*
X0773130Y0464661D02*
X0785130Y0476661D01*
X0779130Y0464661D02*
X0791130Y0476661D01*
X0785130Y0464661D02*
X0797130Y0476661D01*
X0791130Y0464661D02*
X0803130Y0476661D01*
X0797130Y0464661D02*
X0809130Y0476661D01*
X0803130Y0464661D02*
X0815130Y0476661D01*
X0809130Y0464661D02*
X0821130Y0476661D01*
X0815130Y0464661D02*
X0827130Y0476661D01*
X0821130Y0464661D02*
X0833130Y0476661D01*
X0827130Y0464661D02*
X0839130Y0476661D01*
X0833130Y0464661D02*
X0845130Y0476661D01*
X0839130Y0464661D02*
X0851130Y0476661D01*
X0845130Y0464661D02*
X0857130Y0476661D01*
X0851130Y0464661D02*
X0863130Y0476661D01*
X0857130Y0464661D02*
X0869130Y0476661D01*
X0863130Y0464661D02*
X0869130Y0470661D01*
X0757162Y0460693D02*
X0761130Y0464661D01*
X0757162Y0454693D02*
X0767130Y0464661D01*
X0761130Y0452661D02*
X0773130Y0464661D01*
X0767130Y0452661D02*
X0779130Y0464661D01*
X0773130Y0452661D02*
X0785130Y0464661D01*
X0779130Y0452661D02*
X0791130Y0464661D01*
X0785130Y0452661D02*
X0797130Y0464661D01*
X0791130Y0452661D02*
X0803130Y0464661D01*
X0797130Y0452661D02*
X0809130Y0464661D01*
X0803130Y0452661D02*
X0815130Y0464661D01*
X0809130Y0452661D02*
X0821130Y0464661D01*
X0815130Y0452661D02*
X0827130Y0464661D01*
X0821130Y0452661D02*
X0833130Y0464661D01*
X0827130Y0452661D02*
X0839130Y0464661D01*
X0833130Y0452661D02*
X0845130Y0464661D01*
X0839130Y0452661D02*
X0851130Y0464661D01*
X0845130Y0452661D02*
X0857130Y0464661D01*
X0851130Y0452661D02*
X0863130Y0464661D01*
X0857130Y0452661D02*
X0869130Y0464661D01*
X0863130Y0452661D02*
X0869130Y0458661D01*
M02*
