M48
; DRILL file {KiCad 6.0.2+dfsg-1} date Sat 22 Feb 2025 06:35:29 PM CET
; FORMAT={-:-/ absolute / inch / decimal}
; #@! TF.CreationDate,2025-02-22T18:35:29+01:00
; #@! TF.GenerationSoftware,Kicad,Pcbnew,6.0.2+dfsg-1
; #@! TF.FileFunction,Plated,1,2,PTH
FMAT,2
INCH
; #@! TA.AperFunction,Plated,PTH,ViaDrill
T1C0.0157
; #@! TA.AperFunction,Plated,PTH,ComponentDrill
T2C0.0402
; #@! TA.AperFunction,Plated,PTH,ComponentDrill
T3C0.0787
%
G90
G05
T1
X4.1378Y-3.9685
X4.1378Y-4.0039
X4.1772Y-3.9685
X4.1772Y-4.0039
X4.2165Y-3.9685
X4.2165Y-4.0039
X4.2805Y-3.6378
X4.2825Y-3.7549
X4.4331Y-3.8701
X4.5Y-3.5315
X4.5217Y-3.8701
X4.7047Y-3.5561
X4.7087Y-3.9961
X4.8061Y-3.7027
T2
X4.3837Y-3.4222
X4.4837Y-3.4222
X4.5837Y-3.4222
X5.1093Y-3.586
X5.1093Y-3.686
X5.1093Y-3.786
T3
X5.2352Y-3.528
X5.2352Y-3.846
T0
M30
