%TF.GenerationSoftware,KiCad,Pcbnew,6.0.2+dfsg-1*%
%TF.CreationDate,2025-02-22T18:35:08+01:00*%
%TF.ProjectId,RS232-to-CCtalk-converter,52533233-322d-4746-9f2d-434374616c6b,rev?*%
%TF.SameCoordinates,Original*%
%TF.FileFunction,Copper,L2,Bot*%
%TF.FilePolarity,Positive*%
%FSLAX46Y46*%
G04 Gerber Fmt 4.6, Leading zero omitted, Abs format (unit mm)*
G04 Created by KiCad (PCBNEW 6.0.2+dfsg-1) date 2025-02-22 18:35:08*
%MOMM*%
%LPD*%
G01*
G04 APERTURE LIST*
G04 Aperture macros list*
%AMRoundRect*
0 Rectangle with rounded corners*
0 $1 Rounding radius*
0 $2 $3 $4 $5 $6 $7 $8 $9 X,Y pos of 4 corners*
0 Add a 4 corners polygon primitive as box body*
4,1,4,$2,$3,$4,$5,$6,$7,$8,$9,$2,$3,0*
0 Add four circle primitives for the rounded corners*
1,1,$1+$1,$2,$3*
1,1,$1+$1,$4,$5*
1,1,$1+$1,$6,$7*
1,1,$1+$1,$8,$9*
0 Add four rect primitives between the rounded corners*
20,1,$1+$1,$2,$3,$4,$5,0*
20,1,$1+$1,$4,$5,$6,$7,0*
20,1,$1+$1,$6,$7,$8,$9,0*
20,1,$1+$1,$8,$9,$2,$3,0*%
%AMRotRect*
0 Rectangle, with rotation*
0 The origin of the aperture is its center*
0 $1 length*
0 $2 width*
0 $3 Rotation angle, in degrees counterclockwise*
0 Add horizontal line*
21,1,$1,$2,0,0,$3*%
G04 Aperture macros list end*
%TA.AperFunction,ComponentPad*%
%ADD10R,1.730000X2.030000*%
%TD*%
%TA.AperFunction,ComponentPad*%
%ADD11O,1.730000X2.030000*%
%TD*%
%TA.AperFunction,SMDPad,CuDef*%
%ADD12R,3.480000X1.846667*%
%TD*%
%TA.AperFunction,ComponentPad*%
%ADD13C,3.000000*%
%TD*%
%TA.AperFunction,ComponentPad*%
%ADD14R,2.030000X1.730000*%
%TD*%
%TA.AperFunction,ComponentPad*%
%ADD15O,2.030000X1.730000*%
%TD*%
%TA.AperFunction,SMDPad,CuDef*%
%ADD16RoundRect,0.225000X0.225000X0.250000X-0.225000X0.250000X-0.225000X-0.250000X0.225000X-0.250000X0*%
%TD*%
%TA.AperFunction,SMDPad,CuDef*%
%ADD17RoundRect,0.225000X-0.250000X0.225000X-0.250000X-0.225000X0.250000X-0.225000X0.250000X0.225000X0*%
%TD*%
%TA.AperFunction,SMDPad,CuDef*%
%ADD18R,2.200000X1.200000*%
%TD*%
%TA.AperFunction,SMDPad,CuDef*%
%ADD19R,5.000000X5.800000*%
%TD*%
%TA.AperFunction,SMDPad,CuDef*%
%ADD20RotRect,0.500000X0.500000X20.000000*%
%TD*%
%TA.AperFunction,ViaPad*%
%ADD21C,0.800000*%
%TD*%
%TA.AperFunction,Conductor*%
%ADD22C,0.700000*%
%TD*%
%TA.AperFunction,Conductor*%
%ADD23C,0.500000*%
%TD*%
%TA.AperFunction,Conductor*%
%ADD24C,1.000000*%
%TD*%
%TA.AperFunction,Conductor*%
%ADD25C,0.250000*%
%TD*%
G04 APERTURE END LIST*
D10*
%TO.P,J2,1,Pin_1*%
%TO.N,GNDREF*%
X116425000Y-86925000D03*
D11*
%TO.P,J2,2,Pin_2*%
%TO.N,RX*%
X113885000Y-86925000D03*
%TO.P,J2,3,Pin_3*%
%TO.N,TX*%
X111345000Y-86925000D03*
%TD*%
D12*
%TO.P,J1,6,6*%
%TO.N,unconnected-(J1-Pad6)*%
X106325000Y-89795000D03*
%TO.P,J1,7,7*%
%TO.N,unconnected-(J1-Pad7)*%
X106325000Y-92565000D03*
%TO.P,J1,8,8*%
%TO.N,unconnected-(J1-Pad8)*%
X106325000Y-95335000D03*
%TO.P,J1,9,9*%
%TO.N,unconnected-(J1-Pad9)*%
X106325000Y-98105000D03*
%TD*%
D13*
%TO.P,J3,*%
%TO.N,*%
X132975000Y-89611200D03*
X132975000Y-97688400D03*
D14*
%TO.P,J3,1,Pin_1*%
%TO.N,GNDREF*%
X129775000Y-96164400D03*
D15*
%TO.P,J3,2,Pin_2*%
%TO.N,CCTALK-DATA*%
X129775000Y-93624400D03*
%TO.P,J3,3,Pin_3*%
%TO.N,Net-(D2-Pad2)*%
X129775000Y-91084400D03*
%TD*%
D16*
%TO.P,C8,1*%
%TO.N,+5V*%
X119625000Y-99750000D03*
%TO.P,C8,2*%
%TO.N,GNDREF*%
X118075000Y-99750000D03*
%TD*%
%TO.P,C9,1*%
%TO.N,+5V*%
X119625000Y-98250000D03*
%TO.P,C9,2*%
%TO.N,GNDREF*%
X118075000Y-98250000D03*
%TD*%
D17*
%TO.P,C7,1*%
%TO.N,+24V*%
X123200000Y-92400000D03*
%TO.P,C7,2*%
%TO.N,GNDREF*%
X123200000Y-93950000D03*
%TD*%
D18*
%TO.P,U2,1,IN*%
%TO.N,+24V*%
X120350000Y-91695000D03*
D19*
%TO.P,U2,2,GND*%
%TO.N,GNDREF*%
X114727600Y-93975000D03*
D18*
X120350000Y-93975000D03*
%TO.P,U2,3,OUT*%
%TO.N,+5V*%
X120350000Y-96255000D03*
%TD*%
D20*
%TO.P,D2,1,K*%
%TO.N,+24V*%
X124899538Y-92908422D03*
%TO.P,D2,2,A*%
%TO.N,Net-(D2-Pad2)*%
X126966862Y-92155978D03*
%TD*%
D21*
%TO.N,+5V*%
X119600000Y-101500000D03*
%TO.N,GNDREF*%
X105100000Y-100800000D03*
X105100000Y-101700000D03*
X107100000Y-101700000D03*
X122075000Y-94049500D03*
X107100000Y-100800000D03*
X119500000Y-90325000D03*
X106100000Y-101700000D03*
X106100000Y-100800000D03*
%TO.N,TXout*%
X108725000Y-92400000D03*
X108775000Y-95375000D03*
%TO.N,RX*%
X114300000Y-89700000D03*
%TO.N,Net-(C1-Pad2)*%
X112600000Y-98300000D03*
X114850000Y-98300000D03*
%TD*%
D22*
%TO.N,+5V*%
X119625000Y-96980000D02*
X120350000Y-96255000D01*
X119625000Y-98250000D02*
X119625000Y-96980000D01*
D23*
X119625000Y-101475000D02*
X119600000Y-101500000D01*
D22*
X119625000Y-98250000D02*
X119625000Y-101475000D01*
D24*
%TO.N,GNDREF*%
X120355000Y-93980000D02*
X123596400Y-93980000D01*
X124510800Y-94894400D02*
X126288800Y-94894400D01*
X127584200Y-96189800D02*
X127609600Y-96164400D01*
D25*
X116875000Y-90325000D02*
X114727600Y-92472400D01*
D24*
X126288800Y-94894400D02*
X127584200Y-96189800D01*
D25*
X119500000Y-90325000D02*
X116875000Y-90325000D01*
D24*
X127609600Y-96164400D02*
X129775000Y-96164400D01*
X123596400Y-93980000D02*
X124510800Y-94894400D01*
D25*
X114727600Y-92472400D02*
X114727600Y-93975000D01*
D24*
X120350000Y-93975000D02*
X120355000Y-93980000D01*
%TO.N,+24V*%
X122340400Y-91695000D02*
X122936000Y-92290600D01*
X124281716Y-92290600D02*
X124899538Y-92908422D01*
X122936000Y-92290600D02*
X124281716Y-92290600D01*
X120350000Y-91695000D02*
X122340400Y-91695000D01*
D23*
%TO.N,TXout*%
X108725000Y-92400000D02*
X108725000Y-95325000D01*
X108725000Y-95325000D02*
X108775000Y-95375000D01*
%TO.N,RX*%
X113885000Y-86925000D02*
X114300000Y-87340000D01*
X114300000Y-87340000D02*
X114300000Y-89700000D01*
%TO.N,Net-(C1-Pad2)*%
X112600000Y-98300000D02*
X114850000Y-98300000D01*
D24*
%TO.N,Net-(D2-Pad2)*%
X129775000Y-91084400D02*
X128041400Y-91084400D01*
X128041400Y-91084400D02*
X126969822Y-92155978D01*
X126969822Y-92155978D02*
X126966862Y-92155978D01*
%TD*%
%TA.AperFunction,Conductor*%
%TO.N,GNDREF*%
G36*
X110075867Y-86003202D02*
G01*
X110122360Y-86056858D01*
X110132464Y-86127132D01*
X110117248Y-86171532D01*
X110100948Y-86200167D01*
X110021881Y-86417995D01*
X109980645Y-86646030D01*
X109979500Y-86670310D01*
X109979500Y-87133186D01*
X109994155Y-87305904D01*
X109995495Y-87311068D01*
X109995496Y-87311072D01*
X110026252Y-87429568D01*
X110052373Y-87530206D01*
X110147550Y-87741492D01*
X110150534Y-87745925D01*
X110150535Y-87745926D01*
X110167108Y-87770542D01*
X110276966Y-87933721D01*
X110280645Y-87937578D01*
X110280647Y-87937580D01*
X110346304Y-88006406D01*
X110436921Y-88101397D01*
X110622840Y-88239724D01*
X110693416Y-88275607D01*
X110816799Y-88338338D01*
X110829408Y-88344749D01*
X110914488Y-88371167D01*
X111045616Y-88411884D01*
X111045622Y-88411885D01*
X111050719Y-88413468D01*
X111174347Y-88429854D01*
X111275160Y-88443216D01*
X111275164Y-88443216D01*
X111280444Y-88443916D01*
X111285773Y-88443716D01*
X111285775Y-88443716D01*
X111396229Y-88439569D01*
X111512014Y-88435222D01*
X111738809Y-88387635D01*
X111954345Y-88302517D01*
X112152456Y-88182299D01*
X112245688Y-88101397D01*
X112323448Y-88033921D01*
X112323450Y-88033919D01*
X112327481Y-88030421D01*
X112330864Y-88026295D01*
X112330868Y-88026291D01*
X112471028Y-87855352D01*
X112474413Y-87851224D01*
X112505376Y-87796830D01*
X112556457Y-87747525D01*
X112626087Y-87733663D01*
X112692158Y-87759646D01*
X112719397Y-87788796D01*
X112816966Y-87933721D01*
X112820645Y-87937578D01*
X112820647Y-87937580D01*
X112886304Y-88006406D01*
X112976921Y-88101397D01*
X113162840Y-88239724D01*
X113241606Y-88279771D01*
X113356799Y-88338338D01*
X113369408Y-88344749D01*
X113374508Y-88346333D01*
X113374514Y-88346335D01*
X113460864Y-88373148D01*
X113519990Y-88412451D01*
X113548480Y-88477480D01*
X113549500Y-88493480D01*
X113549500Y-89165143D01*
X113532619Y-89228143D01*
X113472821Y-89331716D01*
X113414326Y-89511744D01*
X113394540Y-89700000D01*
X113395230Y-89706565D01*
X113409569Y-89842991D01*
X113414326Y-89888256D01*
X113472821Y-90068284D01*
X113567467Y-90232216D01*
X113571885Y-90237123D01*
X113571886Y-90237124D01*
X113627700Y-90299111D01*
X113694129Y-90372888D01*
X113847270Y-90484151D01*
X114020197Y-90561144D01*
X114118212Y-90581978D01*
X114198897Y-90599128D01*
X114198901Y-90599128D01*
X114205354Y-90600500D01*
X114394646Y-90600500D01*
X114401099Y-90599128D01*
X114401103Y-90599128D01*
X114481788Y-90581978D01*
X114579803Y-90561144D01*
X114752730Y-90484151D01*
X114905871Y-90372888D01*
X114972301Y-90299111D01*
X115028114Y-90237124D01*
X115028115Y-90237123D01*
X115032533Y-90232216D01*
X115127179Y-90068284D01*
X115185674Y-89888256D01*
X115190432Y-89842991D01*
X115204770Y-89706565D01*
X115205460Y-89700000D01*
X115185674Y-89511744D01*
X115127179Y-89331716D01*
X115067381Y-89228143D01*
X115050500Y-89165143D01*
X115050500Y-87821178D01*
X115066998Y-87758845D01*
X115069579Y-87754312D01*
X115129052Y-87649833D01*
X115208119Y-87432005D01*
X115249355Y-87203970D01*
X115250500Y-87179690D01*
X115250500Y-86716814D01*
X115235845Y-86544096D01*
X115232460Y-86531052D01*
X115178967Y-86324957D01*
X115177627Y-86319794D01*
X115106073Y-86160949D01*
X115096332Y-86090625D01*
X115126157Y-86026198D01*
X115186081Y-85988122D01*
X115220955Y-85983200D01*
X120037817Y-85983200D01*
X120105938Y-86003202D01*
X120152431Y-86056858D01*
X120162535Y-86127132D01*
X120157357Y-86149028D01*
X120089090Y-86353922D01*
X120089087Y-86353933D01*
X120088177Y-86356664D01*
X119993705Y-86761416D01*
X119993310Y-86764282D01*
X119993309Y-86764287D01*
X119937342Y-87170283D01*
X119936946Y-87173153D01*
X119936817Y-87176047D01*
X119936816Y-87176054D01*
X119925149Y-87437021D01*
X119918383Y-87588369D01*
X119938175Y-88003529D01*
X119996152Y-88415096D01*
X119996819Y-88417916D01*
X120070366Y-88728854D01*
X120091822Y-88819567D01*
X120224369Y-89213496D01*
X120392664Y-89593530D01*
X120394078Y-89596062D01*
X120394080Y-89596066D01*
X120593848Y-89953877D01*
X120593853Y-89953885D01*
X120595275Y-89956432D01*
X120830477Y-90299111D01*
X120904353Y-90387926D01*
X120932537Y-90453087D01*
X120921018Y-90523143D01*
X120873452Y-90575850D01*
X120807483Y-90594500D01*
X119226158Y-90594501D01*
X119202624Y-90594501D01*
X119199230Y-90594870D01*
X119199224Y-90594870D01*
X119149278Y-90600295D01*
X119149274Y-90600296D01*
X119141420Y-90601149D01*
X119007176Y-90651474D01*
X118999997Y-90656854D01*
X118999994Y-90656856D01*
X118899635Y-90732072D01*
X118892454Y-90737454D01*
X118887072Y-90744635D01*
X118811856Y-90844994D01*
X118811854Y-90844997D01*
X118806474Y-90852176D01*
X118782028Y-90917386D01*
X118765620Y-90961157D01*
X118756149Y-90986420D01*
X118749500Y-91047623D01*
X118749501Y-92342376D01*
X118749870Y-92345770D01*
X118749870Y-92345776D01*
X118753626Y-92380348D01*
X118756149Y-92403580D01*
X118806474Y-92537824D01*
X118811854Y-92545003D01*
X118811856Y-92545006D01*
X118823129Y-92560047D01*
X118892454Y-92652546D01*
X118899635Y-92657928D01*
X118999994Y-92733144D01*
X118999997Y-92733146D01*
X119007176Y-92738526D01*
X119075521Y-92764147D01*
X119134025Y-92786079D01*
X119134027Y-92786079D01*
X119141420Y-92788851D01*
X119149270Y-92789704D01*
X119149271Y-92789704D01*
X119199217Y-92795130D01*
X119202623Y-92795500D01*
X120349832Y-92795500D01*
X121497376Y-92795499D01*
X121500770Y-92795130D01*
X121500776Y-92795130D01*
X121550722Y-92789705D01*
X121550726Y-92789704D01*
X121558580Y-92788851D01*
X121692824Y-92738526D01*
X121700003Y-92733146D01*
X121700006Y-92733144D01*
X121716644Y-92720674D01*
X121783151Y-92695826D01*
X121792209Y-92695500D01*
X121873789Y-92695500D01*
X121941910Y-92715502D01*
X121962884Y-92732405D01*
X122217111Y-92986632D01*
X122219564Y-92989154D01*
X122264220Y-93036376D01*
X122278881Y-93051880D01*
X122284114Y-93055544D01*
X122284116Y-93055546D01*
X122328297Y-93086482D01*
X122335639Y-93092034D01*
X122382404Y-93130174D01*
X122407917Y-93143512D01*
X122421800Y-93151953D01*
X122445379Y-93168463D01*
X122464737Y-93176840D01*
X122492432Y-93193383D01*
X122497289Y-93198231D01*
X122503519Y-93202071D01*
X122503520Y-93202072D01*
X122558247Y-93235806D01*
X122641303Y-93287003D01*
X122801876Y-93340263D01*
X122808712Y-93340963D01*
X122808715Y-93340964D01*
X122858797Y-93346095D01*
X122901793Y-93350500D01*
X123197700Y-93350500D01*
X123498206Y-93350499D01*
X123501450Y-93350162D01*
X123501458Y-93350162D01*
X123545880Y-93345553D01*
X123599372Y-93340003D01*
X123726542Y-93297576D01*
X123766418Y-93291100D01*
X123815106Y-93291100D01*
X123883227Y-93311102D01*
X123904201Y-93328005D01*
X124227999Y-93651803D01*
X124230466Y-93653815D01*
X124230467Y-93653816D01*
X124311555Y-93719950D01*
X124345941Y-93747995D01*
X124526068Y-93842163D01*
X124721451Y-93898188D01*
X124812316Y-93905180D01*
X124917748Y-93913293D01*
X124917752Y-93913293D01*
X124924108Y-93913782D01*
X124966186Y-93908466D01*
X125119432Y-93889107D01*
X125119435Y-93889106D01*
X125125762Y-93888307D01*
X125261309Y-93842163D01*
X125312140Y-93824859D01*
X125312144Y-93824857D01*
X125318175Y-93822804D01*
X125440646Y-93750951D01*
X125487983Y-93723179D01*
X125487986Y-93723177D01*
X125493486Y-93719950D01*
X125644535Y-93583944D01*
X125765151Y-93420345D01*
X125850408Y-93235833D01*
X125896822Y-93037946D01*
X125900603Y-92902577D01*
X125902319Y-92841151D01*
X125902319Y-92841148D01*
X125902497Y-92834769D01*
X125898644Y-92812914D01*
X125894400Y-92788851D01*
X125893712Y-92784947D01*
X125901581Y-92714389D01*
X125946348Y-92659285D01*
X126013800Y-92637131D01*
X126082521Y-92654962D01*
X126124884Y-92696672D01*
X126166720Y-92764147D01*
X126166727Y-92764156D01*
X126170088Y-92769577D01*
X126174474Y-92774215D01*
X126293406Y-92899982D01*
X126292060Y-92901255D01*
X126292869Y-92902577D01*
X126294448Y-92901084D01*
X126309743Y-92917258D01*
X126440691Y-93008948D01*
X126443072Y-93010659D01*
X126457899Y-93021591D01*
X126460378Y-93022736D01*
X126460430Y-93022770D01*
X126476241Y-93033841D01*
X126535330Y-93059411D01*
X126603548Y-93088932D01*
X126606357Y-93090189D01*
X126642411Y-93106848D01*
X126646901Y-93107901D01*
X126651560Y-93109708D01*
X126662781Y-93114564D01*
X126711543Y-93124751D01*
X126775883Y-93138193D01*
X126778887Y-93138859D01*
X126814810Y-93147284D01*
X126840298Y-93153262D01*
X126846685Y-93153440D01*
X126847682Y-93153570D01*
X126856806Y-93155114D01*
X126857010Y-93155141D01*
X126861742Y-93156129D01*
X126866624Y-93156385D01*
X126866733Y-93156391D01*
X126866749Y-93156391D01*
X126868401Y-93156478D01*
X126953652Y-93156478D01*
X126957171Y-93156527D01*
X127037093Y-93158760D01*
X127037096Y-93158760D01*
X127043475Y-93158938D01*
X127049760Y-93157830D01*
X127049770Y-93157829D01*
X127102888Y-93148462D01*
X127112030Y-93147193D01*
X127172038Y-93141098D01*
X127199515Y-93132487D01*
X127215301Y-93128640D01*
X127219525Y-93127895D01*
X127237357Y-93124751D01*
X127237363Y-93124749D01*
X127243643Y-93123642D01*
X127282777Y-93108148D01*
X127299720Y-93101440D01*
X127308423Y-93098358D01*
X127359907Y-93082224D01*
X127359911Y-93082222D01*
X127365994Y-93080316D01*
X127391164Y-93066363D01*
X127405871Y-93059411D01*
X127415633Y-93055546D01*
X127432627Y-93048818D01*
X127483099Y-93015790D01*
X127491003Y-93011022D01*
X127538185Y-92984869D01*
X127538188Y-92984867D01*
X127543766Y-92981775D01*
X127565619Y-92963045D01*
X127578622Y-92953282D01*
X127598657Y-92940171D01*
X127602704Y-92937523D01*
X127606297Y-92934288D01*
X127606301Y-92934285D01*
X127606426Y-92934172D01*
X127607660Y-92933061D01*
X127646565Y-92894156D01*
X127653662Y-92887583D01*
X127693246Y-92853655D01*
X127698093Y-92849501D01*
X127702007Y-92844456D01*
X127702011Y-92844451D01*
X127717002Y-92825125D01*
X127727465Y-92813256D01*
X128048374Y-92492347D01*
X128418915Y-92121805D01*
X128481228Y-92087780D01*
X128508011Y-92084900D01*
X128646503Y-92084900D01*
X128714624Y-92104902D01*
X128726394Y-92113466D01*
X128844648Y-92210429D01*
X128844654Y-92210433D01*
X128848776Y-92213813D01*
X128903170Y-92244776D01*
X128952475Y-92295857D01*
X128966337Y-92365487D01*
X128940354Y-92431558D01*
X128911204Y-92458797D01*
X128766279Y-92556366D01*
X128762422Y-92560045D01*
X128762420Y-92560047D01*
X128723862Y-92596830D01*
X128598603Y-92716321D01*
X128460276Y-92902240D01*
X128457860Y-92906992D01*
X128365357Y-93088932D01*
X128355251Y-93108808D01*
X128331488Y-93185337D01*
X128288116Y-93325016D01*
X128288115Y-93325022D01*
X128286532Y-93330119D01*
X128256084Y-93559844D01*
X128264778Y-93791414D01*
X128312365Y-94018209D01*
X128397483Y-94233745D01*
X128517701Y-94431856D01*
X128521198Y-94435886D01*
X128605017Y-94532479D01*
X128669579Y-94606881D01*
X128673705Y-94610264D01*
X128673709Y-94610268D01*
X128769429Y-94688753D01*
X128848776Y-94753813D01*
X128853412Y-94756452D01*
X128853415Y-94756454D01*
X128857763Y-94758929D01*
X129050167Y-94868452D01*
X129267995Y-94947519D01*
X129273244Y-94948468D01*
X129273247Y-94948469D01*
X129351881Y-94962688D01*
X129496030Y-94988755D01*
X129500169Y-94988950D01*
X129500176Y-94988951D01*
X129518822Y-94989830D01*
X129518829Y-94989830D01*
X129520310Y-94989900D01*
X129983186Y-94989900D01*
X130155904Y-94975245D01*
X130161068Y-94973905D01*
X130161072Y-94973904D01*
X130375043Y-94918367D01*
X130375042Y-94918367D01*
X130380206Y-94917027D01*
X130591492Y-94821850D01*
X130783721Y-94692434D01*
X130951397Y-94532479D01*
X131089724Y-94346560D01*
X131194749Y-94139992D01*
X131234183Y-94012994D01*
X131261884Y-93923784D01*
X131261885Y-93923778D01*
X131263468Y-93918681D01*
X131293916Y-93688956D01*
X131285222Y-93457386D01*
X131237635Y-93230591D01*
X131152517Y-93015055D01*
X131032299Y-92816944D01*
X131008662Y-92789705D01*
X130883921Y-92645952D01*
X130883919Y-92645950D01*
X130880421Y-92641919D01*
X130876295Y-92638536D01*
X130876291Y-92638532D01*
X130705352Y-92498372D01*
X130701224Y-92494987D01*
X130646830Y-92464024D01*
X130597525Y-92412943D01*
X130583663Y-92343313D01*
X130609646Y-92277242D01*
X130638796Y-92250003D01*
X130783721Y-92152434D01*
X130815829Y-92121805D01*
X130916265Y-92025993D01*
X130951397Y-91992479D01*
X131089724Y-91806560D01*
X131187330Y-91614584D01*
X131192330Y-91604750D01*
X131192330Y-91604749D01*
X131194749Y-91599992D01*
X131248824Y-91425842D01*
X131261884Y-91383784D01*
X131261885Y-91383778D01*
X131263468Y-91378681D01*
X131287688Y-91195943D01*
X131293216Y-91154240D01*
X131293216Y-91154236D01*
X131293916Y-91148956D01*
X131293716Y-91143625D01*
X131290687Y-91062938D01*
X131308119Y-90994114D01*
X131359993Y-90945642D01*
X131429839Y-90932909D01*
X131495480Y-90959958D01*
X131509123Y-90972683D01*
X131599036Y-91069951D01*
X131599041Y-91069956D01*
X131602065Y-91073227D01*
X131605519Y-91076039D01*
X131818307Y-91249275D01*
X131818311Y-91249278D01*
X131821764Y-91252089D01*
X132064472Y-91398212D01*
X132323132Y-91507739D01*
X132378060Y-91552720D01*
X132400000Y-91623766D01*
X132400000Y-95680653D01*
X132379998Y-95748774D01*
X132326342Y-95795267D01*
X132315754Y-95799534D01*
X132271820Y-95814962D01*
X132182683Y-95846264D01*
X132182675Y-95846267D01*
X132178476Y-95847742D01*
X132174523Y-95849795D01*
X132174517Y-95849798D01*
X132074997Y-95901495D01*
X131927072Y-95978336D01*
X131923457Y-95980919D01*
X131923451Y-95980923D01*
X131824315Y-96051767D01*
X131696576Y-96143051D01*
X131693349Y-96146129D01*
X131693347Y-96146131D01*
X131520963Y-96310577D01*
X131491588Y-96338599D01*
X131316199Y-96561080D01*
X131272032Y-96637120D01*
X131176141Y-96802207D01*
X131176138Y-96802213D01*
X131173907Y-96806054D01*
X131172237Y-96810177D01*
X131070175Y-97062157D01*
X131067552Y-97068632D01*
X131066481Y-97072945D01*
X131066479Y-97072950D01*
X131013055Y-97288020D01*
X130999255Y-97343577D01*
X130998801Y-97348005D01*
X130998801Y-97348007D01*
X130996867Y-97366885D01*
X130970380Y-97625402D01*
X130970555Y-97629854D01*
X130979696Y-97862507D01*
X130981502Y-97908484D01*
X131032400Y-98187175D01*
X131122058Y-98455914D01*
X131124050Y-98459901D01*
X131124051Y-98459903D01*
X131231033Y-98674007D01*
X131248687Y-98709339D01*
X131409761Y-98942393D01*
X131462700Y-98999662D01*
X131532998Y-99075710D01*
X131602065Y-99150427D01*
X131605519Y-99153239D01*
X131818307Y-99326475D01*
X131818311Y-99326478D01*
X131821764Y-99329289D01*
X131825586Y-99331590D01*
X132058571Y-99471859D01*
X132064472Y-99475412D01*
X132068567Y-99477146D01*
X132068569Y-99477147D01*
X132111992Y-99495534D01*
X132323132Y-99584939D01*
X132378060Y-99629920D01*
X132400000Y-99700966D01*
X132400000Y-101692065D01*
X132379998Y-101760186D01*
X132326342Y-101806679D01*
X132281452Y-101817844D01*
X132164780Y-101824756D01*
X132063986Y-101830728D01*
X132037691Y-101829477D01*
X132037302Y-101829472D01*
X132028435Y-101828094D01*
X132019537Y-101829260D01*
X132019535Y-101829260D01*
X131997620Y-101832132D01*
X131981249Y-101833200D01*
X128806980Y-101833200D01*
X128738859Y-101813198D01*
X128692366Y-101759542D01*
X128682262Y-101689268D01*
X128687440Y-101667372D01*
X128755707Y-101462480D01*
X128755710Y-101462468D01*
X128756620Y-101459738D01*
X128851092Y-101054986D01*
X128873722Y-100890826D01*
X128907456Y-100646118D01*
X128907457Y-100646107D01*
X128907851Y-100643249D01*
X128917738Y-100422114D01*
X128926284Y-100230946D01*
X128926284Y-100230941D01*
X128926414Y-100228033D01*
X128906623Y-99812874D01*
X128848645Y-99401306D01*
X128752976Y-98996836D01*
X128620429Y-98602907D01*
X128594759Y-98544939D01*
X128453308Y-98225526D01*
X128453307Y-98225524D01*
X128452133Y-98222873D01*
X128249522Y-97859971D01*
X128014321Y-97517292D01*
X127748532Y-97197752D01*
X127454420Y-96904074D01*
X127391780Y-96852127D01*
X127232453Y-96720000D01*
X127134488Y-96638759D01*
X126943867Y-96508339D01*
X126793862Y-96405708D01*
X126793856Y-96405704D01*
X126791460Y-96404065D01*
X126428259Y-96201991D01*
X126282752Y-96137811D01*
X126050635Y-96035429D01*
X126050628Y-96035426D01*
X126047977Y-96034257D01*
X125683211Y-95912124D01*
X125656609Y-95903217D01*
X125656607Y-95903216D01*
X125653852Y-95902294D01*
X125496307Y-95865276D01*
X125252069Y-95807887D01*
X125252059Y-95807885D01*
X125249241Y-95807223D01*
X124866434Y-95753874D01*
X124840459Y-95750254D01*
X124840457Y-95750254D01*
X124837588Y-95749854D01*
X124834701Y-95749721D01*
X124834694Y-95749720D01*
X124425301Y-95730811D01*
X124422400Y-95730677D01*
X124419499Y-95730811D01*
X124010109Y-95749720D01*
X124010105Y-95749720D01*
X124007212Y-95749854D01*
X123595559Y-95807222D01*
X123462680Y-95838444D01*
X123193788Y-95901625D01*
X123193781Y-95901627D01*
X123190947Y-95902293D01*
X123176244Y-95907216D01*
X122799590Y-96033330D01*
X122799586Y-96033331D01*
X122796822Y-96034257D01*
X122794166Y-96035429D01*
X122794157Y-96035432D01*
X122556042Y-96140459D01*
X122416540Y-96201990D01*
X122328295Y-96251087D01*
X122137759Y-96357095D01*
X122068507Y-96372735D01*
X122001792Y-96348452D01*
X121958797Y-96291955D01*
X121950500Y-96246989D01*
X121950499Y-95611042D01*
X121950499Y-95607624D01*
X121943851Y-95546420D01*
X121893526Y-95412176D01*
X121888146Y-95404997D01*
X121888144Y-95404994D01*
X121812928Y-95304635D01*
X121807546Y-95297454D01*
X121800365Y-95292072D01*
X121700006Y-95216856D01*
X121700003Y-95216854D01*
X121692824Y-95211474D01*
X121603439Y-95177966D01*
X121565975Y-95163921D01*
X121565973Y-95163921D01*
X121558580Y-95161149D01*
X121550730Y-95160296D01*
X121550729Y-95160296D01*
X121500774Y-95154869D01*
X121500773Y-95154869D01*
X121497377Y-95154500D01*
X120350168Y-95154500D01*
X119202624Y-95154501D01*
X119199230Y-95154870D01*
X119199224Y-95154870D01*
X119149278Y-95160295D01*
X119149274Y-95160296D01*
X119141420Y-95161149D01*
X119007176Y-95211474D01*
X118999997Y-95216854D01*
X118999994Y-95216856D01*
X118899635Y-95292072D01*
X118892454Y-95297454D01*
X118887072Y-95304635D01*
X118811856Y-95404994D01*
X118811854Y-95404997D01*
X118806474Y-95412176D01*
X118756149Y-95546420D01*
X118749500Y-95607623D01*
X118749501Y-96902376D01*
X118749870Y-96905770D01*
X118749870Y-96905776D01*
X118749909Y-96906129D01*
X118756149Y-96963580D01*
X118764679Y-96986334D01*
X118772647Y-97034076D01*
X118772241Y-97048611D01*
X118773520Y-97055316D01*
X118774067Y-97062114D01*
X118773538Y-97062157D01*
X118774500Y-97072363D01*
X118774500Y-97596371D01*
X118755760Y-97662486D01*
X118737997Y-97691303D01*
X118684737Y-97851876D01*
X118684037Y-97858712D01*
X118684036Y-97858715D01*
X118683648Y-97862507D01*
X118674500Y-97951793D01*
X118674501Y-98548206D01*
X118684997Y-98649372D01*
X118738537Y-98809852D01*
X118755645Y-98837497D01*
X118774500Y-98903799D01*
X118774500Y-99096371D01*
X118755760Y-99162486D01*
X118737997Y-99191303D01*
X118735691Y-99198254D01*
X118735691Y-99198255D01*
X118734946Y-99200500D01*
X118684737Y-99351876D01*
X118674500Y-99451793D01*
X118674501Y-100048206D01*
X118674838Y-100051450D01*
X118674838Y-100051458D01*
X118678384Y-100085630D01*
X118684997Y-100149372D01*
X118738537Y-100309852D01*
X118755645Y-100337497D01*
X118774500Y-100403799D01*
X118774500Y-101106593D01*
X118768333Y-101145528D01*
X118714326Y-101311744D01*
X118694540Y-101500000D01*
X118695230Y-101506565D01*
X118714326Y-101688256D01*
X118712926Y-101688403D01*
X118708086Y-101751800D01*
X118665266Y-101808430D01*
X118598627Y-101832921D01*
X118590243Y-101833200D01*
X105048400Y-101833200D01*
X104980279Y-101813198D01*
X104933786Y-101759542D01*
X104922400Y-101707200D01*
X104922400Y-99654833D01*
X104942402Y-99586712D01*
X104996058Y-99540219D01*
X105048400Y-99528833D01*
X108028127Y-99528832D01*
X108112376Y-99528832D01*
X108115770Y-99528463D01*
X108115776Y-99528463D01*
X108165722Y-99523038D01*
X108165726Y-99523037D01*
X108173580Y-99522184D01*
X108307824Y-99471859D01*
X108315003Y-99466479D01*
X108315006Y-99466477D01*
X108415365Y-99391261D01*
X108422546Y-99385879D01*
X108427928Y-99378698D01*
X108503144Y-99278339D01*
X108503146Y-99278336D01*
X108508526Y-99271157D01*
X108549767Y-99161144D01*
X108556079Y-99144308D01*
X108556079Y-99144306D01*
X108558851Y-99136913D01*
X108565500Y-99075710D01*
X108565500Y-98300000D01*
X111694540Y-98300000D01*
X111714326Y-98488256D01*
X111772821Y-98668284D01*
X111776124Y-98674006D01*
X111776125Y-98674007D01*
X111850544Y-98802904D01*
X111867467Y-98832216D01*
X111871885Y-98837123D01*
X111871886Y-98837124D01*
X111969615Y-98945662D01*
X111994129Y-98972888D01*
X111999468Y-98976767D01*
X112140328Y-99079107D01*
X112147270Y-99084151D01*
X112320197Y-99161144D01*
X112418212Y-99181978D01*
X112498897Y-99199128D01*
X112498901Y-99199128D01*
X112505354Y-99200500D01*
X112694646Y-99200500D01*
X112701099Y-99199128D01*
X112701103Y-99199128D01*
X112781788Y-99181978D01*
X112879803Y-99161144D01*
X113052730Y-99084151D01*
X113058067Y-99080273D01*
X113058073Y-99080270D01*
X113065924Y-99074565D01*
X113132791Y-99050706D01*
X113139986Y-99050500D01*
X114310014Y-99050500D01*
X114378135Y-99070502D01*
X114384076Y-99074565D01*
X114391927Y-99080270D01*
X114391933Y-99080273D01*
X114397270Y-99084151D01*
X114570197Y-99161144D01*
X114668212Y-99181978D01*
X114748897Y-99199128D01*
X114748901Y-99199128D01*
X114755354Y-99200500D01*
X114944646Y-99200500D01*
X114951099Y-99199128D01*
X114951103Y-99199128D01*
X115031788Y-99181978D01*
X115129803Y-99161144D01*
X115302730Y-99084151D01*
X115309673Y-99079107D01*
X115450532Y-98976767D01*
X115455871Y-98972888D01*
X115480386Y-98945662D01*
X115578114Y-98837124D01*
X115578115Y-98837123D01*
X115582533Y-98832216D01*
X115599456Y-98802904D01*
X115673875Y-98674007D01*
X115673876Y-98674006D01*
X115677179Y-98668284D01*
X115735674Y-98488256D01*
X115755460Y-98300000D01*
X115735674Y-98111744D01*
X115677179Y-97931716D01*
X115661198Y-97904035D01*
X115585836Y-97773505D01*
X115582533Y-97767784D01*
X115455871Y-97627112D01*
X115447417Y-97620970D01*
X115308072Y-97519730D01*
X115308071Y-97519729D01*
X115302730Y-97515849D01*
X115129803Y-97438856D01*
X115031788Y-97418022D01*
X114951103Y-97400872D01*
X114951099Y-97400872D01*
X114944646Y-97399500D01*
X114755354Y-97399500D01*
X114748901Y-97400872D01*
X114748897Y-97400872D01*
X114668212Y-97418022D01*
X114570197Y-97438856D01*
X114397270Y-97515849D01*
X114391933Y-97519727D01*
X114391927Y-97519730D01*
X114384076Y-97525435D01*
X114317209Y-97549294D01*
X114310014Y-97549500D01*
X113139986Y-97549500D01*
X113071865Y-97529498D01*
X113065924Y-97525435D01*
X113058073Y-97519730D01*
X113058067Y-97519727D01*
X113052730Y-97515849D01*
X112879803Y-97438856D01*
X112781788Y-97418022D01*
X112701103Y-97400872D01*
X112701099Y-97400872D01*
X112694646Y-97399500D01*
X112505354Y-97399500D01*
X112498901Y-97400872D01*
X112498897Y-97400872D01*
X112418212Y-97418022D01*
X112320197Y-97438856D01*
X112147270Y-97515849D01*
X112141929Y-97519729D01*
X112141928Y-97519730D01*
X112002583Y-97620970D01*
X111994129Y-97627112D01*
X111867467Y-97767784D01*
X111864164Y-97773505D01*
X111788803Y-97904035D01*
X111772821Y-97931716D01*
X111714326Y-98111744D01*
X111694540Y-98300000D01*
X108565500Y-98300000D01*
X108565499Y-97134291D01*
X108565130Y-97130891D01*
X108559705Y-97080945D01*
X108559704Y-97080941D01*
X108558851Y-97073087D01*
X108508526Y-96938843D01*
X108503146Y-96931664D01*
X108503144Y-96931661D01*
X108427928Y-96831302D01*
X108422546Y-96824121D01*
X108415365Y-96818739D01*
X108409016Y-96812390D01*
X108410632Y-96810774D01*
X108375632Y-96763960D01*
X108370611Y-96693142D01*
X108404674Y-96630850D01*
X108412930Y-96623696D01*
X108415365Y-96621261D01*
X108422546Y-96615879D01*
X108466236Y-96557584D01*
X108503144Y-96508339D01*
X108503146Y-96508336D01*
X108508526Y-96501157D01*
X108558851Y-96366913D01*
X108559475Y-96367147D01*
X108591795Y-96310577D01*
X108654751Y-96277760D01*
X108680354Y-96276605D01*
X108680354Y-96275500D01*
X108869646Y-96275500D01*
X108876099Y-96274128D01*
X108876103Y-96274128D01*
X108956788Y-96256978D01*
X109054803Y-96236144D01*
X109227730Y-96159151D01*
X109253458Y-96140459D01*
X109375532Y-96051767D01*
X109380871Y-96047888D01*
X109392087Y-96035432D01*
X109503114Y-95912124D01*
X109503115Y-95912123D01*
X109507533Y-95907216D01*
X109565264Y-95807223D01*
X109598875Y-95749007D01*
X109598876Y-95749006D01*
X109602179Y-95743284D01*
X109660674Y-95563256D01*
X109661619Y-95554271D01*
X109679770Y-95381565D01*
X109680460Y-95375000D01*
X109660674Y-95186744D01*
X109602179Y-95006716D01*
X109592341Y-94989675D01*
X109510835Y-94848503D01*
X109510834Y-94848502D01*
X109507533Y-94842784D01*
X109503115Y-94837877D01*
X109499564Y-94832990D01*
X109475500Y-94758929D01*
X109475500Y-92934857D01*
X109492381Y-92871857D01*
X109548875Y-92774007D01*
X109548876Y-92774006D01*
X109552179Y-92768284D01*
X109610674Y-92588256D01*
X109615975Y-92537824D01*
X109629770Y-92406565D01*
X109630460Y-92400000D01*
X109622940Y-92328452D01*
X109611364Y-92218307D01*
X109611364Y-92218305D01*
X109610674Y-92211744D01*
X109552179Y-92031716D01*
X109457533Y-91867784D01*
X109449959Y-91859372D01*
X109335286Y-91732015D01*
X109335284Y-91732014D01*
X109330871Y-91727112D01*
X109177730Y-91615849D01*
X109004803Y-91538856D01*
X108897532Y-91516055D01*
X108826103Y-91500872D01*
X108826099Y-91500872D01*
X108819646Y-91499500D01*
X108633588Y-91499500D01*
X108565467Y-91479498D01*
X108518974Y-91425842D01*
X108515606Y-91417729D01*
X108511676Y-91407247D01*
X108508526Y-91398843D01*
X108503146Y-91391664D01*
X108503144Y-91391661D01*
X108427928Y-91291302D01*
X108422546Y-91284121D01*
X108415365Y-91278739D01*
X108409016Y-91272390D01*
X108410632Y-91270774D01*
X108375632Y-91223960D01*
X108370611Y-91153142D01*
X108404674Y-91090850D01*
X108412930Y-91083696D01*
X108415365Y-91081261D01*
X108422546Y-91075879D01*
X108450353Y-91038777D01*
X108503144Y-90968339D01*
X108503146Y-90968336D01*
X108508526Y-90961157D01*
X108548876Y-90853521D01*
X108556079Y-90834308D01*
X108556079Y-90834306D01*
X108558851Y-90826913D01*
X108565500Y-90765710D01*
X108565499Y-88824291D01*
X108558851Y-88763087D01*
X108508526Y-88628843D01*
X108503146Y-88621664D01*
X108503144Y-88621661D01*
X108427928Y-88521302D01*
X108422546Y-88514121D01*
X108395005Y-88493480D01*
X108315006Y-88433523D01*
X108315003Y-88433521D01*
X108307824Y-88428141D01*
X108199773Y-88387635D01*
X108180975Y-88380588D01*
X108180973Y-88380588D01*
X108173580Y-88377816D01*
X108165730Y-88376963D01*
X108165729Y-88376963D01*
X108115774Y-88371536D01*
X108115773Y-88371536D01*
X108112377Y-88371167D01*
X108028152Y-88371167D01*
X105048400Y-88371168D01*
X104980279Y-88351166D01*
X104933786Y-88297510D01*
X104922400Y-88245168D01*
X104922400Y-86109200D01*
X104942402Y-86041079D01*
X104996058Y-85994586D01*
X105048400Y-85983200D01*
X110007746Y-85983200D01*
X110075867Y-86003202D01*
G37*
%TD.AperFunction*%
%TD*%
M02*
