%TF.GenerationSoftware,KiCad,Pcbnew,6.0.2+dfsg-1*%
%TF.CreationDate,2025-02-22T18:35:08+01:00*%
%TF.ProjectId,RS232-to-CCtalk-converter,52533233-322d-4746-9f2d-434374616c6b,rev?*%
%TF.SameCoordinates,Original*%
%TF.FileFunction,Legend,Bot*%
%TF.FilePolarity,Positive*%
%FSLAX46Y46*%
G04 Gerber Fmt 4.6, Leading zero omitted, Abs format (unit mm)*
G04 Created by KiCad (PCBNEW 6.0.2+dfsg-1) date 2025-02-22 18:35:08*
%MOMM*%
%LPD*%
G01*
G04 APERTURE LIST*
%ADD10C,0.125000*%
%ADD11C,0.120000*%
G04 APERTURE END LIST*
D10*
%TO.C,C8*%
X116935133Y-99920171D02*
X116958942Y-99943980D01*
X117030371Y-99967790D01*
X117077990Y-99967790D01*
X117149419Y-99943980D01*
X117197038Y-99896361D01*
X117220847Y-99848742D01*
X117244657Y-99753504D01*
X117244657Y-99682076D01*
X117220847Y-99586838D01*
X117197038Y-99539219D01*
X117149419Y-99491600D01*
X117077990Y-99467790D01*
X117030371Y-99467790D01*
X116958942Y-99491600D01*
X116935133Y-99515409D01*
X116649419Y-99682076D02*
X116697038Y-99658266D01*
X116720847Y-99634457D01*
X116744657Y-99586838D01*
X116744657Y-99563028D01*
X116720847Y-99515409D01*
X116697038Y-99491600D01*
X116649419Y-99467790D01*
X116554180Y-99467790D01*
X116506561Y-99491600D01*
X116482752Y-99515409D01*
X116458942Y-99563028D01*
X116458942Y-99586838D01*
X116482752Y-99634457D01*
X116506561Y-99658266D01*
X116554180Y-99682076D01*
X116649419Y-99682076D01*
X116697038Y-99705885D01*
X116720847Y-99729695D01*
X116744657Y-99777314D01*
X116744657Y-99872552D01*
X116720847Y-99920171D01*
X116697038Y-99943980D01*
X116649419Y-99967790D01*
X116554180Y-99967790D01*
X116506561Y-99943980D01*
X116482752Y-99920171D01*
X116458942Y-99872552D01*
X116458942Y-99777314D01*
X116482752Y-99729695D01*
X116506561Y-99705885D01*
X116554180Y-99682076D01*
%TO.C,C9*%
X116678733Y-98740971D02*
X116702542Y-98764780D01*
X116773971Y-98788590D01*
X116821590Y-98788590D01*
X116893019Y-98764780D01*
X116940638Y-98717161D01*
X116964447Y-98669542D01*
X116988257Y-98574304D01*
X116988257Y-98502876D01*
X116964447Y-98407638D01*
X116940638Y-98360019D01*
X116893019Y-98312400D01*
X116821590Y-98288590D01*
X116773971Y-98288590D01*
X116702542Y-98312400D01*
X116678733Y-98336209D01*
X116440638Y-98788590D02*
X116345400Y-98788590D01*
X116297780Y-98764780D01*
X116273971Y-98740971D01*
X116226352Y-98669542D01*
X116202542Y-98574304D01*
X116202542Y-98383828D01*
X116226352Y-98336209D01*
X116250161Y-98312400D01*
X116297780Y-98288590D01*
X116393019Y-98288590D01*
X116440638Y-98312400D01*
X116464447Y-98336209D01*
X116488257Y-98383828D01*
X116488257Y-98502876D01*
X116464447Y-98550495D01*
X116440638Y-98574304D01*
X116393019Y-98598114D01*
X116297780Y-98598114D01*
X116250161Y-98574304D01*
X116226352Y-98550495D01*
X116202542Y-98502876D01*
%TO.C,C7*%
X124542571Y-94466666D02*
X124566380Y-94442857D01*
X124590190Y-94371428D01*
X124590190Y-94323809D01*
X124566380Y-94252380D01*
X124518761Y-94204761D01*
X124471142Y-94180952D01*
X124375904Y-94157142D01*
X124304476Y-94157142D01*
X124209238Y-94180952D01*
X124161619Y-94204761D01*
X124114000Y-94252380D01*
X124090190Y-94323809D01*
X124090190Y-94371428D01*
X124114000Y-94442857D01*
X124137809Y-94466666D01*
X124090190Y-94633333D02*
X124090190Y-94966666D01*
X124590190Y-94752380D01*
%TO.C,U2*%
X111339390Y-93314047D02*
X111744152Y-93314047D01*
X111791771Y-93337857D01*
X111815580Y-93361666D01*
X111839390Y-93409285D01*
X111839390Y-93504523D01*
X111815580Y-93552142D01*
X111791771Y-93575952D01*
X111744152Y-93599761D01*
X111339390Y-93599761D01*
X111387009Y-93814047D02*
X111363200Y-93837857D01*
X111339390Y-93885476D01*
X111339390Y-94004523D01*
X111363200Y-94052142D01*
X111387009Y-94075952D01*
X111434628Y-94099761D01*
X111482247Y-94099761D01*
X111553676Y-94075952D01*
X111839390Y-93790238D01*
X111839390Y-94099761D01*
%TO.C,D2*%
X127074153Y-94036327D02*
X126903142Y-93566481D01*
X126791274Y-93607198D01*
X126732297Y-93654001D01*
X126703836Y-93715035D01*
X126697749Y-93767926D01*
X126707949Y-93865564D01*
X126732379Y-93932685D01*
X126787326Y-94014036D01*
X126825986Y-94050640D01*
X126887020Y-94079100D01*
X126962284Y-94077044D01*
X127074153Y-94036327D01*
X126471956Y-93774095D02*
X126441439Y-93759865D01*
X126388549Y-93753778D01*
X126276681Y-93794494D01*
X126240077Y-93833155D01*
X126225846Y-93863672D01*
X126219760Y-93916562D01*
X126236046Y-93961310D01*
X126282850Y-94020287D01*
X126649053Y-94191051D01*
X126358196Y-94296914D01*
D11*
%TO.C,C8*%
X118990580Y-99240000D02*
X118709420Y-99240000D01*
X118990580Y-100260000D02*
X118709420Y-100260000D01*
%TO.C,C9*%
X118990580Y-97740000D02*
X118709420Y-97740000D01*
X118990580Y-98760000D02*
X118709420Y-98760000D01*
%TO.C,C7*%
X122690000Y-93034420D02*
X122690000Y-93315580D01*
X123710000Y-93034420D02*
X123710000Y-93315580D01*
%TO.C,U2*%
X118620000Y-97155000D02*
X119720000Y-97155000D01*
X118620000Y-90525000D02*
X118620000Y-90795000D01*
X117120000Y-97425000D02*
X118620000Y-97425000D01*
X118620000Y-97425000D02*
X118620000Y-97155000D01*
X118620000Y-90795000D02*
X121450000Y-90795000D01*
X117120000Y-90525000D02*
X118620000Y-90525000D01*
%TO.C,D2*%
X124232944Y-92246491D02*
X126629160Y-91374340D01*
X124814378Y-93843969D02*
X124232944Y-92246491D01*
X124814378Y-93843969D02*
X127210594Y-92971818D01*
%TD*%
M02*
