%TF.GenerationSoftware,KiCad,Pcbnew,6.0.2+dfsg-1*%
%TF.CreationDate,2025-02-24T10:06:26+01:00*%
%TF.ProjectId,RS232-to-CCtalk-converter,52533233-322d-4746-9f2d-434374616c6b,rev?*%
%TF.SameCoordinates,Original*%
%TF.FileFunction,Legend,Bot*%
%TF.FilePolarity,Positive*%
%FSLAX46Y46*%
G04 Gerber Fmt 4.6, Leading zero omitted, Abs format (unit mm)*
G04 Created by KiCad (PCBNEW 6.0.2+dfsg-1) date 2025-02-24 10:06:26*
%MOMM*%
%LPD*%
G01*
G04 APERTURE LIST*
%ADD10C,0.100000*%
%ADD11C,0.150000*%
%ADD12C,0.300000*%
%ADD13C,0.400000*%
%ADD14C,0.125000*%
%ADD15C,0.120000*%
G04 APERTURE END LIST*
D10*
D11*
X177002200Y-166007200D02*
X177002200Y-198007200D01*
X285002200Y-198007200D01*
X285002200Y-166007200D01*
X177002200Y-166007200D01*
D10*
D11*
X10000000Y-10000000D02*
X10000000Y-200007200D01*
X287002200Y-200007200D01*
X287002200Y-10000000D01*
X10000000Y-10000000D01*
D10*
D11*
X12000000Y-12000000D02*
X12000000Y-198007200D01*
X285002200Y-198007200D01*
X285002200Y-12000000D01*
X12000000Y-12000000D01*
D10*
D11*
X60000000Y-12000000D02*
X60000000Y-10000000D01*
D10*
D11*
X110000000Y-12000000D02*
X110000000Y-10000000D01*
D10*
D11*
X160000000Y-12000000D02*
X160000000Y-10000000D01*
D10*
D11*
X210000000Y-12000000D02*
X210000000Y-10000000D01*
D10*
D11*
X260000000Y-12000000D02*
X260000000Y-10000000D01*
D10*
D11*
X36065476Y-11588095D02*
X35322619Y-11588095D01*
X35694047Y-11588095D02*
X35694047Y-10288095D01*
X35570238Y-10473809D01*
X35446428Y-10597619D01*
X35322619Y-10659523D01*
D10*
D11*
X85322619Y-10411904D02*
X85384523Y-10350000D01*
X85508333Y-10288095D01*
X85817857Y-10288095D01*
X85941666Y-10350000D01*
X86003571Y-10411904D01*
X86065476Y-10535714D01*
X86065476Y-10659523D01*
X86003571Y-10845238D01*
X85260714Y-11588095D01*
X86065476Y-11588095D01*
D10*
D11*
X135260714Y-10288095D02*
X136065476Y-10288095D01*
X135632142Y-10783333D01*
X135817857Y-10783333D01*
X135941666Y-10845238D01*
X136003571Y-10907142D01*
X136065476Y-11030952D01*
X136065476Y-11340476D01*
X136003571Y-11464285D01*
X135941666Y-11526190D01*
X135817857Y-11588095D01*
X135446428Y-11588095D01*
X135322619Y-11526190D01*
X135260714Y-11464285D01*
D10*
D11*
X185941666Y-10721428D02*
X185941666Y-11588095D01*
X185632142Y-10226190D02*
X185322619Y-11154761D01*
X186127380Y-11154761D01*
D10*
D11*
X236003571Y-10288095D02*
X235384523Y-10288095D01*
X235322619Y-10907142D01*
X235384523Y-10845238D01*
X235508333Y-10783333D01*
X235817857Y-10783333D01*
X235941666Y-10845238D01*
X236003571Y-10907142D01*
X236065476Y-11030952D01*
X236065476Y-11340476D01*
X236003571Y-11464285D01*
X235941666Y-11526190D01*
X235817857Y-11588095D01*
X235508333Y-11588095D01*
X235384523Y-11526190D01*
X235322619Y-11464285D01*
D10*
D11*
X285941666Y-10288095D02*
X285694047Y-10288095D01*
X285570238Y-10350000D01*
X285508333Y-10411904D01*
X285384523Y-10597619D01*
X285322619Y-10845238D01*
X285322619Y-11340476D01*
X285384523Y-11464285D01*
X285446428Y-11526190D01*
X285570238Y-11588095D01*
X285817857Y-11588095D01*
X285941666Y-11526190D01*
X286003571Y-11464285D01*
X286065476Y-11340476D01*
X286065476Y-11030952D01*
X286003571Y-10907142D01*
X285941666Y-10845238D01*
X285817857Y-10783333D01*
X285570238Y-10783333D01*
X285446428Y-10845238D01*
X285384523Y-10907142D01*
X285322619Y-11030952D01*
D10*
D11*
X60000000Y-198007200D02*
X60000000Y-200007200D01*
D10*
D11*
X110000000Y-198007200D02*
X110000000Y-200007200D01*
D10*
D11*
X160000000Y-198007200D02*
X160000000Y-200007200D01*
D10*
D11*
X210000000Y-198007200D02*
X210000000Y-200007200D01*
D10*
D11*
X260000000Y-198007200D02*
X260000000Y-200007200D01*
D10*
D11*
X36065476Y-199595295D02*
X35322619Y-199595295D01*
X35694047Y-199595295D02*
X35694047Y-198295295D01*
X35570238Y-198481009D01*
X35446428Y-198604819D01*
X35322619Y-198666723D01*
D10*
D11*
X85322619Y-198419104D02*
X85384523Y-198357200D01*
X85508333Y-198295295D01*
X85817857Y-198295295D01*
X85941666Y-198357200D01*
X86003571Y-198419104D01*
X86065476Y-198542914D01*
X86065476Y-198666723D01*
X86003571Y-198852438D01*
X85260714Y-199595295D01*
X86065476Y-199595295D01*
D10*
D11*
X135260714Y-198295295D02*
X136065476Y-198295295D01*
X135632142Y-198790533D01*
X135817857Y-198790533D01*
X135941666Y-198852438D01*
X136003571Y-198914342D01*
X136065476Y-199038152D01*
X136065476Y-199347676D01*
X136003571Y-199471485D01*
X135941666Y-199533390D01*
X135817857Y-199595295D01*
X135446428Y-199595295D01*
X135322619Y-199533390D01*
X135260714Y-199471485D01*
D10*
D11*
X185941666Y-198728628D02*
X185941666Y-199595295D01*
X185632142Y-198233390D02*
X185322619Y-199161961D01*
X186127380Y-199161961D01*
D10*
D11*
X236003571Y-198295295D02*
X235384523Y-198295295D01*
X235322619Y-198914342D01*
X235384523Y-198852438D01*
X235508333Y-198790533D01*
X235817857Y-198790533D01*
X235941666Y-198852438D01*
X236003571Y-198914342D01*
X236065476Y-199038152D01*
X236065476Y-199347676D01*
X236003571Y-199471485D01*
X235941666Y-199533390D01*
X235817857Y-199595295D01*
X235508333Y-199595295D01*
X235384523Y-199533390D01*
X235322619Y-199471485D01*
D10*
D11*
X285941666Y-198295295D02*
X285694047Y-198295295D01*
X285570238Y-198357200D01*
X285508333Y-198419104D01*
X285384523Y-198604819D01*
X285322619Y-198852438D01*
X285322619Y-199347676D01*
X285384523Y-199471485D01*
X285446428Y-199533390D01*
X285570238Y-199595295D01*
X285817857Y-199595295D01*
X285941666Y-199533390D01*
X286003571Y-199471485D01*
X286065476Y-199347676D01*
X286065476Y-199038152D01*
X286003571Y-198914342D01*
X285941666Y-198852438D01*
X285817857Y-198790533D01*
X285570238Y-198790533D01*
X285446428Y-198852438D01*
X285384523Y-198914342D01*
X285322619Y-199038152D01*
D10*
D11*
X10000000Y-60000000D02*
X12000000Y-60000000D01*
D10*
D11*
X10000000Y-110000000D02*
X12000000Y-110000000D01*
D10*
D11*
X10000000Y-160000000D02*
X12000000Y-160000000D01*
D10*
D11*
X10690476Y-35216666D02*
X11309523Y-35216666D01*
X10566666Y-35588095D02*
X11000000Y-34288095D01*
X11433333Y-35588095D01*
D10*
D11*
X11092857Y-84907142D02*
X11278571Y-84969047D01*
X11340476Y-85030952D01*
X11402380Y-85154761D01*
X11402380Y-85340476D01*
X11340476Y-85464285D01*
X11278571Y-85526190D01*
X11154761Y-85588095D01*
X10659523Y-85588095D01*
X10659523Y-84288095D01*
X11092857Y-84288095D01*
X11216666Y-84350000D01*
X11278571Y-84411904D01*
X11340476Y-84535714D01*
X11340476Y-84659523D01*
X11278571Y-84783333D01*
X11216666Y-84845238D01*
X11092857Y-84907142D01*
X10659523Y-84907142D01*
D10*
D11*
X11402380Y-135464285D02*
X11340476Y-135526190D01*
X11154761Y-135588095D01*
X11030952Y-135588095D01*
X10845238Y-135526190D01*
X10721428Y-135402380D01*
X10659523Y-135278571D01*
X10597619Y-135030952D01*
X10597619Y-134845238D01*
X10659523Y-134597619D01*
X10721428Y-134473809D01*
X10845238Y-134350000D01*
X11030952Y-134288095D01*
X11154761Y-134288095D01*
X11340476Y-134350000D01*
X11402380Y-134411904D01*
D10*
D11*
X10659523Y-185588095D02*
X10659523Y-184288095D01*
X10969047Y-184288095D01*
X11154761Y-184350000D01*
X11278571Y-184473809D01*
X11340476Y-184597619D01*
X11402380Y-184845238D01*
X11402380Y-185030952D01*
X11340476Y-185278571D01*
X11278571Y-185402380D01*
X11154761Y-185526190D01*
X10969047Y-185588095D01*
X10659523Y-185588095D01*
D10*
D11*
X287002200Y-60000000D02*
X285002200Y-60000000D01*
D10*
D11*
X287002200Y-110000000D02*
X285002200Y-110000000D01*
D10*
D11*
X287002200Y-160000000D02*
X285002200Y-160000000D01*
D10*
D11*
X285692676Y-35216666D02*
X286311723Y-35216666D01*
X285568866Y-35588095D02*
X286002200Y-34288095D01*
X286435533Y-35588095D01*
D10*
D11*
X286095057Y-84907142D02*
X286280771Y-84969047D01*
X286342676Y-85030952D01*
X286404580Y-85154761D01*
X286404580Y-85340476D01*
X286342676Y-85464285D01*
X286280771Y-85526190D01*
X286156961Y-85588095D01*
X285661723Y-85588095D01*
X285661723Y-84288095D01*
X286095057Y-84288095D01*
X286218866Y-84350000D01*
X286280771Y-84411904D01*
X286342676Y-84535714D01*
X286342676Y-84659523D01*
X286280771Y-84783333D01*
X286218866Y-84845238D01*
X286095057Y-84907142D01*
X285661723Y-84907142D01*
D10*
D11*
X286404580Y-135464285D02*
X286342676Y-135526190D01*
X286156961Y-135588095D01*
X286033152Y-135588095D01*
X285847438Y-135526190D01*
X285723628Y-135402380D01*
X285661723Y-135278571D01*
X285599819Y-135030952D01*
X285599819Y-134845238D01*
X285661723Y-134597619D01*
X285723628Y-134473809D01*
X285847438Y-134350000D01*
X286033152Y-134288095D01*
X286156961Y-134288095D01*
X286342676Y-134350000D01*
X286404580Y-134411904D01*
D10*
D11*
X285661723Y-185588095D02*
X285661723Y-184288095D01*
X285971247Y-184288095D01*
X286156961Y-184350000D01*
X286280771Y-184473809D01*
X286342676Y-184597619D01*
X286404580Y-184845238D01*
X286404580Y-185030952D01*
X286342676Y-185278571D01*
X286280771Y-185402380D01*
X286156961Y-185526190D01*
X285971247Y-185588095D01*
X285661723Y-185588095D01*
D10*
D11*
X200434342Y-193785771D02*
X200434342Y-192285771D01*
X200791485Y-192285771D01*
X201005771Y-192357200D01*
X201148628Y-192500057D01*
X201220057Y-192642914D01*
X201291485Y-192928628D01*
X201291485Y-193142914D01*
X201220057Y-193428628D01*
X201148628Y-193571485D01*
X201005771Y-193714342D01*
X200791485Y-193785771D01*
X200434342Y-193785771D01*
X202577200Y-193785771D02*
X202577200Y-193000057D01*
X202505771Y-192857200D01*
X202362914Y-192785771D01*
X202077200Y-192785771D01*
X201934342Y-192857200D01*
X202577200Y-193714342D02*
X202434342Y-193785771D01*
X202077200Y-193785771D01*
X201934342Y-193714342D01*
X201862914Y-193571485D01*
X201862914Y-193428628D01*
X201934342Y-193285771D01*
X202077200Y-193214342D01*
X202434342Y-193214342D01*
X202577200Y-193142914D01*
X203077200Y-192785771D02*
X203648628Y-192785771D01*
X203291485Y-192285771D02*
X203291485Y-193571485D01*
X203362914Y-193714342D01*
X203505771Y-193785771D01*
X203648628Y-193785771D01*
X204720057Y-193714342D02*
X204577200Y-193785771D01*
X204291485Y-193785771D01*
X204148628Y-193714342D01*
X204077200Y-193571485D01*
X204077200Y-193000057D01*
X204148628Y-192857200D01*
X204291485Y-192785771D01*
X204577200Y-192785771D01*
X204720057Y-192857200D01*
X204791485Y-193000057D01*
X204791485Y-193142914D01*
X204077200Y-193285771D01*
X205434342Y-193642914D02*
X205505771Y-193714342D01*
X205434342Y-193785771D01*
X205362914Y-193714342D01*
X205434342Y-193642914D01*
X205434342Y-193785771D01*
X205434342Y-192857200D02*
X205505771Y-192928628D01*
X205434342Y-193000057D01*
X205362914Y-192928628D01*
X205434342Y-192857200D01*
X205434342Y-193000057D01*
D10*
D11*
X177002200Y-194507200D02*
X285002200Y-194507200D01*
D10*
D11*
X178434342Y-196585771D02*
X178434342Y-195085771D01*
X179291485Y-196585771D02*
X178648628Y-195728628D01*
X179291485Y-195085771D02*
X178434342Y-195942914D01*
X179934342Y-196585771D02*
X179934342Y-195585771D01*
X179934342Y-195085771D02*
X179862914Y-195157200D01*
X179934342Y-195228628D01*
X180005771Y-195157200D01*
X179934342Y-195085771D01*
X179934342Y-195228628D01*
X181505771Y-196442914D02*
X181434342Y-196514342D01*
X181220057Y-196585771D01*
X181077200Y-196585771D01*
X180862914Y-196514342D01*
X180720057Y-196371485D01*
X180648628Y-196228628D01*
X180577200Y-195942914D01*
X180577200Y-195728628D01*
X180648628Y-195442914D01*
X180720057Y-195300057D01*
X180862914Y-195157200D01*
X181077200Y-195085771D01*
X181220057Y-195085771D01*
X181434342Y-195157200D01*
X181505771Y-195228628D01*
X182791485Y-196585771D02*
X182791485Y-195800057D01*
X182720057Y-195657200D01*
X182577200Y-195585771D01*
X182291485Y-195585771D01*
X182148628Y-195657200D01*
X182791485Y-196514342D02*
X182648628Y-196585771D01*
X182291485Y-196585771D01*
X182148628Y-196514342D01*
X182077200Y-196371485D01*
X182077200Y-196228628D01*
X182148628Y-196085771D01*
X182291485Y-196014342D01*
X182648628Y-196014342D01*
X182791485Y-195942914D01*
X184148628Y-196585771D02*
X184148628Y-195085771D01*
X184148628Y-196514342D02*
X184005771Y-196585771D01*
X183720057Y-196585771D01*
X183577200Y-196514342D01*
X183505771Y-196442914D01*
X183434342Y-196300057D01*
X183434342Y-195871485D01*
X183505771Y-195728628D01*
X183577200Y-195657200D01*
X183720057Y-195585771D01*
X184005771Y-195585771D01*
X184148628Y-195657200D01*
X186005771Y-195800057D02*
X186505771Y-195800057D01*
X186720057Y-196585771D02*
X186005771Y-196585771D01*
X186005771Y-195085771D01*
X186720057Y-195085771D01*
X187362914Y-196442914D02*
X187434342Y-196514342D01*
X187362914Y-196585771D01*
X187291485Y-196514342D01*
X187362914Y-196442914D01*
X187362914Y-196585771D01*
X188077200Y-196585771D02*
X188077200Y-195085771D01*
X188434342Y-195085771D01*
X188648628Y-195157200D01*
X188791485Y-195300057D01*
X188862914Y-195442914D01*
X188934342Y-195728628D01*
X188934342Y-195942914D01*
X188862914Y-196228628D01*
X188791485Y-196371485D01*
X188648628Y-196514342D01*
X188434342Y-196585771D01*
X188077200Y-196585771D01*
X189577200Y-196442914D02*
X189648628Y-196514342D01*
X189577200Y-196585771D01*
X189505771Y-196514342D01*
X189577200Y-196442914D01*
X189577200Y-196585771D01*
X190220057Y-196157200D02*
X190934342Y-196157200D01*
X190077200Y-196585771D02*
X190577200Y-195085771D01*
X191077200Y-196585771D01*
X191577200Y-196442914D02*
X191648628Y-196514342D01*
X191577200Y-196585771D01*
X191505771Y-196514342D01*
X191577200Y-196442914D01*
X191577200Y-196585771D01*
X194577200Y-196585771D02*
X194577200Y-195085771D01*
X194720057Y-196014342D02*
X195148628Y-196585771D01*
X195148628Y-195585771D02*
X194577200Y-196157200D01*
X195791485Y-196585771D02*
X195791485Y-195585771D01*
X195791485Y-195085771D02*
X195720057Y-195157200D01*
X195791485Y-195228628D01*
X195862914Y-195157200D01*
X195791485Y-195085771D01*
X195791485Y-195228628D01*
X197148628Y-196514342D02*
X197005771Y-196585771D01*
X196720057Y-196585771D01*
X196577200Y-196514342D01*
X196505771Y-196442914D01*
X196434342Y-196300057D01*
X196434342Y-195871485D01*
X196505771Y-195728628D01*
X196577200Y-195657200D01*
X196720057Y-195585771D01*
X197005771Y-195585771D01*
X197148628Y-195657200D01*
X198434342Y-196585771D02*
X198434342Y-195800057D01*
X198362914Y-195657200D01*
X198220057Y-195585771D01*
X197934342Y-195585771D01*
X197791485Y-195657200D01*
X198434342Y-196514342D02*
X198291485Y-196585771D01*
X197934342Y-196585771D01*
X197791485Y-196514342D01*
X197720057Y-196371485D01*
X197720057Y-196228628D01*
X197791485Y-196085771D01*
X197934342Y-196014342D01*
X198291485Y-196014342D01*
X198434342Y-195942914D01*
X199791485Y-196585771D02*
X199791485Y-195085771D01*
X199791485Y-196514342D02*
X199648628Y-196585771D01*
X199362914Y-196585771D01*
X199220057Y-196514342D01*
X199148628Y-196442914D01*
X199077200Y-196300057D01*
X199077200Y-195871485D01*
X199148628Y-195728628D01*
X199220057Y-195657200D01*
X199362914Y-195585771D01*
X199648628Y-195585771D01*
X199791485Y-195657200D01*
X202291485Y-195085771D02*
X202005771Y-195085771D01*
X201862914Y-195157200D01*
X201791485Y-195228628D01*
X201648628Y-195442914D01*
X201577200Y-195728628D01*
X201577200Y-196300057D01*
X201648628Y-196442914D01*
X201720057Y-196514342D01*
X201862914Y-196585771D01*
X202148628Y-196585771D01*
X202291485Y-196514342D01*
X202362914Y-196442914D01*
X202434342Y-196300057D01*
X202434342Y-195942914D01*
X202362914Y-195800057D01*
X202291485Y-195728628D01*
X202148628Y-195657200D01*
X201862914Y-195657200D01*
X201720057Y-195728628D01*
X201648628Y-195800057D01*
X201577200Y-195942914D01*
X203077200Y-196442914D02*
X203148628Y-196514342D01*
X203077200Y-196585771D01*
X203005771Y-196514342D01*
X203077200Y-196442914D01*
X203077200Y-196585771D01*
X204077200Y-195085771D02*
X204220057Y-195085771D01*
X204362914Y-195157200D01*
X204434342Y-195228628D01*
X204505771Y-195371485D01*
X204577200Y-195657200D01*
X204577200Y-196014342D01*
X204505771Y-196300057D01*
X204434342Y-196442914D01*
X204362914Y-196514342D01*
X204220057Y-196585771D01*
X204077200Y-196585771D01*
X203934342Y-196514342D01*
X203862914Y-196442914D01*
X203791485Y-196300057D01*
X203720057Y-196014342D01*
X203720057Y-195657200D01*
X203791485Y-195371485D01*
X203862914Y-195228628D01*
X203934342Y-195157200D01*
X204077200Y-195085771D01*
X205220057Y-196442914D02*
X205291485Y-196514342D01*
X205220057Y-196585771D01*
X205148628Y-196514342D01*
X205220057Y-196442914D01*
X205220057Y-196585771D01*
X205862914Y-195228628D02*
X205934342Y-195157200D01*
X206077200Y-195085771D01*
X206434342Y-195085771D01*
X206577200Y-195157200D01*
X206648628Y-195228628D01*
X206720057Y-195371485D01*
X206720057Y-195514342D01*
X206648628Y-195728628D01*
X205791485Y-196585771D01*
X206720057Y-196585771D01*
X207362914Y-196014342D02*
X208505771Y-196014342D01*
X207934342Y-196585771D02*
X207934342Y-195442914D01*
X209862914Y-196585771D02*
X209862914Y-195085771D01*
X209862914Y-196514342D02*
X209720057Y-196585771D01*
X209434342Y-196585771D01*
X209291485Y-196514342D01*
X209220057Y-196442914D01*
X209148628Y-196300057D01*
X209148628Y-195871485D01*
X209220057Y-195728628D01*
X209291485Y-195657200D01*
X209434342Y-195585771D01*
X209720057Y-195585771D01*
X209862914Y-195657200D01*
X210362914Y-195585771D02*
X210934342Y-195585771D01*
X210577200Y-196585771D02*
X210577200Y-195300057D01*
X210648628Y-195157200D01*
X210791485Y-195085771D01*
X210934342Y-195085771D01*
X211362914Y-196514342D02*
X211505771Y-196585771D01*
X211791485Y-196585771D01*
X211934342Y-196514342D01*
X212005771Y-196371485D01*
X212005771Y-196300057D01*
X211934342Y-196157200D01*
X211791485Y-196085771D01*
X211577200Y-196085771D01*
X211434342Y-196014342D01*
X211362914Y-195871485D01*
X211362914Y-195800057D01*
X211434342Y-195657200D01*
X211577200Y-195585771D01*
X211791485Y-195585771D01*
X211934342Y-195657200D01*
X213291485Y-195585771D02*
X213291485Y-196800057D01*
X213220057Y-196942914D01*
X213148628Y-197014342D01*
X213005771Y-197085771D01*
X212791485Y-197085771D01*
X212648628Y-197014342D01*
X213291485Y-196514342D02*
X213148628Y-196585771D01*
X212862914Y-196585771D01*
X212720057Y-196514342D01*
X212648628Y-196442914D01*
X212577200Y-196300057D01*
X212577200Y-195871485D01*
X212648628Y-195728628D01*
X212720057Y-195657200D01*
X212862914Y-195585771D01*
X213148628Y-195585771D01*
X213291485Y-195657200D01*
X214005771Y-196014342D02*
X215148628Y-196014342D01*
X216648628Y-196585771D02*
X215791485Y-196585771D01*
X216220057Y-196585771D02*
X216220057Y-195085771D01*
X216077200Y-195300057D01*
X215934342Y-195442914D01*
X215791485Y-195514342D01*
D10*
D11*
X177002200Y-191507200D02*
X285002200Y-191507200D01*
D10*
D12*
X264411485Y-193785771D02*
X263911485Y-193071485D01*
X263554342Y-193785771D02*
X263554342Y-192285771D01*
X264125771Y-192285771D01*
X264268628Y-192357200D01*
X264340057Y-192428628D01*
X264411485Y-192571485D01*
X264411485Y-192785771D01*
X264340057Y-192928628D01*
X264268628Y-193000057D01*
X264125771Y-193071485D01*
X263554342Y-193071485D01*
X265625771Y-193714342D02*
X265482914Y-193785771D01*
X265197200Y-193785771D01*
X265054342Y-193714342D01*
X264982914Y-193571485D01*
X264982914Y-193000057D01*
X265054342Y-192857200D01*
X265197200Y-192785771D01*
X265482914Y-192785771D01*
X265625771Y-192857200D01*
X265697200Y-193000057D01*
X265697200Y-193142914D01*
X264982914Y-193285771D01*
X266197200Y-192785771D02*
X266554342Y-193785771D01*
X266911485Y-192785771D01*
X267482914Y-193642914D02*
X267554342Y-193714342D01*
X267482914Y-193785771D01*
X267411485Y-193714342D01*
X267482914Y-193642914D01*
X267482914Y-193785771D01*
X267482914Y-192857200D02*
X267554342Y-192928628D01*
X267482914Y-193000057D01*
X267411485Y-192928628D01*
X267482914Y-192857200D01*
X267482914Y-193000057D01*
D10*
D11*
X178362914Y-193714342D02*
X178577200Y-193785771D01*
X178934342Y-193785771D01*
X179077200Y-193714342D01*
X179148628Y-193642914D01*
X179220057Y-193500057D01*
X179220057Y-193357200D01*
X179148628Y-193214342D01*
X179077200Y-193142914D01*
X178934342Y-193071485D01*
X178648628Y-193000057D01*
X178505771Y-192928628D01*
X178434342Y-192857200D01*
X178362914Y-192714342D01*
X178362914Y-192571485D01*
X178434342Y-192428628D01*
X178505771Y-192357200D01*
X178648628Y-192285771D01*
X179005771Y-192285771D01*
X179220057Y-192357200D01*
X179862914Y-193785771D02*
X179862914Y-192785771D01*
X179862914Y-192285771D02*
X179791485Y-192357200D01*
X179862914Y-192428628D01*
X179934342Y-192357200D01*
X179862914Y-192285771D01*
X179862914Y-192428628D01*
X180434342Y-192785771D02*
X181220057Y-192785771D01*
X180434342Y-193785771D01*
X181220057Y-193785771D01*
X182362914Y-193714342D02*
X182220057Y-193785771D01*
X181934342Y-193785771D01*
X181791485Y-193714342D01*
X181720057Y-193571485D01*
X181720057Y-193000057D01*
X181791485Y-192857200D01*
X181934342Y-192785771D01*
X182220057Y-192785771D01*
X182362914Y-192857200D01*
X182434342Y-193000057D01*
X182434342Y-193142914D01*
X181720057Y-193285771D01*
X183077200Y-193642914D02*
X183148628Y-193714342D01*
X183077200Y-193785771D01*
X183005771Y-193714342D01*
X183077200Y-193642914D01*
X183077200Y-193785771D01*
X183077200Y-192857200D02*
X183148628Y-192928628D01*
X183077200Y-193000057D01*
X183005771Y-192928628D01*
X183077200Y-192857200D01*
X183077200Y-193000057D01*
X184862914Y-193357200D02*
X185577200Y-193357200D01*
X184720057Y-193785771D02*
X185220057Y-192285771D01*
X185720057Y-193785771D01*
X186862914Y-192785771D02*
X186862914Y-193785771D01*
X186505771Y-192214342D02*
X186148628Y-193285771D01*
X187077200Y-193285771D01*
D10*
D11*
X263434342Y-196585771D02*
X263434342Y-195085771D01*
X264791485Y-196585771D02*
X264791485Y-195085771D01*
X264791485Y-196514342D02*
X264648628Y-196585771D01*
X264362914Y-196585771D01*
X264220057Y-196514342D01*
X264148628Y-196442914D01*
X264077200Y-196300057D01*
X264077200Y-195871485D01*
X264148628Y-195728628D01*
X264220057Y-195657200D01*
X264362914Y-195585771D01*
X264648628Y-195585771D01*
X264791485Y-195657200D01*
X265505771Y-196442914D02*
X265577200Y-196514342D01*
X265505771Y-196585771D01*
X265434342Y-196514342D01*
X265505771Y-196442914D01*
X265505771Y-196585771D01*
X265505771Y-195657200D02*
X265577200Y-195728628D01*
X265505771Y-195800057D01*
X265434342Y-195728628D01*
X265505771Y-195657200D01*
X265505771Y-195800057D01*
X268148628Y-196585771D02*
X267291485Y-196585771D01*
X267720057Y-196585771D02*
X267720057Y-195085771D01*
X267577200Y-195300057D01*
X267434342Y-195442914D01*
X267291485Y-195514342D01*
X269862914Y-195014342D02*
X268577200Y-196942914D01*
X271148628Y-196585771D02*
X270291485Y-196585771D01*
X270720057Y-196585771D02*
X270720057Y-195085771D01*
X270577200Y-195300057D01*
X270434342Y-195442914D01*
X270291485Y-195514342D01*
D10*
D11*
X177002200Y-187507200D02*
X285002200Y-187507200D01*
D10*
D13*
X178714580Y-188211961D02*
X179857438Y-188211961D01*
X179036009Y-190211961D02*
X179286009Y-188211961D01*
X180274104Y-190211961D02*
X180440771Y-188878628D01*
X180524104Y-188211961D02*
X180416961Y-188307200D01*
X180500295Y-188402438D01*
X180607438Y-188307200D01*
X180524104Y-188211961D01*
X180500295Y-188402438D01*
X181107438Y-188878628D02*
X181869342Y-188878628D01*
X181476485Y-188211961D02*
X181262200Y-189926247D01*
X181333628Y-190116723D01*
X181512200Y-190211961D01*
X181702676Y-190211961D01*
X182655057Y-190211961D02*
X182476485Y-190116723D01*
X182405057Y-189926247D01*
X182619342Y-188211961D01*
X184190771Y-190116723D02*
X183988390Y-190211961D01*
X183607438Y-190211961D01*
X183428866Y-190116723D01*
X183357438Y-189926247D01*
X183452676Y-189164342D01*
X183571723Y-188973866D01*
X183774104Y-188878628D01*
X184155057Y-188878628D01*
X184333628Y-188973866D01*
X184405057Y-189164342D01*
X184381247Y-189354819D01*
X183405057Y-189545295D01*
X185155057Y-190021485D02*
X185238390Y-190116723D01*
X185131247Y-190211961D01*
X185047914Y-190116723D01*
X185155057Y-190021485D01*
X185131247Y-190211961D01*
X185286009Y-188973866D02*
X185369342Y-189069104D01*
X185262200Y-189164342D01*
X185178866Y-189069104D01*
X185286009Y-188973866D01*
X185262200Y-189164342D01*
D10*
D11*
X178934342Y-185600057D02*
X178434342Y-185600057D01*
X178434342Y-186385771D02*
X178434342Y-184885771D01*
X179148628Y-184885771D01*
X179720057Y-186385771D02*
X179720057Y-185385771D01*
X179720057Y-184885771D02*
X179648628Y-184957200D01*
X179720057Y-185028628D01*
X179791485Y-184957200D01*
X179720057Y-184885771D01*
X179720057Y-185028628D01*
X180648628Y-186385771D02*
X180505771Y-186314342D01*
X180434342Y-186171485D01*
X180434342Y-184885771D01*
X181791485Y-186314342D02*
X181648628Y-186385771D01*
X181362914Y-186385771D01*
X181220057Y-186314342D01*
X181148628Y-186171485D01*
X181148628Y-185600057D01*
X181220057Y-185457200D01*
X181362914Y-185385771D01*
X181648628Y-185385771D01*
X181791485Y-185457200D01*
X181862914Y-185600057D01*
X181862914Y-185742914D01*
X181148628Y-185885771D01*
X182505771Y-186242914D02*
X182577200Y-186314342D01*
X182505771Y-186385771D01*
X182434342Y-186314342D01*
X182505771Y-186242914D01*
X182505771Y-186385771D01*
X182505771Y-185457200D02*
X182577200Y-185528628D01*
X182505771Y-185600057D01*
X182434342Y-185528628D01*
X182505771Y-185457200D01*
X182505771Y-185600057D01*
X185220057Y-186385771D02*
X184720057Y-185671485D01*
X184362914Y-186385771D02*
X184362914Y-184885771D01*
X184934342Y-184885771D01*
X185077200Y-184957200D01*
X185148628Y-185028628D01*
X185220057Y-185171485D01*
X185220057Y-185385771D01*
X185148628Y-185528628D01*
X185077200Y-185600057D01*
X184934342Y-185671485D01*
X184362914Y-185671485D01*
X185791485Y-186314342D02*
X186005771Y-186385771D01*
X186362914Y-186385771D01*
X186505771Y-186314342D01*
X186577200Y-186242914D01*
X186648628Y-186100057D01*
X186648628Y-185957200D01*
X186577200Y-185814342D01*
X186505771Y-185742914D01*
X186362914Y-185671485D01*
X186077200Y-185600057D01*
X185934342Y-185528628D01*
X185862914Y-185457200D01*
X185791485Y-185314342D01*
X185791485Y-185171485D01*
X185862914Y-185028628D01*
X185934342Y-184957200D01*
X186077200Y-184885771D01*
X186434342Y-184885771D01*
X186648628Y-184957200D01*
X187220057Y-185028628D02*
X187291485Y-184957200D01*
X187434342Y-184885771D01*
X187791485Y-184885771D01*
X187934342Y-184957200D01*
X188005771Y-185028628D01*
X188077200Y-185171485D01*
X188077200Y-185314342D01*
X188005771Y-185528628D01*
X187148628Y-186385771D01*
X188077200Y-186385771D01*
X188577200Y-184885771D02*
X189505771Y-184885771D01*
X189005771Y-185457200D01*
X189220057Y-185457200D01*
X189362914Y-185528628D01*
X189434342Y-185600057D01*
X189505771Y-185742914D01*
X189505771Y-186100057D01*
X189434342Y-186242914D01*
X189362914Y-186314342D01*
X189220057Y-186385771D01*
X188791485Y-186385771D01*
X188648628Y-186314342D01*
X188577200Y-186242914D01*
X190077200Y-185028628D02*
X190148628Y-184957200D01*
X190291485Y-184885771D01*
X190648628Y-184885771D01*
X190791485Y-184957200D01*
X190862914Y-185028628D01*
X190934342Y-185171485D01*
X190934342Y-185314342D01*
X190862914Y-185528628D01*
X190005771Y-186385771D01*
X190934342Y-186385771D01*
X191577200Y-185814342D02*
X192720057Y-185814342D01*
X193220057Y-185385771D02*
X193791485Y-185385771D01*
X193434342Y-184885771D02*
X193434342Y-186171485D01*
X193505771Y-186314342D01*
X193648628Y-186385771D01*
X193791485Y-186385771D01*
X194505771Y-186385771D02*
X194362914Y-186314342D01*
X194291485Y-186242914D01*
X194220057Y-186100057D01*
X194220057Y-185671485D01*
X194291485Y-185528628D01*
X194362914Y-185457200D01*
X194505771Y-185385771D01*
X194720057Y-185385771D01*
X194862914Y-185457200D01*
X194934342Y-185528628D01*
X195005771Y-185671485D01*
X195005771Y-186100057D01*
X194934342Y-186242914D01*
X194862914Y-186314342D01*
X194720057Y-186385771D01*
X194505771Y-186385771D01*
X195648628Y-185814342D02*
X196791485Y-185814342D01*
X198362914Y-186242914D02*
X198291485Y-186314342D01*
X198077200Y-186385771D01*
X197934342Y-186385771D01*
X197720057Y-186314342D01*
X197577200Y-186171485D01*
X197505771Y-186028628D01*
X197434342Y-185742914D01*
X197434342Y-185528628D01*
X197505771Y-185242914D01*
X197577200Y-185100057D01*
X197720057Y-184957200D01*
X197934342Y-184885771D01*
X198077200Y-184885771D01*
X198291485Y-184957200D01*
X198362914Y-185028628D01*
X199862914Y-186242914D02*
X199791485Y-186314342D01*
X199577200Y-186385771D01*
X199434342Y-186385771D01*
X199220057Y-186314342D01*
X199077200Y-186171485D01*
X199005771Y-186028628D01*
X198934342Y-185742914D01*
X198934342Y-185528628D01*
X199005771Y-185242914D01*
X199077200Y-185100057D01*
X199220057Y-184957200D01*
X199434342Y-184885771D01*
X199577200Y-184885771D01*
X199791485Y-184957200D01*
X199862914Y-185028628D01*
X200291485Y-185385771D02*
X200862914Y-185385771D01*
X200505771Y-184885771D02*
X200505771Y-186171485D01*
X200577200Y-186314342D01*
X200720057Y-186385771D01*
X200862914Y-186385771D01*
X202005771Y-186385771D02*
X202005771Y-185600057D01*
X201934342Y-185457200D01*
X201791485Y-185385771D01*
X201505771Y-185385771D01*
X201362914Y-185457200D01*
X202005771Y-186314342D02*
X201862914Y-186385771D01*
X201505771Y-186385771D01*
X201362914Y-186314342D01*
X201291485Y-186171485D01*
X201291485Y-186028628D01*
X201362914Y-185885771D01*
X201505771Y-185814342D01*
X201862914Y-185814342D01*
X202005771Y-185742914D01*
X202934342Y-186385771D02*
X202791485Y-186314342D01*
X202720057Y-186171485D01*
X202720057Y-184885771D01*
X203505771Y-186385771D02*
X203505771Y-184885771D01*
X203648628Y-185814342D02*
X204077200Y-186385771D01*
X204077200Y-185385771D02*
X203505771Y-185957200D01*
X204720057Y-185814342D02*
X205862914Y-185814342D01*
X207220057Y-186314342D02*
X207077200Y-186385771D01*
X206791485Y-186385771D01*
X206648628Y-186314342D01*
X206577200Y-186242914D01*
X206505771Y-186100057D01*
X206505771Y-185671485D01*
X206577200Y-185528628D01*
X206648628Y-185457200D01*
X206791485Y-185385771D01*
X207077200Y-185385771D01*
X207220057Y-185457200D01*
X208077200Y-186385771D02*
X207934342Y-186314342D01*
X207862914Y-186242914D01*
X207791485Y-186100057D01*
X207791485Y-185671485D01*
X207862914Y-185528628D01*
X207934342Y-185457200D01*
X208077200Y-185385771D01*
X208291485Y-185385771D01*
X208434342Y-185457200D01*
X208505771Y-185528628D01*
X208577200Y-185671485D01*
X208577200Y-186100057D01*
X208505771Y-186242914D01*
X208434342Y-186314342D01*
X208291485Y-186385771D01*
X208077200Y-186385771D01*
X209220057Y-185385771D02*
X209220057Y-186385771D01*
X209220057Y-185528628D02*
X209291485Y-185457200D01*
X209434342Y-185385771D01*
X209648628Y-185385771D01*
X209791485Y-185457200D01*
X209862914Y-185600057D01*
X209862914Y-186385771D01*
X210434342Y-185385771D02*
X210791485Y-186385771D01*
X211148628Y-185385771D01*
X212291485Y-186314342D02*
X212148628Y-186385771D01*
X211862914Y-186385771D01*
X211720057Y-186314342D01*
X211648628Y-186171485D01*
X211648628Y-185600057D01*
X211720057Y-185457200D01*
X211862914Y-185385771D01*
X212148628Y-185385771D01*
X212291485Y-185457200D01*
X212362914Y-185600057D01*
X212362914Y-185742914D01*
X211648628Y-185885771D01*
X213005771Y-186385771D02*
X213005771Y-185385771D01*
X213005771Y-185671485D02*
X213077200Y-185528628D01*
X213148628Y-185457200D01*
X213291485Y-185385771D01*
X213434342Y-185385771D01*
X213720057Y-185385771D02*
X214291485Y-185385771D01*
X213934342Y-184885771D02*
X213934342Y-186171485D01*
X214005771Y-186314342D01*
X214148628Y-186385771D01*
X214291485Y-186385771D01*
X215362914Y-186314342D02*
X215220057Y-186385771D01*
X214934342Y-186385771D01*
X214791485Y-186314342D01*
X214720057Y-186171485D01*
X214720057Y-185600057D01*
X214791485Y-185457200D01*
X214934342Y-185385771D01*
X215220057Y-185385771D01*
X215362914Y-185457200D01*
X215434342Y-185600057D01*
X215434342Y-185742914D01*
X214720057Y-185885771D01*
X216077200Y-186385771D02*
X216077200Y-185385771D01*
X216077200Y-185671485D02*
X216148628Y-185528628D01*
X216220057Y-185457200D01*
X216362914Y-185385771D01*
X216505771Y-185385771D01*
X217005771Y-186242914D02*
X217077200Y-186314342D01*
X217005771Y-186385771D01*
X216934342Y-186314342D01*
X217005771Y-186242914D01*
X217005771Y-186385771D01*
X217720057Y-186385771D02*
X217720057Y-184885771D01*
X217862914Y-185814342D02*
X218291485Y-186385771D01*
X218291485Y-185385771D02*
X217720057Y-185957200D01*
X218934342Y-186385771D02*
X218934342Y-185385771D01*
X218934342Y-184885771D02*
X218862914Y-184957200D01*
X218934342Y-185028628D01*
X219005771Y-184957200D01*
X218934342Y-184885771D01*
X218934342Y-185028628D01*
X220291485Y-186314342D02*
X220148628Y-186385771D01*
X219862914Y-186385771D01*
X219720057Y-186314342D01*
X219648628Y-186242914D01*
X219577200Y-186100057D01*
X219577200Y-185671485D01*
X219648628Y-185528628D01*
X219720057Y-185457200D01*
X219862914Y-185385771D01*
X220148628Y-185385771D01*
X220291485Y-185457200D01*
X221577200Y-186385771D02*
X221577200Y-185600057D01*
X221505771Y-185457200D01*
X221362914Y-185385771D01*
X221077200Y-185385771D01*
X220934342Y-185457200D01*
X221577200Y-186314342D02*
X221434342Y-186385771D01*
X221077200Y-186385771D01*
X220934342Y-186314342D01*
X220862914Y-186171485D01*
X220862914Y-186028628D01*
X220934342Y-185885771D01*
X221077200Y-185814342D01*
X221434342Y-185814342D01*
X221577200Y-185742914D01*
X222934342Y-186385771D02*
X222934342Y-184885771D01*
X222934342Y-186314342D02*
X222791485Y-186385771D01*
X222505771Y-186385771D01*
X222362914Y-186314342D01*
X222291485Y-186242914D01*
X222220057Y-186100057D01*
X222220057Y-185671485D01*
X222291485Y-185528628D01*
X222362914Y-185457200D01*
X222505771Y-185385771D01*
X222791485Y-185385771D01*
X222934342Y-185457200D01*
X223291485Y-186528628D02*
X224434342Y-186528628D01*
X224791485Y-185385771D02*
X224791485Y-186885771D01*
X224791485Y-185457200D02*
X224934342Y-185385771D01*
X225220057Y-185385771D01*
X225362914Y-185457200D01*
X225434342Y-185528628D01*
X225505771Y-185671485D01*
X225505771Y-186100057D01*
X225434342Y-186242914D01*
X225362914Y-186314342D01*
X225220057Y-186385771D01*
X224934342Y-186385771D01*
X224791485Y-186314342D01*
X226791485Y-186314342D02*
X226648628Y-186385771D01*
X226362914Y-186385771D01*
X226220057Y-186314342D01*
X226148628Y-186242914D01*
X226077200Y-186100057D01*
X226077200Y-185671485D01*
X226148628Y-185528628D01*
X226220057Y-185457200D01*
X226362914Y-185385771D01*
X226648628Y-185385771D01*
X226791485Y-185457200D01*
X227434342Y-186385771D02*
X227434342Y-184885771D01*
X227434342Y-185457200D02*
X227577200Y-185385771D01*
X227862914Y-185385771D01*
X228005771Y-185457200D01*
X228077200Y-185528628D01*
X228148628Y-185671485D01*
X228148628Y-186100057D01*
X228077200Y-186242914D01*
X228005771Y-186314342D01*
X227862914Y-186385771D01*
X227577200Y-186385771D01*
X227434342Y-186314342D01*
D10*
D11*
X177002200Y-181507200D02*
X285002200Y-181507200D01*
D10*
D11*
X178362914Y-183614342D02*
X178577200Y-183685771D01*
X178934342Y-183685771D01*
X179077200Y-183614342D01*
X179148628Y-183542914D01*
X179220057Y-183400057D01*
X179220057Y-183257200D01*
X179148628Y-183114342D01*
X179077200Y-183042914D01*
X178934342Y-182971485D01*
X178648628Y-182900057D01*
X178505771Y-182828628D01*
X178434342Y-182757200D01*
X178362914Y-182614342D01*
X178362914Y-182471485D01*
X178434342Y-182328628D01*
X178505771Y-182257200D01*
X178648628Y-182185771D01*
X179005771Y-182185771D01*
X179220057Y-182257200D01*
X179862914Y-183685771D02*
X179862914Y-182185771D01*
X180505771Y-183685771D02*
X180505771Y-182900057D01*
X180434342Y-182757200D01*
X180291485Y-182685771D01*
X180077200Y-182685771D01*
X179934342Y-182757200D01*
X179862914Y-182828628D01*
X181791485Y-183614342D02*
X181648628Y-183685771D01*
X181362914Y-183685771D01*
X181220057Y-183614342D01*
X181148628Y-183471485D01*
X181148628Y-182900057D01*
X181220057Y-182757200D01*
X181362914Y-182685771D01*
X181648628Y-182685771D01*
X181791485Y-182757200D01*
X181862914Y-182900057D01*
X181862914Y-183042914D01*
X181148628Y-183185771D01*
X183077200Y-183614342D02*
X182934342Y-183685771D01*
X182648628Y-183685771D01*
X182505771Y-183614342D01*
X182434342Y-183471485D01*
X182434342Y-182900057D01*
X182505771Y-182757200D01*
X182648628Y-182685771D01*
X182934342Y-182685771D01*
X183077200Y-182757200D01*
X183148628Y-182900057D01*
X183148628Y-183042914D01*
X182434342Y-183185771D01*
X183577200Y-182685771D02*
X184148628Y-182685771D01*
X183791485Y-182185771D02*
X183791485Y-183471485D01*
X183862914Y-183614342D01*
X184005771Y-183685771D01*
X184148628Y-183685771D01*
X184648628Y-183542914D02*
X184720057Y-183614342D01*
X184648628Y-183685771D01*
X184577200Y-183614342D01*
X184648628Y-183542914D01*
X184648628Y-183685771D01*
X184648628Y-182757200D02*
X184720057Y-182828628D01*
X184648628Y-182900057D01*
X184577200Y-182828628D01*
X184648628Y-182757200D01*
X184648628Y-182900057D01*
D10*
D12*
D10*
D11*
D10*
D11*
D10*
D11*
D10*
D11*
D10*
D11*
X197002200Y-191507200D02*
X197002200Y-194507200D01*
D10*
D11*
X261002200Y-191507200D02*
X261002200Y-198007200D01*
D14*
%TO.C,C8*%
X116935133Y-99920171D02*
X116958942Y-99943980D01*
X117030371Y-99967790D01*
X117077990Y-99967790D01*
X117149419Y-99943980D01*
X117197038Y-99896361D01*
X117220847Y-99848742D01*
X117244657Y-99753504D01*
X117244657Y-99682076D01*
X117220847Y-99586838D01*
X117197038Y-99539219D01*
X117149419Y-99491600D01*
X117077990Y-99467790D01*
X117030371Y-99467790D01*
X116958942Y-99491600D01*
X116935133Y-99515409D01*
X116649419Y-99682076D02*
X116697038Y-99658266D01*
X116720847Y-99634457D01*
X116744657Y-99586838D01*
X116744657Y-99563028D01*
X116720847Y-99515409D01*
X116697038Y-99491600D01*
X116649419Y-99467790D01*
X116554180Y-99467790D01*
X116506561Y-99491600D01*
X116482752Y-99515409D01*
X116458942Y-99563028D01*
X116458942Y-99586838D01*
X116482752Y-99634457D01*
X116506561Y-99658266D01*
X116554180Y-99682076D01*
X116649419Y-99682076D01*
X116697038Y-99705885D01*
X116720847Y-99729695D01*
X116744657Y-99777314D01*
X116744657Y-99872552D01*
X116720847Y-99920171D01*
X116697038Y-99943980D01*
X116649419Y-99967790D01*
X116554180Y-99967790D01*
X116506561Y-99943980D01*
X116482752Y-99920171D01*
X116458942Y-99872552D01*
X116458942Y-99777314D01*
X116482752Y-99729695D01*
X116506561Y-99705885D01*
X116554180Y-99682076D01*
%TO.C,C9*%
X116678733Y-98740971D02*
X116702542Y-98764780D01*
X116773971Y-98788590D01*
X116821590Y-98788590D01*
X116893019Y-98764780D01*
X116940638Y-98717161D01*
X116964447Y-98669542D01*
X116988257Y-98574304D01*
X116988257Y-98502876D01*
X116964447Y-98407638D01*
X116940638Y-98360019D01*
X116893019Y-98312400D01*
X116821590Y-98288590D01*
X116773971Y-98288590D01*
X116702542Y-98312400D01*
X116678733Y-98336209D01*
X116440638Y-98788590D02*
X116345400Y-98788590D01*
X116297780Y-98764780D01*
X116273971Y-98740971D01*
X116226352Y-98669542D01*
X116202542Y-98574304D01*
X116202542Y-98383828D01*
X116226352Y-98336209D01*
X116250161Y-98312400D01*
X116297780Y-98288590D01*
X116393019Y-98288590D01*
X116440638Y-98312400D01*
X116464447Y-98336209D01*
X116488257Y-98383828D01*
X116488257Y-98502876D01*
X116464447Y-98550495D01*
X116440638Y-98574304D01*
X116393019Y-98598114D01*
X116297780Y-98598114D01*
X116250161Y-98574304D01*
X116226352Y-98550495D01*
X116202542Y-98502876D01*
%TO.C,C7*%
X124542571Y-94466666D02*
X124566380Y-94442857D01*
X124590190Y-94371428D01*
X124590190Y-94323809D01*
X124566380Y-94252380D01*
X124518761Y-94204761D01*
X124471142Y-94180952D01*
X124375904Y-94157142D01*
X124304476Y-94157142D01*
X124209238Y-94180952D01*
X124161619Y-94204761D01*
X124114000Y-94252380D01*
X124090190Y-94323809D01*
X124090190Y-94371428D01*
X124114000Y-94442857D01*
X124137809Y-94466666D01*
X124090190Y-94633333D02*
X124090190Y-94966666D01*
X124590190Y-94752380D01*
%TO.C,U2*%
X111339390Y-93314047D02*
X111744152Y-93314047D01*
X111791771Y-93337857D01*
X111815580Y-93361666D01*
X111839390Y-93409285D01*
X111839390Y-93504523D01*
X111815580Y-93552142D01*
X111791771Y-93575952D01*
X111744152Y-93599761D01*
X111339390Y-93599761D01*
X111387009Y-93814047D02*
X111363200Y-93837857D01*
X111339390Y-93885476D01*
X111339390Y-94004523D01*
X111363200Y-94052142D01*
X111387009Y-94075952D01*
X111434628Y-94099761D01*
X111482247Y-94099761D01*
X111553676Y-94075952D01*
X111839390Y-93790238D01*
X111839390Y-94099761D01*
%TO.C,D2*%
X127074153Y-94036327D02*
X126903142Y-93566481D01*
X126791274Y-93607198D01*
X126732297Y-93654001D01*
X126703836Y-93715035D01*
X126697749Y-93767926D01*
X126707949Y-93865564D01*
X126732379Y-93932685D01*
X126787326Y-94014036D01*
X126825986Y-94050640D01*
X126887020Y-94079100D01*
X126962284Y-94077044D01*
X127074153Y-94036327D01*
X126471956Y-93774095D02*
X126441439Y-93759865D01*
X126388549Y-93753778D01*
X126276681Y-93794494D01*
X126240077Y-93833155D01*
X126225846Y-93863672D01*
X126219760Y-93916562D01*
X126236046Y-93961310D01*
X126282850Y-94020287D01*
X126649053Y-94191051D01*
X126358196Y-94296914D01*
D15*
%TO.C,C8*%
X118990580Y-99240000D02*
X118709420Y-99240000D01*
X118990580Y-100260000D02*
X118709420Y-100260000D01*
%TO.C,C9*%
X118990580Y-97740000D02*
X118709420Y-97740000D01*
X118990580Y-98760000D02*
X118709420Y-98760000D01*
%TO.C,C7*%
X122690000Y-93034420D02*
X122690000Y-93315580D01*
X123710000Y-93034420D02*
X123710000Y-93315580D01*
%TO.C,U2*%
X118620000Y-97155000D02*
X119720000Y-97155000D01*
X117120000Y-97425000D02*
X118620000Y-97425000D01*
X118620000Y-90525000D02*
X118620000Y-90795000D01*
X118620000Y-97425000D02*
X118620000Y-97155000D01*
X118620000Y-90795000D02*
X121450000Y-90795000D01*
X117120000Y-90525000D02*
X118620000Y-90525000D01*
%TO.C,D2*%
X124814378Y-93843969D02*
X124232944Y-92246491D01*
X124232944Y-92246491D02*
X126629160Y-91374340D01*
X124814378Y-93843969D02*
X127210594Y-92971818D01*
%TD*%
M02*
