%TF.GenerationSoftware,KiCad,Pcbnew,6.0.2+dfsg-1*%
%TF.CreationDate,2025-02-24T10:06:26+01:00*%
%TF.ProjectId,RS232-to-CCtalk-converter,52533233-322d-4746-9f2d-434374616c6b,rev?*%
%TF.SameCoordinates,Original*%
%TF.FileFunction,Legend,Top*%
%TF.FilePolarity,Positive*%
%FSLAX46Y46*%
G04 Gerber Fmt 4.6, Leading zero omitted, Abs format (unit mm)*
G04 Created by KiCad (PCBNEW 6.0.2+dfsg-1) date 2025-02-24 10:06:26*
%MOMM*%
%LPD*%
G01*
G04 APERTURE LIST*
%ADD10C,0.100000*%
%ADD11C,0.150000*%
%ADD12C,0.300000*%
%ADD13C,0.400000*%
%ADD14C,0.125000*%
%ADD15C,0.250000*%
%ADD16C,0.120000*%
G04 APERTURE END LIST*
D10*
D11*
X177002200Y-166007200D02*
X177002200Y-198007200D01*
X285002200Y-198007200D01*
X285002200Y-166007200D01*
X177002200Y-166007200D01*
D10*
D11*
X10000000Y-10000000D02*
X10000000Y-200007200D01*
X287002200Y-200007200D01*
X287002200Y-10000000D01*
X10000000Y-10000000D01*
D10*
D11*
X12000000Y-12000000D02*
X12000000Y-198007200D01*
X285002200Y-198007200D01*
X285002200Y-12000000D01*
X12000000Y-12000000D01*
D10*
D11*
X60000000Y-12000000D02*
X60000000Y-10000000D01*
D10*
D11*
X110000000Y-12000000D02*
X110000000Y-10000000D01*
D10*
D11*
X160000000Y-12000000D02*
X160000000Y-10000000D01*
D10*
D11*
X210000000Y-12000000D02*
X210000000Y-10000000D01*
D10*
D11*
X260000000Y-12000000D02*
X260000000Y-10000000D01*
D10*
D11*
X36065476Y-11588095D02*
X35322619Y-11588095D01*
X35694047Y-11588095D02*
X35694047Y-10288095D01*
X35570238Y-10473809D01*
X35446428Y-10597619D01*
X35322619Y-10659523D01*
D10*
D11*
X85322619Y-10411904D02*
X85384523Y-10350000D01*
X85508333Y-10288095D01*
X85817857Y-10288095D01*
X85941666Y-10350000D01*
X86003571Y-10411904D01*
X86065476Y-10535714D01*
X86065476Y-10659523D01*
X86003571Y-10845238D01*
X85260714Y-11588095D01*
X86065476Y-11588095D01*
D10*
D11*
X135260714Y-10288095D02*
X136065476Y-10288095D01*
X135632142Y-10783333D01*
X135817857Y-10783333D01*
X135941666Y-10845238D01*
X136003571Y-10907142D01*
X136065476Y-11030952D01*
X136065476Y-11340476D01*
X136003571Y-11464285D01*
X135941666Y-11526190D01*
X135817857Y-11588095D01*
X135446428Y-11588095D01*
X135322619Y-11526190D01*
X135260714Y-11464285D01*
D10*
D11*
X185941666Y-10721428D02*
X185941666Y-11588095D01*
X185632142Y-10226190D02*
X185322619Y-11154761D01*
X186127380Y-11154761D01*
D10*
D11*
X236003571Y-10288095D02*
X235384523Y-10288095D01*
X235322619Y-10907142D01*
X235384523Y-10845238D01*
X235508333Y-10783333D01*
X235817857Y-10783333D01*
X235941666Y-10845238D01*
X236003571Y-10907142D01*
X236065476Y-11030952D01*
X236065476Y-11340476D01*
X236003571Y-11464285D01*
X235941666Y-11526190D01*
X235817857Y-11588095D01*
X235508333Y-11588095D01*
X235384523Y-11526190D01*
X235322619Y-11464285D01*
D10*
D11*
X285941666Y-10288095D02*
X285694047Y-10288095D01*
X285570238Y-10350000D01*
X285508333Y-10411904D01*
X285384523Y-10597619D01*
X285322619Y-10845238D01*
X285322619Y-11340476D01*
X285384523Y-11464285D01*
X285446428Y-11526190D01*
X285570238Y-11588095D01*
X285817857Y-11588095D01*
X285941666Y-11526190D01*
X286003571Y-11464285D01*
X286065476Y-11340476D01*
X286065476Y-11030952D01*
X286003571Y-10907142D01*
X285941666Y-10845238D01*
X285817857Y-10783333D01*
X285570238Y-10783333D01*
X285446428Y-10845238D01*
X285384523Y-10907142D01*
X285322619Y-11030952D01*
D10*
D11*
X60000000Y-198007200D02*
X60000000Y-200007200D01*
D10*
D11*
X110000000Y-198007200D02*
X110000000Y-200007200D01*
D10*
D11*
X160000000Y-198007200D02*
X160000000Y-200007200D01*
D10*
D11*
X210000000Y-198007200D02*
X210000000Y-200007200D01*
D10*
D11*
X260000000Y-198007200D02*
X260000000Y-200007200D01*
D10*
D11*
X36065476Y-199595295D02*
X35322619Y-199595295D01*
X35694047Y-199595295D02*
X35694047Y-198295295D01*
X35570238Y-198481009D01*
X35446428Y-198604819D01*
X35322619Y-198666723D01*
D10*
D11*
X85322619Y-198419104D02*
X85384523Y-198357200D01*
X85508333Y-198295295D01*
X85817857Y-198295295D01*
X85941666Y-198357200D01*
X86003571Y-198419104D01*
X86065476Y-198542914D01*
X86065476Y-198666723D01*
X86003571Y-198852438D01*
X85260714Y-199595295D01*
X86065476Y-199595295D01*
D10*
D11*
X135260714Y-198295295D02*
X136065476Y-198295295D01*
X135632142Y-198790533D01*
X135817857Y-198790533D01*
X135941666Y-198852438D01*
X136003571Y-198914342D01*
X136065476Y-199038152D01*
X136065476Y-199347676D01*
X136003571Y-199471485D01*
X135941666Y-199533390D01*
X135817857Y-199595295D01*
X135446428Y-199595295D01*
X135322619Y-199533390D01*
X135260714Y-199471485D01*
D10*
D11*
X185941666Y-198728628D02*
X185941666Y-199595295D01*
X185632142Y-198233390D02*
X185322619Y-199161961D01*
X186127380Y-199161961D01*
D10*
D11*
X236003571Y-198295295D02*
X235384523Y-198295295D01*
X235322619Y-198914342D01*
X235384523Y-198852438D01*
X235508333Y-198790533D01*
X235817857Y-198790533D01*
X235941666Y-198852438D01*
X236003571Y-198914342D01*
X236065476Y-199038152D01*
X236065476Y-199347676D01*
X236003571Y-199471485D01*
X235941666Y-199533390D01*
X235817857Y-199595295D01*
X235508333Y-199595295D01*
X235384523Y-199533390D01*
X235322619Y-199471485D01*
D10*
D11*
X285941666Y-198295295D02*
X285694047Y-198295295D01*
X285570238Y-198357200D01*
X285508333Y-198419104D01*
X285384523Y-198604819D01*
X285322619Y-198852438D01*
X285322619Y-199347676D01*
X285384523Y-199471485D01*
X285446428Y-199533390D01*
X285570238Y-199595295D01*
X285817857Y-199595295D01*
X285941666Y-199533390D01*
X286003571Y-199471485D01*
X286065476Y-199347676D01*
X286065476Y-199038152D01*
X286003571Y-198914342D01*
X285941666Y-198852438D01*
X285817857Y-198790533D01*
X285570238Y-198790533D01*
X285446428Y-198852438D01*
X285384523Y-198914342D01*
X285322619Y-199038152D01*
D10*
D11*
X10000000Y-60000000D02*
X12000000Y-60000000D01*
D10*
D11*
X10000000Y-110000000D02*
X12000000Y-110000000D01*
D10*
D11*
X10000000Y-160000000D02*
X12000000Y-160000000D01*
D10*
D11*
X10690476Y-35216666D02*
X11309523Y-35216666D01*
X10566666Y-35588095D02*
X11000000Y-34288095D01*
X11433333Y-35588095D01*
D10*
D11*
X11092857Y-84907142D02*
X11278571Y-84969047D01*
X11340476Y-85030952D01*
X11402380Y-85154761D01*
X11402380Y-85340476D01*
X11340476Y-85464285D01*
X11278571Y-85526190D01*
X11154761Y-85588095D01*
X10659523Y-85588095D01*
X10659523Y-84288095D01*
X11092857Y-84288095D01*
X11216666Y-84350000D01*
X11278571Y-84411904D01*
X11340476Y-84535714D01*
X11340476Y-84659523D01*
X11278571Y-84783333D01*
X11216666Y-84845238D01*
X11092857Y-84907142D01*
X10659523Y-84907142D01*
D10*
D11*
X11402380Y-135464285D02*
X11340476Y-135526190D01*
X11154761Y-135588095D01*
X11030952Y-135588095D01*
X10845238Y-135526190D01*
X10721428Y-135402380D01*
X10659523Y-135278571D01*
X10597619Y-135030952D01*
X10597619Y-134845238D01*
X10659523Y-134597619D01*
X10721428Y-134473809D01*
X10845238Y-134350000D01*
X11030952Y-134288095D01*
X11154761Y-134288095D01*
X11340476Y-134350000D01*
X11402380Y-134411904D01*
D10*
D11*
X10659523Y-185588095D02*
X10659523Y-184288095D01*
X10969047Y-184288095D01*
X11154761Y-184350000D01*
X11278571Y-184473809D01*
X11340476Y-184597619D01*
X11402380Y-184845238D01*
X11402380Y-185030952D01*
X11340476Y-185278571D01*
X11278571Y-185402380D01*
X11154761Y-185526190D01*
X10969047Y-185588095D01*
X10659523Y-185588095D01*
D10*
D11*
X287002200Y-60000000D02*
X285002200Y-60000000D01*
D10*
D11*
X287002200Y-110000000D02*
X285002200Y-110000000D01*
D10*
D11*
X287002200Y-160000000D02*
X285002200Y-160000000D01*
D10*
D11*
X285692676Y-35216666D02*
X286311723Y-35216666D01*
X285568866Y-35588095D02*
X286002200Y-34288095D01*
X286435533Y-35588095D01*
D10*
D11*
X286095057Y-84907142D02*
X286280771Y-84969047D01*
X286342676Y-85030952D01*
X286404580Y-85154761D01*
X286404580Y-85340476D01*
X286342676Y-85464285D01*
X286280771Y-85526190D01*
X286156961Y-85588095D01*
X285661723Y-85588095D01*
X285661723Y-84288095D01*
X286095057Y-84288095D01*
X286218866Y-84350000D01*
X286280771Y-84411904D01*
X286342676Y-84535714D01*
X286342676Y-84659523D01*
X286280771Y-84783333D01*
X286218866Y-84845238D01*
X286095057Y-84907142D01*
X285661723Y-84907142D01*
D10*
D11*
X286404580Y-135464285D02*
X286342676Y-135526190D01*
X286156961Y-135588095D01*
X286033152Y-135588095D01*
X285847438Y-135526190D01*
X285723628Y-135402380D01*
X285661723Y-135278571D01*
X285599819Y-135030952D01*
X285599819Y-134845238D01*
X285661723Y-134597619D01*
X285723628Y-134473809D01*
X285847438Y-134350000D01*
X286033152Y-134288095D01*
X286156961Y-134288095D01*
X286342676Y-134350000D01*
X286404580Y-134411904D01*
D10*
D11*
X285661723Y-185588095D02*
X285661723Y-184288095D01*
X285971247Y-184288095D01*
X286156961Y-184350000D01*
X286280771Y-184473809D01*
X286342676Y-184597619D01*
X286404580Y-184845238D01*
X286404580Y-185030952D01*
X286342676Y-185278571D01*
X286280771Y-185402380D01*
X286156961Y-185526190D01*
X285971247Y-185588095D01*
X285661723Y-185588095D01*
D10*
D11*
X200434342Y-193785771D02*
X200434342Y-192285771D01*
X200791485Y-192285771D01*
X201005771Y-192357200D01*
X201148628Y-192500057D01*
X201220057Y-192642914D01*
X201291485Y-192928628D01*
X201291485Y-193142914D01*
X201220057Y-193428628D01*
X201148628Y-193571485D01*
X201005771Y-193714342D01*
X200791485Y-193785771D01*
X200434342Y-193785771D01*
X202577200Y-193785771D02*
X202577200Y-193000057D01*
X202505771Y-192857200D01*
X202362914Y-192785771D01*
X202077200Y-192785771D01*
X201934342Y-192857200D01*
X202577200Y-193714342D02*
X202434342Y-193785771D01*
X202077200Y-193785771D01*
X201934342Y-193714342D01*
X201862914Y-193571485D01*
X201862914Y-193428628D01*
X201934342Y-193285771D01*
X202077200Y-193214342D01*
X202434342Y-193214342D01*
X202577200Y-193142914D01*
X203077200Y-192785771D02*
X203648628Y-192785771D01*
X203291485Y-192285771D02*
X203291485Y-193571485D01*
X203362914Y-193714342D01*
X203505771Y-193785771D01*
X203648628Y-193785771D01*
X204720057Y-193714342D02*
X204577200Y-193785771D01*
X204291485Y-193785771D01*
X204148628Y-193714342D01*
X204077200Y-193571485D01*
X204077200Y-193000057D01*
X204148628Y-192857200D01*
X204291485Y-192785771D01*
X204577200Y-192785771D01*
X204720057Y-192857200D01*
X204791485Y-193000057D01*
X204791485Y-193142914D01*
X204077200Y-193285771D01*
X205434342Y-193642914D02*
X205505771Y-193714342D01*
X205434342Y-193785771D01*
X205362914Y-193714342D01*
X205434342Y-193642914D01*
X205434342Y-193785771D01*
X205434342Y-192857200D02*
X205505771Y-192928628D01*
X205434342Y-193000057D01*
X205362914Y-192928628D01*
X205434342Y-192857200D01*
X205434342Y-193000057D01*
D10*
D11*
X177002200Y-194507200D02*
X285002200Y-194507200D01*
D10*
D11*
X178434342Y-196585771D02*
X178434342Y-195085771D01*
X179291485Y-196585771D02*
X178648628Y-195728628D01*
X179291485Y-195085771D02*
X178434342Y-195942914D01*
X179934342Y-196585771D02*
X179934342Y-195585771D01*
X179934342Y-195085771D02*
X179862914Y-195157200D01*
X179934342Y-195228628D01*
X180005771Y-195157200D01*
X179934342Y-195085771D01*
X179934342Y-195228628D01*
X181505771Y-196442914D02*
X181434342Y-196514342D01*
X181220057Y-196585771D01*
X181077200Y-196585771D01*
X180862914Y-196514342D01*
X180720057Y-196371485D01*
X180648628Y-196228628D01*
X180577200Y-195942914D01*
X180577200Y-195728628D01*
X180648628Y-195442914D01*
X180720057Y-195300057D01*
X180862914Y-195157200D01*
X181077200Y-195085771D01*
X181220057Y-195085771D01*
X181434342Y-195157200D01*
X181505771Y-195228628D01*
X182791485Y-196585771D02*
X182791485Y-195800057D01*
X182720057Y-195657200D01*
X182577200Y-195585771D01*
X182291485Y-195585771D01*
X182148628Y-195657200D01*
X182791485Y-196514342D02*
X182648628Y-196585771D01*
X182291485Y-196585771D01*
X182148628Y-196514342D01*
X182077200Y-196371485D01*
X182077200Y-196228628D01*
X182148628Y-196085771D01*
X182291485Y-196014342D01*
X182648628Y-196014342D01*
X182791485Y-195942914D01*
X184148628Y-196585771D02*
X184148628Y-195085771D01*
X184148628Y-196514342D02*
X184005771Y-196585771D01*
X183720057Y-196585771D01*
X183577200Y-196514342D01*
X183505771Y-196442914D01*
X183434342Y-196300057D01*
X183434342Y-195871485D01*
X183505771Y-195728628D01*
X183577200Y-195657200D01*
X183720057Y-195585771D01*
X184005771Y-195585771D01*
X184148628Y-195657200D01*
X186005771Y-195800057D02*
X186505771Y-195800057D01*
X186720057Y-196585771D02*
X186005771Y-196585771D01*
X186005771Y-195085771D01*
X186720057Y-195085771D01*
X187362914Y-196442914D02*
X187434342Y-196514342D01*
X187362914Y-196585771D01*
X187291485Y-196514342D01*
X187362914Y-196442914D01*
X187362914Y-196585771D01*
X188077200Y-196585771D02*
X188077200Y-195085771D01*
X188434342Y-195085771D01*
X188648628Y-195157200D01*
X188791485Y-195300057D01*
X188862914Y-195442914D01*
X188934342Y-195728628D01*
X188934342Y-195942914D01*
X188862914Y-196228628D01*
X188791485Y-196371485D01*
X188648628Y-196514342D01*
X188434342Y-196585771D01*
X188077200Y-196585771D01*
X189577200Y-196442914D02*
X189648628Y-196514342D01*
X189577200Y-196585771D01*
X189505771Y-196514342D01*
X189577200Y-196442914D01*
X189577200Y-196585771D01*
X190220057Y-196157200D02*
X190934342Y-196157200D01*
X190077200Y-196585771D02*
X190577200Y-195085771D01*
X191077200Y-196585771D01*
X191577200Y-196442914D02*
X191648628Y-196514342D01*
X191577200Y-196585771D01*
X191505771Y-196514342D01*
X191577200Y-196442914D01*
X191577200Y-196585771D01*
X194577200Y-196585771D02*
X194577200Y-195085771D01*
X194720057Y-196014342D02*
X195148628Y-196585771D01*
X195148628Y-195585771D02*
X194577200Y-196157200D01*
X195791485Y-196585771D02*
X195791485Y-195585771D01*
X195791485Y-195085771D02*
X195720057Y-195157200D01*
X195791485Y-195228628D01*
X195862914Y-195157200D01*
X195791485Y-195085771D01*
X195791485Y-195228628D01*
X197148628Y-196514342D02*
X197005771Y-196585771D01*
X196720057Y-196585771D01*
X196577200Y-196514342D01*
X196505771Y-196442914D01*
X196434342Y-196300057D01*
X196434342Y-195871485D01*
X196505771Y-195728628D01*
X196577200Y-195657200D01*
X196720057Y-195585771D01*
X197005771Y-195585771D01*
X197148628Y-195657200D01*
X198434342Y-196585771D02*
X198434342Y-195800057D01*
X198362914Y-195657200D01*
X198220057Y-195585771D01*
X197934342Y-195585771D01*
X197791485Y-195657200D01*
X198434342Y-196514342D02*
X198291485Y-196585771D01*
X197934342Y-196585771D01*
X197791485Y-196514342D01*
X197720057Y-196371485D01*
X197720057Y-196228628D01*
X197791485Y-196085771D01*
X197934342Y-196014342D01*
X198291485Y-196014342D01*
X198434342Y-195942914D01*
X199791485Y-196585771D02*
X199791485Y-195085771D01*
X199791485Y-196514342D02*
X199648628Y-196585771D01*
X199362914Y-196585771D01*
X199220057Y-196514342D01*
X199148628Y-196442914D01*
X199077200Y-196300057D01*
X199077200Y-195871485D01*
X199148628Y-195728628D01*
X199220057Y-195657200D01*
X199362914Y-195585771D01*
X199648628Y-195585771D01*
X199791485Y-195657200D01*
X202291485Y-195085771D02*
X202005771Y-195085771D01*
X201862914Y-195157200D01*
X201791485Y-195228628D01*
X201648628Y-195442914D01*
X201577200Y-195728628D01*
X201577200Y-196300057D01*
X201648628Y-196442914D01*
X201720057Y-196514342D01*
X201862914Y-196585771D01*
X202148628Y-196585771D01*
X202291485Y-196514342D01*
X202362914Y-196442914D01*
X202434342Y-196300057D01*
X202434342Y-195942914D01*
X202362914Y-195800057D01*
X202291485Y-195728628D01*
X202148628Y-195657200D01*
X201862914Y-195657200D01*
X201720057Y-195728628D01*
X201648628Y-195800057D01*
X201577200Y-195942914D01*
X203077200Y-196442914D02*
X203148628Y-196514342D01*
X203077200Y-196585771D01*
X203005771Y-196514342D01*
X203077200Y-196442914D01*
X203077200Y-196585771D01*
X204077200Y-195085771D02*
X204220057Y-195085771D01*
X204362914Y-195157200D01*
X204434342Y-195228628D01*
X204505771Y-195371485D01*
X204577200Y-195657200D01*
X204577200Y-196014342D01*
X204505771Y-196300057D01*
X204434342Y-196442914D01*
X204362914Y-196514342D01*
X204220057Y-196585771D01*
X204077200Y-196585771D01*
X203934342Y-196514342D01*
X203862914Y-196442914D01*
X203791485Y-196300057D01*
X203720057Y-196014342D01*
X203720057Y-195657200D01*
X203791485Y-195371485D01*
X203862914Y-195228628D01*
X203934342Y-195157200D01*
X204077200Y-195085771D01*
X205220057Y-196442914D02*
X205291485Y-196514342D01*
X205220057Y-196585771D01*
X205148628Y-196514342D01*
X205220057Y-196442914D01*
X205220057Y-196585771D01*
X205862914Y-195228628D02*
X205934342Y-195157200D01*
X206077200Y-195085771D01*
X206434342Y-195085771D01*
X206577200Y-195157200D01*
X206648628Y-195228628D01*
X206720057Y-195371485D01*
X206720057Y-195514342D01*
X206648628Y-195728628D01*
X205791485Y-196585771D01*
X206720057Y-196585771D01*
X207362914Y-196014342D02*
X208505771Y-196014342D01*
X207934342Y-196585771D02*
X207934342Y-195442914D01*
X209862914Y-196585771D02*
X209862914Y-195085771D01*
X209862914Y-196514342D02*
X209720057Y-196585771D01*
X209434342Y-196585771D01*
X209291485Y-196514342D01*
X209220057Y-196442914D01*
X209148628Y-196300057D01*
X209148628Y-195871485D01*
X209220057Y-195728628D01*
X209291485Y-195657200D01*
X209434342Y-195585771D01*
X209720057Y-195585771D01*
X209862914Y-195657200D01*
X210362914Y-195585771D02*
X210934342Y-195585771D01*
X210577200Y-196585771D02*
X210577200Y-195300057D01*
X210648628Y-195157200D01*
X210791485Y-195085771D01*
X210934342Y-195085771D01*
X211362914Y-196514342D02*
X211505771Y-196585771D01*
X211791485Y-196585771D01*
X211934342Y-196514342D01*
X212005771Y-196371485D01*
X212005771Y-196300057D01*
X211934342Y-196157200D01*
X211791485Y-196085771D01*
X211577200Y-196085771D01*
X211434342Y-196014342D01*
X211362914Y-195871485D01*
X211362914Y-195800057D01*
X211434342Y-195657200D01*
X211577200Y-195585771D01*
X211791485Y-195585771D01*
X211934342Y-195657200D01*
X213291485Y-195585771D02*
X213291485Y-196800057D01*
X213220057Y-196942914D01*
X213148628Y-197014342D01*
X213005771Y-197085771D01*
X212791485Y-197085771D01*
X212648628Y-197014342D01*
X213291485Y-196514342D02*
X213148628Y-196585771D01*
X212862914Y-196585771D01*
X212720057Y-196514342D01*
X212648628Y-196442914D01*
X212577200Y-196300057D01*
X212577200Y-195871485D01*
X212648628Y-195728628D01*
X212720057Y-195657200D01*
X212862914Y-195585771D01*
X213148628Y-195585771D01*
X213291485Y-195657200D01*
X214005771Y-196014342D02*
X215148628Y-196014342D01*
X216648628Y-196585771D02*
X215791485Y-196585771D01*
X216220057Y-196585771D02*
X216220057Y-195085771D01*
X216077200Y-195300057D01*
X215934342Y-195442914D01*
X215791485Y-195514342D01*
D10*
D11*
X177002200Y-191507200D02*
X285002200Y-191507200D01*
D10*
D12*
X264411485Y-193785771D02*
X263911485Y-193071485D01*
X263554342Y-193785771D02*
X263554342Y-192285771D01*
X264125771Y-192285771D01*
X264268628Y-192357200D01*
X264340057Y-192428628D01*
X264411485Y-192571485D01*
X264411485Y-192785771D01*
X264340057Y-192928628D01*
X264268628Y-193000057D01*
X264125771Y-193071485D01*
X263554342Y-193071485D01*
X265625771Y-193714342D02*
X265482914Y-193785771D01*
X265197200Y-193785771D01*
X265054342Y-193714342D01*
X264982914Y-193571485D01*
X264982914Y-193000057D01*
X265054342Y-192857200D01*
X265197200Y-192785771D01*
X265482914Y-192785771D01*
X265625771Y-192857200D01*
X265697200Y-193000057D01*
X265697200Y-193142914D01*
X264982914Y-193285771D01*
X266197200Y-192785771D02*
X266554342Y-193785771D01*
X266911485Y-192785771D01*
X267482914Y-193642914D02*
X267554342Y-193714342D01*
X267482914Y-193785771D01*
X267411485Y-193714342D01*
X267482914Y-193642914D01*
X267482914Y-193785771D01*
X267482914Y-192857200D02*
X267554342Y-192928628D01*
X267482914Y-193000057D01*
X267411485Y-192928628D01*
X267482914Y-192857200D01*
X267482914Y-193000057D01*
D10*
D11*
X178362914Y-193714342D02*
X178577200Y-193785771D01*
X178934342Y-193785771D01*
X179077200Y-193714342D01*
X179148628Y-193642914D01*
X179220057Y-193500057D01*
X179220057Y-193357200D01*
X179148628Y-193214342D01*
X179077200Y-193142914D01*
X178934342Y-193071485D01*
X178648628Y-193000057D01*
X178505771Y-192928628D01*
X178434342Y-192857200D01*
X178362914Y-192714342D01*
X178362914Y-192571485D01*
X178434342Y-192428628D01*
X178505771Y-192357200D01*
X178648628Y-192285771D01*
X179005771Y-192285771D01*
X179220057Y-192357200D01*
X179862914Y-193785771D02*
X179862914Y-192785771D01*
X179862914Y-192285771D02*
X179791485Y-192357200D01*
X179862914Y-192428628D01*
X179934342Y-192357200D01*
X179862914Y-192285771D01*
X179862914Y-192428628D01*
X180434342Y-192785771D02*
X181220057Y-192785771D01*
X180434342Y-193785771D01*
X181220057Y-193785771D01*
X182362914Y-193714342D02*
X182220057Y-193785771D01*
X181934342Y-193785771D01*
X181791485Y-193714342D01*
X181720057Y-193571485D01*
X181720057Y-193000057D01*
X181791485Y-192857200D01*
X181934342Y-192785771D01*
X182220057Y-192785771D01*
X182362914Y-192857200D01*
X182434342Y-193000057D01*
X182434342Y-193142914D01*
X181720057Y-193285771D01*
X183077200Y-193642914D02*
X183148628Y-193714342D01*
X183077200Y-193785771D01*
X183005771Y-193714342D01*
X183077200Y-193642914D01*
X183077200Y-193785771D01*
X183077200Y-192857200D02*
X183148628Y-192928628D01*
X183077200Y-193000057D01*
X183005771Y-192928628D01*
X183077200Y-192857200D01*
X183077200Y-193000057D01*
X184862914Y-193357200D02*
X185577200Y-193357200D01*
X184720057Y-193785771D02*
X185220057Y-192285771D01*
X185720057Y-193785771D01*
X186862914Y-192785771D02*
X186862914Y-193785771D01*
X186505771Y-192214342D02*
X186148628Y-193285771D01*
X187077200Y-193285771D01*
D10*
D11*
X263434342Y-196585771D02*
X263434342Y-195085771D01*
X264791485Y-196585771D02*
X264791485Y-195085771D01*
X264791485Y-196514342D02*
X264648628Y-196585771D01*
X264362914Y-196585771D01*
X264220057Y-196514342D01*
X264148628Y-196442914D01*
X264077200Y-196300057D01*
X264077200Y-195871485D01*
X264148628Y-195728628D01*
X264220057Y-195657200D01*
X264362914Y-195585771D01*
X264648628Y-195585771D01*
X264791485Y-195657200D01*
X265505771Y-196442914D02*
X265577200Y-196514342D01*
X265505771Y-196585771D01*
X265434342Y-196514342D01*
X265505771Y-196442914D01*
X265505771Y-196585771D01*
X265505771Y-195657200D02*
X265577200Y-195728628D01*
X265505771Y-195800057D01*
X265434342Y-195728628D01*
X265505771Y-195657200D01*
X265505771Y-195800057D01*
X268148628Y-196585771D02*
X267291485Y-196585771D01*
X267720057Y-196585771D02*
X267720057Y-195085771D01*
X267577200Y-195300057D01*
X267434342Y-195442914D01*
X267291485Y-195514342D01*
X269862914Y-195014342D02*
X268577200Y-196942914D01*
X271148628Y-196585771D02*
X270291485Y-196585771D01*
X270720057Y-196585771D02*
X270720057Y-195085771D01*
X270577200Y-195300057D01*
X270434342Y-195442914D01*
X270291485Y-195514342D01*
D10*
D11*
X177002200Y-187507200D02*
X285002200Y-187507200D01*
D10*
D13*
X178714580Y-188211961D02*
X179857438Y-188211961D01*
X179036009Y-190211961D02*
X179286009Y-188211961D01*
X180274104Y-190211961D02*
X180440771Y-188878628D01*
X180524104Y-188211961D02*
X180416961Y-188307200D01*
X180500295Y-188402438D01*
X180607438Y-188307200D01*
X180524104Y-188211961D01*
X180500295Y-188402438D01*
X181107438Y-188878628D02*
X181869342Y-188878628D01*
X181476485Y-188211961D02*
X181262200Y-189926247D01*
X181333628Y-190116723D01*
X181512200Y-190211961D01*
X181702676Y-190211961D01*
X182655057Y-190211961D02*
X182476485Y-190116723D01*
X182405057Y-189926247D01*
X182619342Y-188211961D01*
X184190771Y-190116723D02*
X183988390Y-190211961D01*
X183607438Y-190211961D01*
X183428866Y-190116723D01*
X183357438Y-189926247D01*
X183452676Y-189164342D01*
X183571723Y-188973866D01*
X183774104Y-188878628D01*
X184155057Y-188878628D01*
X184333628Y-188973866D01*
X184405057Y-189164342D01*
X184381247Y-189354819D01*
X183405057Y-189545295D01*
X185155057Y-190021485D02*
X185238390Y-190116723D01*
X185131247Y-190211961D01*
X185047914Y-190116723D01*
X185155057Y-190021485D01*
X185131247Y-190211961D01*
X185286009Y-188973866D02*
X185369342Y-189069104D01*
X185262200Y-189164342D01*
X185178866Y-189069104D01*
X185286009Y-188973866D01*
X185262200Y-189164342D01*
D10*
D11*
X178934342Y-185600057D02*
X178434342Y-185600057D01*
X178434342Y-186385771D02*
X178434342Y-184885771D01*
X179148628Y-184885771D01*
X179720057Y-186385771D02*
X179720057Y-185385771D01*
X179720057Y-184885771D02*
X179648628Y-184957200D01*
X179720057Y-185028628D01*
X179791485Y-184957200D01*
X179720057Y-184885771D01*
X179720057Y-185028628D01*
X180648628Y-186385771D02*
X180505771Y-186314342D01*
X180434342Y-186171485D01*
X180434342Y-184885771D01*
X181791485Y-186314342D02*
X181648628Y-186385771D01*
X181362914Y-186385771D01*
X181220057Y-186314342D01*
X181148628Y-186171485D01*
X181148628Y-185600057D01*
X181220057Y-185457200D01*
X181362914Y-185385771D01*
X181648628Y-185385771D01*
X181791485Y-185457200D01*
X181862914Y-185600057D01*
X181862914Y-185742914D01*
X181148628Y-185885771D01*
X182505771Y-186242914D02*
X182577200Y-186314342D01*
X182505771Y-186385771D01*
X182434342Y-186314342D01*
X182505771Y-186242914D01*
X182505771Y-186385771D01*
X182505771Y-185457200D02*
X182577200Y-185528628D01*
X182505771Y-185600057D01*
X182434342Y-185528628D01*
X182505771Y-185457200D01*
X182505771Y-185600057D01*
X185220057Y-186385771D02*
X184720057Y-185671485D01*
X184362914Y-186385771D02*
X184362914Y-184885771D01*
X184934342Y-184885771D01*
X185077200Y-184957200D01*
X185148628Y-185028628D01*
X185220057Y-185171485D01*
X185220057Y-185385771D01*
X185148628Y-185528628D01*
X185077200Y-185600057D01*
X184934342Y-185671485D01*
X184362914Y-185671485D01*
X185791485Y-186314342D02*
X186005771Y-186385771D01*
X186362914Y-186385771D01*
X186505771Y-186314342D01*
X186577200Y-186242914D01*
X186648628Y-186100057D01*
X186648628Y-185957200D01*
X186577200Y-185814342D01*
X186505771Y-185742914D01*
X186362914Y-185671485D01*
X186077200Y-185600057D01*
X185934342Y-185528628D01*
X185862914Y-185457200D01*
X185791485Y-185314342D01*
X185791485Y-185171485D01*
X185862914Y-185028628D01*
X185934342Y-184957200D01*
X186077200Y-184885771D01*
X186434342Y-184885771D01*
X186648628Y-184957200D01*
X187220057Y-185028628D02*
X187291485Y-184957200D01*
X187434342Y-184885771D01*
X187791485Y-184885771D01*
X187934342Y-184957200D01*
X188005771Y-185028628D01*
X188077200Y-185171485D01*
X188077200Y-185314342D01*
X188005771Y-185528628D01*
X187148628Y-186385771D01*
X188077200Y-186385771D01*
X188577200Y-184885771D02*
X189505771Y-184885771D01*
X189005771Y-185457200D01*
X189220057Y-185457200D01*
X189362914Y-185528628D01*
X189434342Y-185600057D01*
X189505771Y-185742914D01*
X189505771Y-186100057D01*
X189434342Y-186242914D01*
X189362914Y-186314342D01*
X189220057Y-186385771D01*
X188791485Y-186385771D01*
X188648628Y-186314342D01*
X188577200Y-186242914D01*
X190077200Y-185028628D02*
X190148628Y-184957200D01*
X190291485Y-184885771D01*
X190648628Y-184885771D01*
X190791485Y-184957200D01*
X190862914Y-185028628D01*
X190934342Y-185171485D01*
X190934342Y-185314342D01*
X190862914Y-185528628D01*
X190005771Y-186385771D01*
X190934342Y-186385771D01*
X191577200Y-185814342D02*
X192720057Y-185814342D01*
X193220057Y-185385771D02*
X193791485Y-185385771D01*
X193434342Y-184885771D02*
X193434342Y-186171485D01*
X193505771Y-186314342D01*
X193648628Y-186385771D01*
X193791485Y-186385771D01*
X194505771Y-186385771D02*
X194362914Y-186314342D01*
X194291485Y-186242914D01*
X194220057Y-186100057D01*
X194220057Y-185671485D01*
X194291485Y-185528628D01*
X194362914Y-185457200D01*
X194505771Y-185385771D01*
X194720057Y-185385771D01*
X194862914Y-185457200D01*
X194934342Y-185528628D01*
X195005771Y-185671485D01*
X195005771Y-186100057D01*
X194934342Y-186242914D01*
X194862914Y-186314342D01*
X194720057Y-186385771D01*
X194505771Y-186385771D01*
X195648628Y-185814342D02*
X196791485Y-185814342D01*
X198362914Y-186242914D02*
X198291485Y-186314342D01*
X198077200Y-186385771D01*
X197934342Y-186385771D01*
X197720057Y-186314342D01*
X197577200Y-186171485D01*
X197505771Y-186028628D01*
X197434342Y-185742914D01*
X197434342Y-185528628D01*
X197505771Y-185242914D01*
X197577200Y-185100057D01*
X197720057Y-184957200D01*
X197934342Y-184885771D01*
X198077200Y-184885771D01*
X198291485Y-184957200D01*
X198362914Y-185028628D01*
X199862914Y-186242914D02*
X199791485Y-186314342D01*
X199577200Y-186385771D01*
X199434342Y-186385771D01*
X199220057Y-186314342D01*
X199077200Y-186171485D01*
X199005771Y-186028628D01*
X198934342Y-185742914D01*
X198934342Y-185528628D01*
X199005771Y-185242914D01*
X199077200Y-185100057D01*
X199220057Y-184957200D01*
X199434342Y-184885771D01*
X199577200Y-184885771D01*
X199791485Y-184957200D01*
X199862914Y-185028628D01*
X200291485Y-185385771D02*
X200862914Y-185385771D01*
X200505771Y-184885771D02*
X200505771Y-186171485D01*
X200577200Y-186314342D01*
X200720057Y-186385771D01*
X200862914Y-186385771D01*
X202005771Y-186385771D02*
X202005771Y-185600057D01*
X201934342Y-185457200D01*
X201791485Y-185385771D01*
X201505771Y-185385771D01*
X201362914Y-185457200D01*
X202005771Y-186314342D02*
X201862914Y-186385771D01*
X201505771Y-186385771D01*
X201362914Y-186314342D01*
X201291485Y-186171485D01*
X201291485Y-186028628D01*
X201362914Y-185885771D01*
X201505771Y-185814342D01*
X201862914Y-185814342D01*
X202005771Y-185742914D01*
X202934342Y-186385771D02*
X202791485Y-186314342D01*
X202720057Y-186171485D01*
X202720057Y-184885771D01*
X203505771Y-186385771D02*
X203505771Y-184885771D01*
X203648628Y-185814342D02*
X204077200Y-186385771D01*
X204077200Y-185385771D02*
X203505771Y-185957200D01*
X204720057Y-185814342D02*
X205862914Y-185814342D01*
X207220057Y-186314342D02*
X207077200Y-186385771D01*
X206791485Y-186385771D01*
X206648628Y-186314342D01*
X206577200Y-186242914D01*
X206505771Y-186100057D01*
X206505771Y-185671485D01*
X206577200Y-185528628D01*
X206648628Y-185457200D01*
X206791485Y-185385771D01*
X207077200Y-185385771D01*
X207220057Y-185457200D01*
X208077200Y-186385771D02*
X207934342Y-186314342D01*
X207862914Y-186242914D01*
X207791485Y-186100057D01*
X207791485Y-185671485D01*
X207862914Y-185528628D01*
X207934342Y-185457200D01*
X208077200Y-185385771D01*
X208291485Y-185385771D01*
X208434342Y-185457200D01*
X208505771Y-185528628D01*
X208577200Y-185671485D01*
X208577200Y-186100057D01*
X208505771Y-186242914D01*
X208434342Y-186314342D01*
X208291485Y-186385771D01*
X208077200Y-186385771D01*
X209220057Y-185385771D02*
X209220057Y-186385771D01*
X209220057Y-185528628D02*
X209291485Y-185457200D01*
X209434342Y-185385771D01*
X209648628Y-185385771D01*
X209791485Y-185457200D01*
X209862914Y-185600057D01*
X209862914Y-186385771D01*
X210434342Y-185385771D02*
X210791485Y-186385771D01*
X211148628Y-185385771D01*
X212291485Y-186314342D02*
X212148628Y-186385771D01*
X211862914Y-186385771D01*
X211720057Y-186314342D01*
X211648628Y-186171485D01*
X211648628Y-185600057D01*
X211720057Y-185457200D01*
X211862914Y-185385771D01*
X212148628Y-185385771D01*
X212291485Y-185457200D01*
X212362914Y-185600057D01*
X212362914Y-185742914D01*
X211648628Y-185885771D01*
X213005771Y-186385771D02*
X213005771Y-185385771D01*
X213005771Y-185671485D02*
X213077200Y-185528628D01*
X213148628Y-185457200D01*
X213291485Y-185385771D01*
X213434342Y-185385771D01*
X213720057Y-185385771D02*
X214291485Y-185385771D01*
X213934342Y-184885771D02*
X213934342Y-186171485D01*
X214005771Y-186314342D01*
X214148628Y-186385771D01*
X214291485Y-186385771D01*
X215362914Y-186314342D02*
X215220057Y-186385771D01*
X214934342Y-186385771D01*
X214791485Y-186314342D01*
X214720057Y-186171485D01*
X214720057Y-185600057D01*
X214791485Y-185457200D01*
X214934342Y-185385771D01*
X215220057Y-185385771D01*
X215362914Y-185457200D01*
X215434342Y-185600057D01*
X215434342Y-185742914D01*
X214720057Y-185885771D01*
X216077200Y-186385771D02*
X216077200Y-185385771D01*
X216077200Y-185671485D02*
X216148628Y-185528628D01*
X216220057Y-185457200D01*
X216362914Y-185385771D01*
X216505771Y-185385771D01*
X217005771Y-186242914D02*
X217077200Y-186314342D01*
X217005771Y-186385771D01*
X216934342Y-186314342D01*
X217005771Y-186242914D01*
X217005771Y-186385771D01*
X217720057Y-186385771D02*
X217720057Y-184885771D01*
X217862914Y-185814342D02*
X218291485Y-186385771D01*
X218291485Y-185385771D02*
X217720057Y-185957200D01*
X218934342Y-186385771D02*
X218934342Y-185385771D01*
X218934342Y-184885771D02*
X218862914Y-184957200D01*
X218934342Y-185028628D01*
X219005771Y-184957200D01*
X218934342Y-184885771D01*
X218934342Y-185028628D01*
X220291485Y-186314342D02*
X220148628Y-186385771D01*
X219862914Y-186385771D01*
X219720057Y-186314342D01*
X219648628Y-186242914D01*
X219577200Y-186100057D01*
X219577200Y-185671485D01*
X219648628Y-185528628D01*
X219720057Y-185457200D01*
X219862914Y-185385771D01*
X220148628Y-185385771D01*
X220291485Y-185457200D01*
X221577200Y-186385771D02*
X221577200Y-185600057D01*
X221505771Y-185457200D01*
X221362914Y-185385771D01*
X221077200Y-185385771D01*
X220934342Y-185457200D01*
X221577200Y-186314342D02*
X221434342Y-186385771D01*
X221077200Y-186385771D01*
X220934342Y-186314342D01*
X220862914Y-186171485D01*
X220862914Y-186028628D01*
X220934342Y-185885771D01*
X221077200Y-185814342D01*
X221434342Y-185814342D01*
X221577200Y-185742914D01*
X222934342Y-186385771D02*
X222934342Y-184885771D01*
X222934342Y-186314342D02*
X222791485Y-186385771D01*
X222505771Y-186385771D01*
X222362914Y-186314342D01*
X222291485Y-186242914D01*
X222220057Y-186100057D01*
X222220057Y-185671485D01*
X222291485Y-185528628D01*
X222362914Y-185457200D01*
X222505771Y-185385771D01*
X222791485Y-185385771D01*
X222934342Y-185457200D01*
X223291485Y-186528628D02*
X224434342Y-186528628D01*
X224791485Y-185385771D02*
X224791485Y-186885771D01*
X224791485Y-185457200D02*
X224934342Y-185385771D01*
X225220057Y-185385771D01*
X225362914Y-185457200D01*
X225434342Y-185528628D01*
X225505771Y-185671485D01*
X225505771Y-186100057D01*
X225434342Y-186242914D01*
X225362914Y-186314342D01*
X225220057Y-186385771D01*
X224934342Y-186385771D01*
X224791485Y-186314342D01*
X226791485Y-186314342D02*
X226648628Y-186385771D01*
X226362914Y-186385771D01*
X226220057Y-186314342D01*
X226148628Y-186242914D01*
X226077200Y-186100057D01*
X226077200Y-185671485D01*
X226148628Y-185528628D01*
X226220057Y-185457200D01*
X226362914Y-185385771D01*
X226648628Y-185385771D01*
X226791485Y-185457200D01*
X227434342Y-186385771D02*
X227434342Y-184885771D01*
X227434342Y-185457200D02*
X227577200Y-185385771D01*
X227862914Y-185385771D01*
X228005771Y-185457200D01*
X228077200Y-185528628D01*
X228148628Y-185671485D01*
X228148628Y-186100057D01*
X228077200Y-186242914D01*
X228005771Y-186314342D01*
X227862914Y-186385771D01*
X227577200Y-186385771D01*
X227434342Y-186314342D01*
D10*
D11*
X177002200Y-181507200D02*
X285002200Y-181507200D01*
D10*
D11*
X178362914Y-183614342D02*
X178577200Y-183685771D01*
X178934342Y-183685771D01*
X179077200Y-183614342D01*
X179148628Y-183542914D01*
X179220057Y-183400057D01*
X179220057Y-183257200D01*
X179148628Y-183114342D01*
X179077200Y-183042914D01*
X178934342Y-182971485D01*
X178648628Y-182900057D01*
X178505771Y-182828628D01*
X178434342Y-182757200D01*
X178362914Y-182614342D01*
X178362914Y-182471485D01*
X178434342Y-182328628D01*
X178505771Y-182257200D01*
X178648628Y-182185771D01*
X179005771Y-182185771D01*
X179220057Y-182257200D01*
X179862914Y-183685771D02*
X179862914Y-182185771D01*
X180505771Y-183685771D02*
X180505771Y-182900057D01*
X180434342Y-182757200D01*
X180291485Y-182685771D01*
X180077200Y-182685771D01*
X179934342Y-182757200D01*
X179862914Y-182828628D01*
X181791485Y-183614342D02*
X181648628Y-183685771D01*
X181362914Y-183685771D01*
X181220057Y-183614342D01*
X181148628Y-183471485D01*
X181148628Y-182900057D01*
X181220057Y-182757200D01*
X181362914Y-182685771D01*
X181648628Y-182685771D01*
X181791485Y-182757200D01*
X181862914Y-182900057D01*
X181862914Y-183042914D01*
X181148628Y-183185771D01*
X183077200Y-183614342D02*
X182934342Y-183685771D01*
X182648628Y-183685771D01*
X182505771Y-183614342D01*
X182434342Y-183471485D01*
X182434342Y-182900057D01*
X182505771Y-182757200D01*
X182648628Y-182685771D01*
X182934342Y-182685771D01*
X183077200Y-182757200D01*
X183148628Y-182900057D01*
X183148628Y-183042914D01*
X182434342Y-183185771D01*
X183577200Y-182685771D02*
X184148628Y-182685771D01*
X183791485Y-182185771D02*
X183791485Y-183471485D01*
X183862914Y-183614342D01*
X184005771Y-183685771D01*
X184148628Y-183685771D01*
X184648628Y-183542914D02*
X184720057Y-183614342D01*
X184648628Y-183685771D01*
X184577200Y-183614342D01*
X184648628Y-183542914D01*
X184648628Y-183685771D01*
X184648628Y-182757200D02*
X184720057Y-182828628D01*
X184648628Y-182900057D01*
X184577200Y-182828628D01*
X184648628Y-182757200D01*
X184648628Y-182900057D01*
D10*
D12*
D10*
D11*
D10*
D11*
D10*
D11*
D10*
D11*
D10*
D11*
X197002200Y-191507200D02*
X197002200Y-194507200D01*
D10*
D11*
X261002200Y-191507200D02*
X261002200Y-198007200D01*
D14*
X105066666Y-85950000D02*
X105333333Y-85950000D01*
X105166666Y-85716666D02*
X105166666Y-86316666D01*
X105200000Y-86383333D01*
X105266666Y-86416666D01*
X105333333Y-86416666D01*
X105500000Y-86416666D02*
X105866666Y-85950000D01*
X105500000Y-85950000D02*
X105866666Y-86416666D01*
X106300000Y-86650000D02*
X106300000Y-85650000D01*
X106800000Y-86416666D02*
X106800000Y-85950000D01*
X106800000Y-86083333D02*
X106833333Y-86016666D01*
X106866666Y-85983333D01*
X106933333Y-85950000D01*
X107000000Y-85950000D01*
X107166666Y-86416666D02*
X107533333Y-85950000D01*
X107166666Y-85950000D02*
X107533333Y-86416666D01*
X107966666Y-86650000D02*
X107966666Y-85650000D01*
X108766666Y-85950000D02*
X108766666Y-86516666D01*
X108733333Y-86583333D01*
X108700000Y-86616666D01*
X108633333Y-86650000D01*
X108533333Y-86650000D01*
X108466666Y-86616666D01*
X108766666Y-86383333D02*
X108700000Y-86416666D01*
X108566666Y-86416666D01*
X108500000Y-86383333D01*
X108466666Y-86350000D01*
X108433333Y-86283333D01*
X108433333Y-86083333D01*
X108466666Y-86016666D01*
X108500000Y-85983333D01*
X108566666Y-85950000D01*
X108700000Y-85950000D01*
X108766666Y-85983333D01*
X109100000Y-85950000D02*
X109100000Y-86416666D01*
X109100000Y-86016666D02*
X109133333Y-85983333D01*
X109200000Y-85950000D01*
X109300000Y-85950000D01*
X109366666Y-85983333D01*
X109400000Y-86050000D01*
X109400000Y-86416666D01*
X110033333Y-86416666D02*
X110033333Y-85716666D01*
X110033333Y-86383333D02*
X109966666Y-86416666D01*
X109833333Y-86416666D01*
X109766666Y-86383333D01*
X109733333Y-86350000D01*
X109700000Y-86283333D01*
X109700000Y-86083333D01*
X109733333Y-86016666D01*
X109766666Y-85983333D01*
X109833333Y-85950000D01*
X109966666Y-85950000D01*
X110033333Y-85983333D01*
D15*
X131083333Y-91982571D02*
X131921428Y-91982571D01*
X131502380Y-92401619D02*
X131502380Y-91563523D01*
X132392857Y-91406380D02*
X132445238Y-91354000D01*
X132550000Y-91301619D01*
X132811904Y-91301619D01*
X132916666Y-91354000D01*
X132969047Y-91406380D01*
X133021428Y-91511142D01*
X133021428Y-91615904D01*
X132969047Y-91773047D01*
X132340476Y-92401619D01*
X133021428Y-92401619D01*
X133964285Y-91668285D02*
X133964285Y-92401619D01*
X133702380Y-91249238D02*
X133440476Y-92034952D01*
X134121428Y-92034952D01*
X132340476Y-94067857D02*
X132288095Y-94120238D01*
X132130952Y-94172619D01*
X132026190Y-94172619D01*
X131869047Y-94120238D01*
X131764285Y-94015476D01*
X131711904Y-93910714D01*
X131659523Y-93701190D01*
X131659523Y-93544047D01*
X131711904Y-93334523D01*
X131764285Y-93229761D01*
X131869047Y-93125000D01*
X132026190Y-93072619D01*
X132130952Y-93072619D01*
X132288095Y-93125000D01*
X132340476Y-93177380D01*
X133440476Y-94067857D02*
X133388095Y-94120238D01*
X133230952Y-94172619D01*
X133126190Y-94172619D01*
X132969047Y-94120238D01*
X132864285Y-94015476D01*
X132811904Y-93910714D01*
X132759523Y-93701190D01*
X132759523Y-93544047D01*
X132811904Y-93334523D01*
X132864285Y-93229761D01*
X132969047Y-93125000D01*
X133126190Y-93072619D01*
X133230952Y-93072619D01*
X133388095Y-93125000D01*
X133440476Y-93177380D01*
X131711904Y-94896000D02*
X131607142Y-94843619D01*
X131450000Y-94843619D01*
X131292857Y-94896000D01*
X131188095Y-95000761D01*
X131135714Y-95105523D01*
X131083333Y-95315047D01*
X131083333Y-95472190D01*
X131135714Y-95681714D01*
X131188095Y-95786476D01*
X131292857Y-95891238D01*
X131450000Y-95943619D01*
X131554761Y-95943619D01*
X131711904Y-95891238D01*
X131764285Y-95838857D01*
X131764285Y-95472190D01*
X131554761Y-95472190D01*
X132235714Y-95943619D02*
X132235714Y-94843619D01*
X132864285Y-95943619D01*
X132864285Y-94843619D01*
X133388095Y-95943619D02*
X133388095Y-94843619D01*
X133650000Y-94843619D01*
X133807142Y-94896000D01*
X133911904Y-95000761D01*
X133964285Y-95105523D01*
X134016666Y-95315047D01*
X134016666Y-95472190D01*
X133964285Y-95681714D01*
X133911904Y-95786476D01*
X133807142Y-95891238D01*
X133650000Y-95943619D01*
X133388095Y-95943619D01*
D14*
%TO.C,C4*%
X108266666Y-101877371D02*
X108242857Y-101901180D01*
X108171428Y-101924990D01*
X108123809Y-101924990D01*
X108052380Y-101901180D01*
X108004761Y-101853561D01*
X107980952Y-101805942D01*
X107957142Y-101710704D01*
X107957142Y-101639276D01*
X107980952Y-101544038D01*
X108004761Y-101496419D01*
X108052380Y-101448800D01*
X108123809Y-101424990D01*
X108171428Y-101424990D01*
X108242857Y-101448800D01*
X108266666Y-101472609D01*
X108695238Y-101591657D02*
X108695238Y-101924990D01*
X108576190Y-101401180D02*
X108457142Y-101758323D01*
X108766666Y-101758323D01*
D11*
%TO.C,J2*%
X113591666Y-89777380D02*
X113591666Y-90491666D01*
X113544047Y-90634523D01*
X113448809Y-90729761D01*
X113305952Y-90777380D01*
X113210714Y-90777380D01*
X114020238Y-89872619D02*
X114067857Y-89825000D01*
X114163095Y-89777380D01*
X114401190Y-89777380D01*
X114496428Y-89825000D01*
X114544047Y-89872619D01*
X114591666Y-89967857D01*
X114591666Y-90063095D01*
X114544047Y-90205952D01*
X113972619Y-90777380D01*
X114591666Y-90777380D01*
D14*
%TO.C,R2*%
X124522266Y-95001190D02*
X124355600Y-94763095D01*
X124236552Y-95001190D02*
X124236552Y-94501190D01*
X124427028Y-94501190D01*
X124474647Y-94525000D01*
X124498457Y-94548809D01*
X124522266Y-94596428D01*
X124522266Y-94667857D01*
X124498457Y-94715476D01*
X124474647Y-94739285D01*
X124427028Y-94763095D01*
X124236552Y-94763095D01*
X124712742Y-94548809D02*
X124736552Y-94525000D01*
X124784171Y-94501190D01*
X124903219Y-94501190D01*
X124950838Y-94525000D01*
X124974647Y-94548809D01*
X124998457Y-94596428D01*
X124998457Y-94644047D01*
X124974647Y-94715476D01*
X124688933Y-95001190D01*
X124998457Y-95001190D01*
%TO.C,C2*%
X119600266Y-89703571D02*
X119576457Y-89727380D01*
X119505028Y-89751190D01*
X119457409Y-89751190D01*
X119385980Y-89727380D01*
X119338361Y-89679761D01*
X119314552Y-89632142D01*
X119290742Y-89536904D01*
X119290742Y-89465476D01*
X119314552Y-89370238D01*
X119338361Y-89322619D01*
X119385980Y-89275000D01*
X119457409Y-89251190D01*
X119505028Y-89251190D01*
X119576457Y-89275000D01*
X119600266Y-89298809D01*
X119790742Y-89298809D02*
X119814552Y-89275000D01*
X119862171Y-89251190D01*
X119981219Y-89251190D01*
X120028838Y-89275000D01*
X120052647Y-89298809D01*
X120076457Y-89346428D01*
X120076457Y-89394047D01*
X120052647Y-89465476D01*
X119766933Y-89751190D01*
X120076457Y-89751190D01*
%TO.C,R4*%
X121216666Y-96701190D02*
X121050000Y-96463095D01*
X120930952Y-96701190D02*
X120930952Y-96201190D01*
X121121428Y-96201190D01*
X121169047Y-96225000D01*
X121192857Y-96248809D01*
X121216666Y-96296428D01*
X121216666Y-96367857D01*
X121192857Y-96415476D01*
X121169047Y-96439285D01*
X121121428Y-96463095D01*
X120930952Y-96463095D01*
X121645238Y-96367857D02*
X121645238Y-96701190D01*
X121526190Y-96177380D02*
X121407142Y-96534523D01*
X121716666Y-96534523D01*
D11*
%TO.C,J4*%
X88023666Y-90796099D02*
X88023666Y-91510385D01*
X87976047Y-91653242D01*
X87880809Y-91748480D01*
X87737952Y-91796099D01*
X87642714Y-91796099D01*
X88928428Y-91129433D02*
X88928428Y-91796099D01*
X88690333Y-90748480D02*
X88452238Y-91462766D01*
X89071285Y-91462766D01*
D14*
%TO.C,R1*%
X124541666Y-96001190D02*
X124375000Y-95763095D01*
X124255952Y-96001190D02*
X124255952Y-95501190D01*
X124446428Y-95501190D01*
X124494047Y-95525000D01*
X124517857Y-95548809D01*
X124541666Y-95596428D01*
X124541666Y-95667857D01*
X124517857Y-95715476D01*
X124494047Y-95739285D01*
X124446428Y-95763095D01*
X124255952Y-95763095D01*
X125017857Y-96001190D02*
X124732142Y-96001190D01*
X124875000Y-96001190D02*
X124875000Y-95501190D01*
X124827380Y-95572619D01*
X124779761Y-95620238D01*
X124732142Y-95644047D01*
%TO.C,Q1*%
X121527380Y-94123809D02*
X121479761Y-94100000D01*
X121432142Y-94052380D01*
X121360714Y-93980952D01*
X121313095Y-93957142D01*
X121265476Y-93957142D01*
X121289285Y-94076190D02*
X121241666Y-94052380D01*
X121194047Y-94004761D01*
X121170238Y-93909523D01*
X121170238Y-93742857D01*
X121194047Y-93647619D01*
X121241666Y-93600000D01*
X121289285Y-93576190D01*
X121384523Y-93576190D01*
X121432142Y-93600000D01*
X121479761Y-93647619D01*
X121503571Y-93742857D01*
X121503571Y-93909523D01*
X121479761Y-94004761D01*
X121432142Y-94052380D01*
X121384523Y-94076190D01*
X121289285Y-94076190D01*
X121979761Y-94076190D02*
X121694047Y-94076190D01*
X121836904Y-94076190D02*
X121836904Y-93576190D01*
X121789285Y-93647619D01*
X121741666Y-93695238D01*
X121694047Y-93719047D01*
%TO.C,R5*%
X121216666Y-92076190D02*
X121050000Y-91838095D01*
X120930952Y-92076190D02*
X120930952Y-91576190D01*
X121121428Y-91576190D01*
X121169047Y-91600000D01*
X121192857Y-91623809D01*
X121216666Y-91671428D01*
X121216666Y-91742857D01*
X121192857Y-91790476D01*
X121169047Y-91814285D01*
X121121428Y-91838095D01*
X120930952Y-91838095D01*
X121669047Y-91576190D02*
X121430952Y-91576190D01*
X121407142Y-91814285D01*
X121430952Y-91790476D01*
X121478571Y-91766666D01*
X121597619Y-91766666D01*
X121645238Y-91790476D01*
X121669047Y-91814285D01*
X121692857Y-91861904D01*
X121692857Y-91980952D01*
X121669047Y-92028571D01*
X121645238Y-92052380D01*
X121597619Y-92076190D01*
X121478571Y-92076190D01*
X121430952Y-92052380D01*
X121407142Y-92028571D01*
%TO.C,C3*%
X119616666Y-93953571D02*
X119592857Y-93977380D01*
X119521428Y-94001190D01*
X119473809Y-94001190D01*
X119402380Y-93977380D01*
X119354761Y-93929761D01*
X119330952Y-93882142D01*
X119307142Y-93786904D01*
X119307142Y-93715476D01*
X119330952Y-93620238D01*
X119354761Y-93572619D01*
X119402380Y-93525000D01*
X119473809Y-93501190D01*
X119521428Y-93501190D01*
X119592857Y-93525000D01*
X119616666Y-93548809D01*
X119783333Y-93501190D02*
X120092857Y-93501190D01*
X119926190Y-93691666D01*
X119997619Y-93691666D01*
X120045238Y-93715476D01*
X120069047Y-93739285D01*
X120092857Y-93786904D01*
X120092857Y-93905952D01*
X120069047Y-93953571D01*
X120045238Y-93977380D01*
X119997619Y-94001190D01*
X119854761Y-94001190D01*
X119807142Y-93977380D01*
X119783333Y-93953571D01*
%TO.C,D1*%
X127162752Y-91245190D02*
X127162752Y-90745190D01*
X127281800Y-90745190D01*
X127353228Y-90769000D01*
X127400847Y-90816619D01*
X127424657Y-90864238D01*
X127448466Y-90959476D01*
X127448466Y-91030904D01*
X127424657Y-91126142D01*
X127400847Y-91173761D01*
X127353228Y-91221380D01*
X127281800Y-91245190D01*
X127162752Y-91245190D01*
X127924657Y-91245190D02*
X127638942Y-91245190D01*
X127781800Y-91245190D02*
X127781800Y-90745190D01*
X127734180Y-90816619D01*
X127686561Y-90864238D01*
X127638942Y-90888047D01*
%TO.C,R3*%
X114525666Y-101451190D02*
X114359000Y-101213095D01*
X114239952Y-101451190D02*
X114239952Y-100951190D01*
X114430428Y-100951190D01*
X114478047Y-100975000D01*
X114501857Y-100998809D01*
X114525666Y-101046428D01*
X114525666Y-101117857D01*
X114501857Y-101165476D01*
X114478047Y-101189285D01*
X114430428Y-101213095D01*
X114239952Y-101213095D01*
X114692333Y-100951190D02*
X115001857Y-100951190D01*
X114835190Y-101141666D01*
X114906619Y-101141666D01*
X114954238Y-101165476D01*
X114978047Y-101189285D01*
X115001857Y-101236904D01*
X115001857Y-101355952D01*
X114978047Y-101403571D01*
X114954238Y-101427380D01*
X114906619Y-101451190D01*
X114763761Y-101451190D01*
X114716142Y-101427380D01*
X114692333Y-101403571D01*
%TO.C,J3*%
X129841333Y-88751190D02*
X129841333Y-89108333D01*
X129817523Y-89179761D01*
X129769904Y-89227380D01*
X129698476Y-89251190D01*
X129650857Y-89251190D01*
X130031809Y-88751190D02*
X130341333Y-88751190D01*
X130174666Y-88941666D01*
X130246095Y-88941666D01*
X130293714Y-88965476D01*
X130317523Y-88989285D01*
X130341333Y-89036904D01*
X130341333Y-89155952D01*
X130317523Y-89203571D01*
X130293714Y-89227380D01*
X130246095Y-89251190D01*
X130103238Y-89251190D01*
X130055619Y-89227380D01*
X130031809Y-89203571D01*
%TO.C,C6*%
X119616666Y-97203571D02*
X119592857Y-97227380D01*
X119521428Y-97251190D01*
X119473809Y-97251190D01*
X119402380Y-97227380D01*
X119354761Y-97179761D01*
X119330952Y-97132142D01*
X119307142Y-97036904D01*
X119307142Y-96965476D01*
X119330952Y-96870238D01*
X119354761Y-96822619D01*
X119402380Y-96775000D01*
X119473809Y-96751190D01*
X119521428Y-96751190D01*
X119592857Y-96775000D01*
X119616666Y-96798809D01*
X120045238Y-96751190D02*
X119950000Y-96751190D01*
X119902380Y-96775000D01*
X119878571Y-96798809D01*
X119830952Y-96870238D01*
X119807142Y-96965476D01*
X119807142Y-97155952D01*
X119830952Y-97203571D01*
X119854761Y-97227380D01*
X119902380Y-97251190D01*
X119997619Y-97251190D01*
X120045238Y-97227380D01*
X120069047Y-97203571D01*
X120092857Y-97155952D01*
X120092857Y-97036904D01*
X120069047Y-96989285D01*
X120045238Y-96965476D01*
X119997619Y-96941666D01*
X119902380Y-96941666D01*
X119854761Y-96965476D01*
X119830952Y-96989285D01*
X119807142Y-97036904D01*
%TO.C,C5*%
X109116666Y-99226371D02*
X109092857Y-99250180D01*
X109021428Y-99273990D01*
X108973809Y-99273990D01*
X108902380Y-99250180D01*
X108854761Y-99202561D01*
X108830952Y-99154942D01*
X108807142Y-99059704D01*
X108807142Y-98988276D01*
X108830952Y-98893038D01*
X108854761Y-98845419D01*
X108902380Y-98797800D01*
X108973809Y-98773990D01*
X109021428Y-98773990D01*
X109092857Y-98797800D01*
X109116666Y-98821609D01*
X109569047Y-98773990D02*
X109330952Y-98773990D01*
X109307142Y-99012085D01*
X109330952Y-98988276D01*
X109378571Y-98964466D01*
X109497619Y-98964466D01*
X109545238Y-98988276D01*
X109569047Y-99012085D01*
X109592857Y-99059704D01*
X109592857Y-99178752D01*
X109569047Y-99226371D01*
X109545238Y-99250180D01*
X109497619Y-99273990D01*
X109378571Y-99273990D01*
X109330952Y-99250180D01*
X109307142Y-99226371D01*
%TO.C,C1*%
X113575666Y-101838571D02*
X113551857Y-101862380D01*
X113480428Y-101886190D01*
X113432809Y-101886190D01*
X113361380Y-101862380D01*
X113313761Y-101814761D01*
X113289952Y-101767142D01*
X113266142Y-101671904D01*
X113266142Y-101600476D01*
X113289952Y-101505238D01*
X113313761Y-101457619D01*
X113361380Y-101410000D01*
X113432809Y-101386190D01*
X113480428Y-101386190D01*
X113551857Y-101410000D01*
X113575666Y-101433809D01*
X114051857Y-101886190D02*
X113766142Y-101886190D01*
X113909000Y-101886190D02*
X113909000Y-101386190D01*
X113861380Y-101457619D01*
X113813761Y-101505238D01*
X113766142Y-101529047D01*
%TO.C,Q2*%
X117828031Y-101908874D02*
X117786327Y-101941969D01*
X117723045Y-101965002D01*
X117628122Y-101999551D01*
X117586418Y-102032646D01*
X117566293Y-102075804D01*
X117684250Y-102104537D02*
X117642546Y-102137632D01*
X117579264Y-102160665D01*
X117482887Y-102141994D01*
X117331835Y-102071558D01*
X117255583Y-102009730D01*
X117232550Y-101946448D01*
X117231096Y-101893228D01*
X117271345Y-101806913D01*
X117313049Y-101773817D01*
X117376331Y-101750785D01*
X117472708Y-101769455D01*
X117623759Y-101839892D01*
X117700012Y-101901720D01*
X117723045Y-101965002D01*
X117724499Y-102018222D01*
X117684250Y-102104537D01*
X117445313Y-101546513D02*
X117433797Y-101514872D01*
X117432343Y-101461653D01*
X117482654Y-101353759D01*
X117524358Y-101320664D01*
X117555999Y-101309147D01*
X117609219Y-101307693D01*
X117652376Y-101327818D01*
X117707050Y-101379584D01*
X117845247Y-101759277D01*
X117976057Y-101478753D01*
D11*
%TO.C,J1*%
X105777380Y-84820000D02*
X106491666Y-84820000D01*
X106634523Y-84867619D01*
X106729761Y-84962857D01*
X106777380Y-85105714D01*
X106777380Y-85200952D01*
X106777380Y-83820000D02*
X106777380Y-84391428D01*
X106777380Y-84105714D02*
X105777380Y-84105714D01*
X105920238Y-84200952D01*
X106015476Y-84296190D01*
X106063095Y-84391428D01*
D14*
%TO.C,U1*%
X113069047Y-93426190D02*
X113069047Y-93830952D01*
X113092857Y-93878571D01*
X113116666Y-93902380D01*
X113164285Y-93926190D01*
X113259523Y-93926190D01*
X113307142Y-93902380D01*
X113330952Y-93878571D01*
X113354761Y-93830952D01*
X113354761Y-93426190D01*
X113854761Y-93926190D02*
X113569047Y-93926190D01*
X113711904Y-93926190D02*
X113711904Y-93426190D01*
X113664285Y-93497619D01*
X113616666Y-93545238D01*
X113569047Y-93569047D01*
D16*
%TO.C,C4*%
X110240580Y-102135000D02*
X109959420Y-102135000D01*
X110240580Y-101115000D02*
X109959420Y-101115000D01*
%TO.C,J2*%
X117441000Y-88093400D02*
X110379800Y-88093400D01*
X110379800Y-88093400D02*
X110379800Y-85756600D01*
X110379800Y-85756600D02*
X117441000Y-85756600D01*
X117441000Y-85756600D02*
X117441000Y-88093400D01*
%TO.C,R2*%
X126387742Y-94597500D02*
X126862258Y-94597500D01*
X126387742Y-93552500D02*
X126862258Y-93552500D01*
%TO.C,C2*%
X117990000Y-90665580D02*
X117990000Y-90384420D01*
X119010000Y-90665580D02*
X119010000Y-90384420D01*
%TO.C,R4*%
X120622500Y-95562258D02*
X120622500Y-95087742D01*
X119577500Y-95562258D02*
X119577500Y-95087742D01*
%TO.C,R1*%
X126387742Y-96097500D02*
X126862258Y-96097500D01*
X126387742Y-95052500D02*
X126862258Y-95052500D01*
%TO.C,Q1*%
X122925000Y-92540000D02*
X121250000Y-92540000D01*
X122925000Y-92540000D02*
X123575000Y-92540000D01*
X122925000Y-95660000D02*
X122275000Y-95660000D01*
X122925000Y-95660000D02*
X123575000Y-95660000D01*
%TO.C,R5*%
X119577500Y-91962742D02*
X119577500Y-92437258D01*
X120622500Y-91962742D02*
X120622500Y-92437258D01*
%TO.C,C3*%
X117990000Y-93665580D02*
X117990000Y-93384420D01*
X119010000Y-93665580D02*
X119010000Y-93384420D01*
%TO.C,D1*%
X128000000Y-93225000D02*
X128000000Y-91525000D01*
X128000000Y-91525000D02*
X125450000Y-91525000D01*
X128000000Y-93225000D02*
X125450000Y-93225000D01*
%TO.C,R3*%
X114387742Y-100647500D02*
X114862258Y-100647500D01*
X114387742Y-99602500D02*
X114862258Y-99602500D01*
%TO.C,J3*%
X128505000Y-99364800D02*
X134651800Y-99364800D01*
X134651800Y-99364800D02*
X134651800Y-88036400D01*
X134651800Y-88036400D02*
X128505000Y-88036400D01*
X128505000Y-88036400D02*
X128505000Y-99364800D01*
%TO.C,C6*%
X117990000Y-96665580D02*
X117990000Y-96384420D01*
X119010000Y-96665580D02*
X119010000Y-96384420D01*
%TO.C,C5*%
X110240580Y-100635000D02*
X109959420Y-100635000D01*
X110240580Y-99615000D02*
X109959420Y-99615000D01*
%TO.C,C1*%
X111840000Y-101015580D02*
X111840000Y-100734420D01*
X112860000Y-101015580D02*
X112860000Y-100734420D01*
%TO.C,Q2*%
X117153360Y-99416716D02*
X116445474Y-100934781D01*
X117153360Y-99416716D02*
X117428062Y-98827615D01*
X119981040Y-100735284D02*
X119706338Y-101324385D01*
X119981040Y-100735284D02*
X120255742Y-100146184D01*
%TO.C,J1*%
X108325000Y-100673333D02*
X108325000Y-87226667D01*
X106325000Y-86986667D02*
X108565000Y-86986667D01*
X104585000Y-100673333D02*
X108325000Y-100673333D01*
X108325000Y-87226667D02*
X104585000Y-87226667D01*
X108565000Y-86986667D02*
X108565000Y-91180000D01*
%TO.C,U1*%
X113450000Y-98960000D02*
X111065000Y-98960000D01*
X111065000Y-98960000D02*
X111065000Y-98680000D01*
X111065000Y-88440000D02*
X111065000Y-88720000D01*
X115835000Y-98960000D02*
X115835000Y-98680000D01*
X113450000Y-88440000D02*
X111065000Y-88440000D01*
X113450000Y-88440000D02*
X115835000Y-88440000D01*
X115835000Y-88440000D02*
X115835000Y-88720000D01*
X115835000Y-98680000D02*
X117500000Y-98680000D01*
X113450000Y-98960000D02*
X115835000Y-98960000D01*
%TD*%
M02*
